<?xml version="1.0" encoding="utf-8"?>
<!-- Generator: Adobe Illustrator 12.0.0, SVG Export Plug-In . SVG Version: 6.00 Build 51448)  -->
<!DOCTYPE svg PUBLIC "-//W3C//DTD SVG 1.1//EN" "http://www.w3.org/Graphics/SVG/1.1/DTD/svg11.dtd" [
	<!ENTITY ns_svg "http://www.w3.org/2000/svg">
	<!ENTITY ns_xlink "http://www.w3.org/1999/xlink">
]>
<svg  version="1.1" id="レイヤー_1" xmlns="&ns_svg;" xmlns:xlink="&ns_xlink;" width="354.331" height="212.599"
	 viewBox="0 0 354.331 212.599" overflow="visible" enable-background="new 0 0 354.331 212.599" xml:space="preserve">
<rect fill="none" width="354.331" height="212.599"/>
<g>
	<g>
		
			<ellipse transform="matrix(0.8597 0.5107 -0.5107 0.8597 53.0757 -41.1988)" fill="none" stroke="#FFFFFF" stroke-width="2.8347" stroke-linecap="round" stroke-linejoin="round" cx="101.548" cy="76.035" rx="8.527" ry="3.126"/>
		<path fill="none" stroke="#FFFFFF" stroke-width="2.8347" stroke-linecap="round" stroke-linejoin="round" d="M107.632,81.328
			c0,0-1.234,0.345-2.451,5.229c0,0-2.974,2.688-8.93-1.421c0,0-8.124-4.542-4.872-7.946l2.939-3.664"/>
		<path fill="none" stroke="#FFFFFF" stroke-width="2.8347" stroke-linecap="round" stroke-linejoin="round" d="M90.979,80.333
			l-7.794,11.528c0,0-1.096,2.459-6.911,3.627c0,0-10.313,3.537-14.049,8.539l-1.611,1.758"/>
		<path fill="none" stroke="#FFFFFF" stroke-width="2.8347" stroke-linecap="round" stroke-linejoin="round" d="M103.356,87.357
			l-6.269,11.849c0,0-2.144,2.325-1.049,7.974c0,0,5.431,14.623-4.45,32.212l-3.642,5.727"/>
	</g>
	<g>
		
			<ellipse transform="matrix(0.8704 -0.4923 0.4923 0.8704 -33.9297 71.1446)" fill="none" stroke="#FFFFFF" stroke-width="3" cx="118.198" cy="100.033" rx="21.896" ry="6.905"/>
		
			<line fill="none" stroke="#FFFFFF" stroke-width="3" stroke-linecap="round" stroke-linejoin="round" x1="99.139" y1="110.812" x2="124.721" y2="146.429"/>
		
			<line fill="none" stroke="#FFFFFF" stroke-width="3" stroke-linecap="round" stroke-linejoin="round" x1="137.127" y1="88.879" x2="154.467" y2="129.157"/>
		<polyline fill="none" stroke="#FFFFFF" stroke-width="3" stroke-linecap="round" stroke-linejoin="round" points="
			114.375,109.901 119.104,122.071 122.959,116.265 128.795,138.006 127.84,108.065 124.23,110.899 124.785,104.467 		"/>
	</g>
	<g>
		<g>
			<path fill="#FFFFFF" d="M205.26,130.695h2.883l-1.454-6.938L205.26,130.695z M160.51,129.805h-2.041v4.907h2.105
				c1.326,0,1.988-0.829,1.988-2.488c0-0.848-0.172-1.463-0.516-1.845C161.704,129.996,161.191,129.805,160.51,129.805z
				 M161.396,127.125c0.268-0.161,0.471-0.468,0.611-0.92c0.11-0.322,0.166-0.683,0.166-1.081c0-0.852-0.174-1.417-0.521-1.697
				s-0.879-0.42-1.592-0.42h-1.592v4.359h1.796C160.754,127.367,161.131,127.287,161.396,127.125z M265.57,98.773h1.453
				c0.047,0,0.071-0.062,0.071-0.187v-1.724c0-0.125-0.024-0.188-0.071-0.188h-1.453c-0.049,0-0.072,0.063-0.072,0.188v1.724
				C265.498,98.711,265.521,98.773,265.57,98.773z M265.57,93.565h1.453c0.047,0,0.071-0.063,0.071-0.188v-1.611
				c0-0.125-0.024-0.188-0.071-0.188h-1.453c-0.049,0-0.072,0.063-0.072,0.188v1.611C265.498,93.502,265.521,93.565,265.57,93.565z
				 M260.454,88.469h-0.385c-0.048,0-0.071,0.063-0.071,0.188v4.271c0,0.125,0.023,0.187,0.071,0.187h0.385
				c0.048,0,0.071-0.062,0.071-0.187v-4.271C260.525,88.532,260.502,88.469,260.454,88.469z M262.264,92.928v-4.271
				c0-0.125-0.023-0.188-0.07-0.188h-0.385c-0.049,0-0.072,0.063-0.072,0.188v4.271c0,0.125,0.023,0.187,0.072,0.187h0.385
				C262.24,93.115,262.264,93.053,262.264,92.928z M265.07,130.695h2.885l-1.455-6.938L265.07,130.695z M294.094,61.653H60.236
				c-3.896,0-7.086,3.189-7.086,7.087v75.118c0,3.898,3.189,7.086,7.086,7.086h233.857c3.898,0,7.088-3.188,7.088-7.086V68.74
				C301.182,64.842,297.992,61.653,294.094,61.653z M255.695,86.783l0.398-1.162c0.095-0.274,0.211-0.431,0.35-0.468
				c0.137-0.037,0.258,0.069,0.363,0.318c0.684,1.499,1.248,2.835,1.695,4.009c0.095,0.25,0.145,0.562,0.149,0.937
				c0.005,0.375-0.04,0.7-0.136,0.974l-0.412,1.274c-0.096,0.275-0.21,0.412-0.343,0.412s-0.251-0.125-0.356-0.375
				c-0.521-1.374-1.082-2.735-1.682-4.084c-0.104-0.25-0.158-0.556-0.164-0.918C255.555,87.339,255.6,87.033,255.695,86.783z
				 M258.709,97.855c0.061,0.337,0.073,0.693,0.035,1.068c-0.371,3.397-0.822,6.545-1.354,9.442
				c-0.066,0.324-0.164,0.537-0.293,0.637c-0.128,0.1-0.254,0.063-0.377-0.112l-0.641-0.974c-0.125-0.2-0.207-0.475-0.25-0.824
				c-0.043-0.35-0.031-0.7,0.035-1.049c0.484-2.598,0.926-5.558,1.326-8.88c0.037-0.325,0.118-0.556,0.242-0.693
				c0.123-0.137,0.246-0.144,0.37-0.019l0.612,0.674C258.549,97.274,258.646,97.518,258.709,97.855z M246.811,90.942
				c0-0.375,0.049-0.693,0.148-0.956s0.222-0.394,0.364-0.394h1.453c0.143,0,0.264,0.131,0.363,0.394s0.149,0.581,0.149,0.956v3.822
				c0,0.375-0.05,0.693-0.149,0.956s-0.221,0.393-0.363,0.393h-1.453c-0.143,0-0.265-0.131-0.364-0.393s-0.148-0.581-0.148-0.956
				V90.942z M214.904,79.814c0-0.375,0.051-0.687,0.15-0.937s0.221-0.375,0.363-0.375h8.293c0.143,0,0.264,0.125,0.363,0.375
				s0.15,0.562,0.15,0.937v1.836c0,0.375-0.051,0.693-0.15,0.956s-0.221,0.393-0.363,0.393h-8.293c-0.143,0-0.264-0.131-0.363-0.393
				s-0.15-0.581-0.15-0.956V79.814z M207.894,76.985c0.043-0.337,0.126-0.593,0.249-0.768l0.428-0.562
				c0.123-0.175,0.252-0.212,0.385-0.112c0.133,0.1,0.232,0.313,0.3,0.637c0.284,1.399,0.493,2.46,0.627,3.185
				c0.066,0.325,0.075,0.662,0.028,1.012c-0.048,0.35-0.133,0.6-0.256,0.75l-0.428,0.562c-0.133,0.15-0.264,0.168-0.393,0.056
				c-0.128-0.112-0.225-0.331-0.291-0.656c-0.049-0.225-0.112-0.549-0.193-0.974c-0.08-0.425-0.154-0.812-0.221-1.162
				s-0.133-0.674-0.199-0.974C207.863,77.653,207.851,77.322,207.894,76.985z M199.664,84.31c0-0.375,0.051-0.687,0.15-0.937
				s0.221-0.375,0.363-0.375h2.879c0.057,0,0.085-0.075,0.085-0.225c0.028-1.474,0.042-3.047,0.042-4.721
				c0-0.35,0.051-0.655,0.15-0.917s0.216-0.394,0.35-0.394h0.854c0.143,0,0.261,0.131,0.356,0.394
				c0.094,0.262,0.143,0.581,0.143,0.955c0,1.174-0.02,2.735-0.057,4.684c0,0.15,0.023,0.225,0.07,0.225h4.846
				c0.143,0,0.264,0.125,0.363,0.375s0.149,0.562,0.149,0.937v1.911c0,3.847-0.028,7.032-0.086,9.555s-0.14,4.596-0.249,6.22
				s-0.273,2.841-0.492,3.653s-0.458,1.361-0.719,1.649c-0.262,0.287-0.602,0.431-1.02,0.431c-0.58,0-1.392-0.125-2.437-0.375
				c-0.143-0.05-0.257-0.213-0.343-0.487c-0.085-0.275-0.123-0.599-0.113-0.974l0.071-1.911c0.019-0.35,0.081-0.644,0.186-0.881
				s0.224-0.343,0.356-0.318c0.721,0.175,1.291,0.262,1.709,0.262c0.305,0,0.529-0.293,0.678-0.88
				c0.146-0.587,0.261-1.911,0.342-3.972c0.08-2.061,0.121-5.239,0.121-9.536v-0.975c0-0.125-0.023-0.187-0.071-0.187h-3.42
				c-0.048,0-0.071,0.05-0.071,0.15c-0.199,4.821-0.59,8.749-1.168,11.784c-0.58,3.035-1.43,5.764-2.551,8.187
				c-0.105,0.25-0.229,0.355-0.371,0.318c-0.143-0.038-0.262-0.194-0.355-0.468l-0.514-1.499c-0.096-0.25-0.139-0.556-0.129-0.918
				s0.066-0.656,0.172-0.881c0.912-1.973,1.603-4.184,2.072-6.632c0.471-2.448,0.797-5.732,0.977-9.854
				c0-0.125-0.019-0.187-0.057-0.187h-2.75c-0.143,0-0.264-0.131-0.363-0.394c-0.1-0.262-0.15-0.581-0.15-0.956V84.31z
				 M189.84,90.942c0-0.375,0.049-0.693,0.148-0.956s0.222-0.394,0.364-0.394h1.453c0.143,0,0.264,0.131,0.363,0.394
				s0.149,0.581,0.149,0.956v3.822c0,0.375-0.05,0.693-0.149,0.956s-0.221,0.393-0.363,0.393h-1.453
				c-0.143,0-0.265-0.131-0.364-0.393s-0.148-0.581-0.148-0.956V90.942z M171.777,81.538l0.428-2.098
				c0.066-0.325,0.164-0.549,0.292-0.674s0.259-0.112,0.392,0.037c1.141,1.449,2.318,3.06,3.535,4.833
				c0.123,0.175,0.201,0.431,0.234,0.768c0.033,0.337,0.017,0.668-0.05,0.993l-0.456,2.173c-0.076,0.325-0.181,0.531-0.313,0.619
				s-0.261,0.043-0.385-0.131c-1.292-1.873-2.446-3.459-3.463-4.759c-0.124-0.149-0.206-0.399-0.249-0.749
				S171.711,81.862,171.777,81.538z M164.717,77.566c0.038-0.35,0.119-0.612,0.242-0.787l0.57-0.749
				c0.123-0.175,0.252-0.212,0.385-0.113c0.133,0.1,0.232,0.313,0.299,0.637c0.285,1.374,0.537,2.635,0.756,3.784
				c0.066,0.325,0.076,0.656,0.028,0.993c-0.048,0.337-0.134,0.581-0.257,0.73l-0.556,0.712c-0.124,0.15-0.254,0.168-0.392,0.056
				s-0.24-0.331-0.307-0.656l-0.727-3.597C164.693,78.253,164.679,77.916,164.717,77.566z M157.393,79.814
				c0-0.375,0.047-0.687,0.143-0.937c0.095-0.25,0.213-0.375,0.355-0.375h0.941c0.143,0,0.261,0.125,0.355,0.375
				c0.096,0.25,0.143,0.562,0.143,0.937v8.955c0,0.1,0.02,0.15,0.058,0.15c2.479-1.074,4.94-2.66,7.382-4.759
				c0.133-0.125,0.26-0.1,0.384,0.075s0.204,0.437,0.243,0.787l0.213,1.948c0.039,0.35,0.023,0.688-0.043,1.012
				s-0.166,0.549-0.299,0.674c-2.604,2.223-5.225,3.896-7.865,5.021c-0.049,0-0.072,0.075-0.072,0.225v4.833
				c0,1.773,0.109,2.941,0.328,3.503s0.664,0.843,1.34,0.843c2.146,0,4.132-0.15,5.956-0.45c0.133-0.025,0.249,0.087,0.349,0.337
				s0.154,0.549,0.164,0.899l0.029,1.949c0.009,0.375-0.036,0.699-0.136,0.974c-0.1,0.274-0.221,0.424-0.363,0.45
				c-2.033,0.324-4.081,0.487-6.142,0.487c-1.312,0-2.217-0.649-2.715-1.948c-0.499-1.299-0.748-3.697-0.748-7.194V79.814z
				 M152.363,138.189c0,3.898-3.188,7.087-7.086,7.087H67.324c-3.898,0-7.086-3.189-7.086-7.087v-63.78
				c0-3.897,3.188-7.087,7.086-7.087h77.953c3.897,0,7.086,3.189,7.086,7.087V138.189z M164.119,135.019
				c-0.275,0.753-0.646,1.31-1.111,1.669c-0.295,0.214-0.633,0.365-1.016,0.453c-0.383,0.089-0.828,0.133-1.338,0.133h-2.953
				c-0.426,0-0.73-0.167-0.912-0.5s-0.273-0.862-0.273-1.59v-12.649c0-0.742,0.094-1.276,0.279-1.602
				c0.188-0.325,0.49-0.488,0.906-0.488h3.131c0.463,0,0.861,0.05,1.2,0.149s0.642,0.292,0.909,0.575
				c0.227,0.237,0.428,0.538,0.602,0.902c0.175,0.364,0.309,0.766,0.399,1.207s0.138,0.906,0.138,1.396
				c0,1.686-0.48,2.919-1.439,3.7c1.26,0.703,1.891,2.071,1.891,4.104C164.531,133.419,164.395,134.266,164.119,135.019z
				 M168.273,135.478c0,0.696-0.09,1.217-0.272,1.561s-0.42,0.517-0.714,0.517c-0.28,0-0.512-0.175-0.693-0.522
				s-0.273-0.866-0.273-1.555v-13.249c0-0.688,0.09-1.204,0.27-1.549c0.18-0.344,0.412-0.516,0.697-0.516
				c0.294,0,0.531,0.17,0.714,0.51c0.183,0.341,0.272,0.859,0.272,1.555V135.478z M169.377,80.488c-0.048,0.35-0.133,0.6-0.257,0.75
				l-0.584,0.75c-0.134,0.175-0.267,0.2-0.399,0.075s-0.232-0.362-0.299-0.712c-0.162-0.824-0.414-2.061-0.756-3.709
				c-0.066-0.324-0.078-0.655-0.035-0.993c0.043-0.337,0.125-0.593,0.25-0.768l0.584-0.787c0.123-0.175,0.254-0.212,0.392-0.112
				c0.138,0.1,0.239,0.313,0.306,0.637c0.342,1.699,0.6,2.985,0.77,3.859C169.414,79.802,169.424,80.139,169.377,80.488z
				 M178.578,135.341c0,1.476-0.352,2.214-1.053,2.214c-0.176,0-0.334-0.044-0.475-0.132s-0.271-0.228-0.395-0.419
				c-0.123-0.19-0.238-0.414-0.344-0.671c-0.105-0.256-0.21-0.518-0.314-0.785l-3.67-9.791v9.848c0,0.642-0.086,1.127-0.259,1.456
				c-0.173,0.328-0.394,0.493-0.663,0.493c-0.279,0-0.502-0.167-0.67-0.499c-0.168-0.333-0.252-0.816-0.252-1.451V122.63
				c0-0.551,0.035-0.982,0.105-1.296c0.084-0.345,0.223-0.625,0.418-0.844c0.193-0.218,0.404-0.327,0.629-0.327
				c0.176,0,0.327,0.05,0.453,0.149c0.125,0.1,0.236,0.233,0.33,0.402c0.096,0.168,0.193,0.386,0.292,0.654s0.202,0.547,0.308,0.837
				l3.762,9.911v-10.003c0-0.65,0.08-1.137,0.24-1.462s0.377-0.488,0.648-0.488c0.281,0,0.502,0.163,0.664,0.488
				s0.244,0.813,0.244,1.462V135.341z M182.864,84.16c-0.532,6.794-1.642,12.084-3.327,15.868c-1.688,3.784-3.988,6.101-6.904,6.951
				c-0.143,0.024-0.269-0.076-0.378-0.3c-0.109-0.225-0.173-0.524-0.192-0.899l-0.143-2.248c-0.02-0.35,0.012-0.674,0.093-0.974
				s0.188-0.462,0.321-0.487c2.498-0.799,4.445-2.716,5.842-5.751s2.355-7.425,2.879-13.171c0.037-0.35,0.113-0.624,0.228-0.824
				c0.114-0.2,0.237-0.262,0.37-0.187l0.813,0.449c0.133,0.075,0.24,0.269,0.32,0.581C182.866,83.48,182.893,83.811,182.864,84.16z
				 M192.916,133.653c0,0.429-0.025,0.771-0.072,1.027c-0.049,0.256-0.137,0.487-0.266,0.693c-0.129,0.207-0.293,0.405-0.494,0.597
				c-0.584,0.552-1.146,0.953-1.686,1.206c-0.539,0.252-1.127,0.379-1.764,0.379c-0.741,0-1.416-0.199-2.027-0.597
				c-0.609-0.397-1.129-0.976-1.559-1.732c-0.431-0.757-0.761-1.675-0.99-2.753c-0.23-1.078-0.346-2.283-0.346-3.614
				c0-1.308,0.111-2.504,0.335-3.59s0.553-2.008,0.987-2.765c0.434-0.757,0.963-1.336,1.586-1.738
				c0.622-0.401,1.328-0.602,2.117-0.602c0.65,0,1.225,0.151,1.725,0.453s0.906,0.682,1.217,1.141
				c0.313,0.458,0.547,0.943,0.705,1.455c0.156,0.512,0.236,0.967,0.236,1.364c0,0.428-0.092,0.792-0.271,1.094
				c-0.182,0.302-0.399,0.453-0.652,0.453c-0.141,0-0.275-0.058-0.404-0.172s-0.236-0.274-0.324-0.48
				c-0.242-0.657-0.446-1.154-0.613-1.49c-0.168-0.336-0.393-0.619-0.678-0.848c-0.283-0.229-0.645-0.344-1.086-0.344
				c-0.453,0-0.857,0.136-1.215,0.407c-0.355,0.271-0.66,0.666-0.914,1.182c-0.252,0.516-0.445,1.149-0.58,1.898
				s-0.201,1.579-0.201,2.489c0,1.973,0.26,3.491,0.781,4.554c0.521,1.063,1.25,1.595,2.182,1.595c0.454,0,0.88-0.104,1.278-0.31
				c0.397-0.207,0.802-0.501,1.212-0.884v-2.729h-1.52c-0.365,0-0.641-0.096-0.828-0.287s-0.28-0.517-0.28-0.977
				c0-0.375,0.077-0.686,0.233-0.931s0.367-0.368,0.635-0.368h2.219c0.271,0,0.502,0.042,0.689,0.126
				c0.189,0.084,0.342,0.272,0.458,0.563s0.175,0.728,0.175,1.31V133.653z M201.402,136.889c-0.166,0.257-0.41,0.385-0.73,0.385
				h-4.725c-0.426,0-0.731-0.165-0.918-0.494c-0.186-0.328-0.279-0.86-0.279-1.595v-12.956c0-0.688,0.088-1.205,0.266-1.549
				c0.178-0.344,0.412-0.516,0.701-0.516c0.293,0,0.531,0.17,0.713,0.511s0.273,0.859,0.273,1.555v12.247h3.969
				c0.316,0,0.559,0.134,0.729,0.401c0.168,0.268,0.254,0.604,0.254,1.008C201.654,136.299,201.57,136.633,201.402,136.889z
				 M210.938,137.067c-0.186,0.325-0.411,0.488-0.674,0.488c-0.154,0-0.285-0.048-0.396-0.144s-0.202-0.226-0.276-0.39
				s-0.154-0.416-0.24-0.756s-0.159-0.64-0.221-0.899l-0.461-2.109h-3.924l-0.461,2.154c-0.18,0.841-0.333,1.408-0.461,1.702
				c-0.127,0.294-0.336,0.441-0.625,0.441c-0.246,0-0.463-0.157-0.652-0.471c-0.188-0.313-0.282-0.669-0.282-1.066
				c0-0.229,0.022-0.467,0.065-0.712c0.045-0.244,0.117-0.585,0.217-1.021l2.469-10.921c0.07-0.313,0.156-0.69,0.254-1.13
				c0.1-0.44,0.205-0.805,0.316-1.096s0.259-0.526,0.441-0.706c0.182-0.18,0.406-0.27,0.674-0.27c0.272,0,0.5,0.09,0.682,0.27
				s0.33,0.411,0.441,0.694c0.111,0.283,0.206,0.587,0.283,0.912c0.076,0.325,0.174,0.759,0.293,1.302l2.521,10.853
				c0.197,0.826,0.296,1.426,0.296,1.801C211.218,136.385,211.125,136.743,210.938,137.067z M212.111,79.927
				c-0.043,0.325-0.131,0.574-0.264,0.749l-0.455,0.6c-0.133,0.175-0.267,0.2-0.399,0.075s-0.233-0.362-0.3-0.712
				c-0.133-0.699-0.342-1.748-0.627-3.147c-0.066-0.324-0.078-0.662-0.035-1.011s0.126-0.612,0.25-0.787l0.455-0.6
				c0.133-0.175,0.266-0.206,0.399-0.093c0.133,0.112,0.233,0.331,0.3,0.655l0.641,3.26
				C212.143,79.265,212.154,79.602,212.111,79.927z M219.541,134.962c-0.301,0.811-0.74,1.445-1.318,1.904s-1.266,0.688-2.059,0.688
				c-0.951,0-1.736-0.313-2.354-0.94c-0.437-0.451-0.791-1.054-1.063-1.807s-0.409-1.485-0.409-2.197
				c0-0.413,0.082-0.767,0.246-1.061c0.163-0.294,0.371-0.441,0.625-0.441c0.204,0,0.377,0.114,0.52,0.344
				c0.141,0.229,0.262,0.57,0.363,1.021c0.122,0.535,0.255,0.982,0.398,1.342c0.143,0.359,0.343,0.656,0.602,0.889
				c0.26,0.233,0.6,0.351,1.021,0.351c0.58,0,1.051-0.235,1.413-0.706c0.362-0.47,0.544-1.057,0.544-1.761
				c0-0.558-0.098-1.011-0.293-1.359c-0.196-0.348-0.449-0.613-0.759-0.797s-0.724-0.379-1.242-0.585
				c-0.69-0.283-1.269-0.614-1.735-0.993c-0.465-0.378-0.835-0.895-1.107-1.548c-0.273-0.654-0.41-1.467-0.41-2.438
				c0-0.925,0.145-1.747,0.434-2.466s0.707-1.272,1.254-1.658c0.547-0.387,1.191-0.58,1.932-0.58c0.592,0,1.103,0.128,1.533,0.384
				c0.432,0.257,0.791,0.597,1.074,1.021c0.285,0.425,0.494,0.87,0.625,1.337c0.131,0.466,0.197,0.921,0.197,1.365
				c0,0.405-0.082,0.771-0.246,1.096s-0.369,0.487-0.613,0.487c-0.225,0-0.394-0.098-0.51-0.293
				c-0.115-0.195-0.242-0.516-0.377-0.96c-0.176-0.633-0.387-1.128-0.633-1.483s-0.642-0.533-1.186-0.533
				c-0.506,0-0.914,0.193-1.223,0.58c-0.311,0.386-0.465,0.851-0.465,1.394c0,0.336,0.053,0.627,0.158,0.872
				c0.105,0.244,0.25,0.455,0.434,0.631c0.186,0.176,0.372,0.313,0.561,0.413c0.189,0.099,0.502,0.245,0.936,0.436
				c0.545,0.222,1.036,0.467,1.477,0.734s0.814,0.592,1.124,0.975s0.55,0.866,0.724,1.451c0.172,0.585,0.26,1.302,0.26,2.15
				C219.992,133.239,219.842,134.152,219.541,134.962z M216.643,108.14c-0.143,0.025-0.27-0.081-0.385-0.318
				c-0.113-0.237-0.18-0.543-0.199-0.918l-0.113-1.874c-0.02-0.35,0.012-0.662,0.092-0.937c0.081-0.274,0.188-0.424,0.321-0.45
				c1.899-0.375,3.407-1.417,4.524-3.128c1.115-1.711,1.821-4.253,2.115-7.625c0.02-0.1,0-0.15-0.057-0.15h-8.578
				c-0.143,0-0.262-0.131-0.356-0.394c-0.095-0.262-0.143-0.581-0.143-0.956v-1.836c0-0.375,0.048-0.687,0.143-0.937
				c0.095-0.25,0.214-0.375,0.356-0.375h10.231c0.143,0,0.261,0.131,0.356,0.394c0.094,0.262,0.143,0.581,0.143,0.955
				c-0.039,5.646-0.751,10.01-2.138,13.095C221.568,105.773,219.465,107.59,216.643,108.14z M228.547,134.962
				c-0.301,0.811-0.74,1.445-1.318,1.904s-1.266,0.688-2.059,0.688c-0.951,0-1.736-0.313-2.354-0.94
				c-0.437-0.451-0.791-1.054-1.063-1.807s-0.409-1.485-0.409-2.197c0-0.413,0.082-0.767,0.246-1.061
				c0.163-0.294,0.371-0.441,0.625-0.441c0.204,0,0.377,0.114,0.52,0.344c0.141,0.229,0.262,0.57,0.363,1.021
				c0.122,0.535,0.255,0.982,0.398,1.342c0.143,0.359,0.343,0.656,0.602,0.889c0.26,0.233,0.6,0.351,1.021,0.351
				c0.58,0,1.051-0.235,1.413-0.706c0.362-0.47,0.544-1.057,0.544-1.761c0-0.558-0.098-1.011-0.293-1.359
				c-0.196-0.348-0.449-0.613-0.759-0.797s-0.724-0.379-1.242-0.585c-0.69-0.283-1.269-0.614-1.735-0.993
				c-0.465-0.378-0.835-0.895-1.107-1.548c-0.273-0.654-0.41-1.467-0.41-2.438c0-0.925,0.145-1.747,0.434-2.466
				s0.707-1.272,1.254-1.658c0.547-0.387,1.191-0.58,1.932-0.58c0.592,0,1.103,0.128,1.533,0.384
				c0.432,0.257,0.791,0.597,1.074,1.021c0.285,0.425,0.494,0.87,0.625,1.337c0.131,0.466,0.197,0.921,0.197,1.365
				c0,0.405-0.082,0.771-0.246,1.096s-0.369,0.487-0.613,0.487c-0.225,0-0.394-0.098-0.51-0.293
				c-0.115-0.195-0.242-0.516-0.377-0.96c-0.176-0.633-0.387-1.128-0.633-1.483s-0.642-0.533-1.186-0.533
				c-0.506,0-0.914,0.193-1.223,0.58c-0.311,0.386-0.465,0.851-0.465,1.394c0,0.336,0.053,0.627,0.158,0.872
				c0.105,0.244,0.25,0.455,0.434,0.631c0.186,0.176,0.372,0.313,0.561,0.413c0.189,0.099,0.502,0.245,0.936,0.436
				c0.545,0.222,1.036,0.467,1.477,0.734s0.814,0.592,1.124,0.975s0.55,0.866,0.724,1.451c0.172,0.585,0.26,1.302,0.26,2.15
				C228.998,133.239,228.848,134.152,228.547,134.962z M228.912,107.073c-0.138-0.113-0.24-0.332-0.307-0.656l-0.37-1.761
				c-0.066-0.325-0.081-0.656-0.043-0.993c0.038-0.337,0.118-0.593,0.243-0.768c1.775-2.448,3.322-5.302,4.638-8.562
				s2.358-6.813,3.128-10.66c0.019-0.125,0.01-0.188-0.028-0.188h-6.427c-0.143,0-0.262-0.125-0.356-0.375s-0.143-0.562-0.143-0.937
				v-1.986c0-0.375,0.048-0.687,0.143-0.937c0.095-0.25,0.214-0.375,0.356-0.375h8.122c0.143,0,0.261,0.125,0.356,0.375
				c0.095,0.25,0.143,0.562,0.143,0.937v1.986c0,0.875-0.071,1.711-0.214,2.511c-0.627,3.397-1.458,6.62-2.493,9.667
				c-0.039,0.1-0.039,0.188,0,0.263c1.158,2.748,2.346,5.695,3.563,8.842c0.104,0.275,0.156,0.587,0.156,0.937
				s-0.048,0.662-0.143,0.937l-0.599,1.536c-0.104,0.25-0.224,0.375-0.356,0.375s-0.252-0.125-0.355-0.375
				c-1.111-2.947-2.29-5.895-3.534-8.842c-0.038-0.1-0.076-0.1-0.114,0c-1.501,3.597-3.158,6.582-4.973,8.955
				C229.18,107.154,229.05,107.185,228.912,107.073z M242.049,133.696c-0.152,0.623-0.391,1.235-0.715,1.835
				c-0.326,0.601-0.741,1.088-1.246,1.462c-0.506,0.375-1.095,0.563-1.768,0.563c-0.51,0-0.973-0.084-1.391-0.252
				s-0.796-0.43-1.135-0.785c-0.34-0.354-0.652-0.822-0.936-1.403c-0.252-0.527-0.469-1.118-0.647-1.772s-0.313-1.352-0.401-2.094
				c-0.09-0.742-0.135-1.53-0.135-2.364c0-1.354,0.111-2.566,0.336-3.637c0.225-1.071,0.547-1.987,0.965-2.748
				c0.42-0.762,0.912-1.341,1.479-1.739s1.172-0.597,1.813-0.597c0.783,0,1.479,0.271,2.09,0.814s1.079,1.214,1.404,2.013
				s0.488,1.554,0.488,2.265c0,0.39-0.08,0.734-0.238,1.032c-0.158,0.298-0.35,0.447-0.572,0.447c-0.252,0-0.439-0.104-0.564-0.31
				s-0.265-0.563-0.418-1.068c-0.256-0.834-0.555-1.458-0.9-1.871c-0.346-0.413-0.77-0.62-1.275-0.62
				c-0.805,0-1.445,0.532-1.922,1.596s-0.715,2.575-0.715,4.534c0,1.309,0.105,2.397,0.316,3.266s0.51,1.518,0.896,1.945
				c0.387,0.429,0.84,0.644,1.357,0.644c0.563,0,1.039-0.243,1.428-0.729c0.389-0.485,0.682-1.199,0.88-2.141
				c0.083-0.444,0.187-0.806,0.31-1.085s0.32-0.419,0.594-0.419c0.232,0,0.433,0.142,0.6,0.425s0.25,0.635,0.25,1.056
				C242.275,132.494,242.199,133.073,242.049,133.696z M251.256,136.902c-0.156,0.248-0.388,0.372-0.695,0.372h-5.318
				c-0.425,0-0.73-0.165-0.916-0.494c-0.188-0.329-0.28-0.86-0.28-1.596v-12.649c0-0.49,0.042-0.89,0.125-1.2
				s0.214-0.536,0.392-0.677s0.404-0.212,0.68-0.212h5.166c0.313,0,0.545,0.121,0.695,0.361c0.152,0.241,0.229,0.557,0.229,0.946
				c0,0.397-0.076,0.716-0.229,0.957c-0.15,0.24-0.383,0.361-0.695,0.361h-4.409v4.141h4.061c0.299,0,0.522,0.117,0.669,0.351
				c0.146,0.234,0.221,0.543,0.221,0.927s-0.072,0.696-0.217,0.938c-0.146,0.242-0.369,0.363-0.673,0.363h-4.061v4.782h4.562
				c0.308,0,0.539,0.124,0.695,0.372s0.234,0.578,0.234,0.99C251.49,136.331,251.412,136.654,251.256,136.902z M260.945,136.849
				c-0.081,0.218-0.191,0.391-0.332,0.517c-0.139,0.126-0.301,0.189-0.484,0.189c-0.219,0-0.403-0.091-0.553-0.271
				c-0.148-0.18-0.275-0.407-0.383-0.683s-0.254-0.681-0.438-1.217l-0.781-2.273c-0.281-0.834-0.533-1.469-0.756-1.906
				c-0.223-0.436-0.447-0.734-0.678-0.895c-0.229-0.161-0.518-0.241-0.865-0.241h-0.687v5.407c0,0.712-0.091,1.236-0.271,1.572
				c-0.18,0.337-0.414,0.506-0.703,0.506c-0.311,0-0.553-0.177-0.723-0.528c-0.172-0.352-0.257-0.868-0.257-1.549v-12.944
				c0-0.734,0.095-1.266,0.284-1.595c0.188-0.329,0.494-0.494,0.916-0.494h3.184c0.439,0,0.815,0.033,1.127,0.098
				c0.313,0.065,0.594,0.197,0.844,0.396c0.301,0.222,0.567,0.54,0.799,0.953c0.23,0.413,0.406,0.893,0.525,1.439
				c0.121,0.547,0.181,1.126,0.181,1.738c0,1.254-0.202,2.256-0.606,3.005c-0.404,0.75-1.016,1.281-1.837,1.595
				c0.345,0.321,0.675,0.796,0.989,1.423s0.596,1.295,0.842,2.003c0.248,0.708,0.439,1.347,0.577,1.917
				c0.138,0.57,0.206,0.963,0.206,1.177C261.066,136.411,261.026,136.631,260.945,136.849z M262.008,101.883v6.632
				c0,0.375-0.049,0.687-0.143,0.937c-0.096,0.25-0.214,0.375-0.356,0.375h-0.755c-0.143,0-0.262-0.125-0.357-0.375
				c-0.094-0.25-0.142-0.562-0.142-0.937v-5.92c0-0.024-0.005-0.043-0.015-0.056s-0.02-0.006-0.028,0.019
				c-0.342,1.599-0.718,3.06-1.126,4.384c-0.076,0.25-0.171,0.349-0.285,0.3c-0.113-0.05-0.194-0.213-0.242-0.487l-0.299-1.874
				c-0.123-0.824-0.071-1.536,0.156-2.136c0.666-1.773,1.217-3.684,1.653-5.732c0.019-0.1,0.005-0.15-0.042-0.15h-0.029h-0.783
				c-0.143,0-0.264-0.131-0.363-0.394c-0.1-0.262-0.15-0.581-0.15-0.956v-9.442c0-0.375,0.051-0.693,0.15-0.956
				c0.1-0.262,0.221-0.394,0.363-0.394h0.969c0.047,0,0.071-0.062,0.071-0.187v-1.986c0-0.125-0.024-0.188-0.071-0.188h-1.24
				c-0.076,0-0.143-0.037-0.199-0.112c-0.048-0.05-0.086-0.038-0.113,0.037l-0.371,1.012c-0.096,0.25-0.214,0.381-0.356,0.394
				c-0.143,0.013-0.261-0.106-0.356-0.356c-0.446-1.099-0.926-2.21-1.439-3.334c-0.104-0.225-0.164-0.518-0.178-0.88
				s0.026-0.681,0.121-0.956l0.371-1.087c0.094-0.274,0.215-0.431,0.363-0.468c0.146-0.037,0.273,0.069,0.377,0.318
				c0.475,1.049,0.884,1.986,1.227,2.81c0.018,0.025,0.037,0.013,0.057-0.037c0-0.375,0.047-0.693,0.143-0.956
				c0.094-0.262,0.213-0.394,0.355-0.394h1.24c0.047,0,0.071-0.062,0.071-0.187v-1.349c0-0.375,0.048-0.687,0.142-0.937
				c0.096-0.25,0.215-0.375,0.357-0.375h0.755c0.143,0,0.261,0.125,0.356,0.375c0.094,0.25,0.143,0.562,0.143,0.937v1.349
				c0,0.125,0.023,0.187,0.07,0.187h1.112c0.189,0,0.332,0.212,0.427,0.637c0.02,0.05,0.029,0.038,0.029-0.038v-0.937
				c0-0.375,0.047-0.693,0.143-0.956c0.094-0.262,0.213-0.394,0.355-0.394h4.39c0.142,0,0.261,0.131,0.356,0.394
				c0.094,0.263,0.143,0.581,0.143,0.956v1.349c0,0.375-0.049,0.687-0.143,0.937c-0.096,0.25-0.215,0.375-0.356,0.375h-1.354
				c-0.037,0-0.066,0.063-0.085,0.188c-0.038,0.475-0.091,1.062-0.157,1.761c-0.019,0.125,0,0.188,0.058,0.188h1.282
				c0.143,0,0.262,0.125,0.356,0.375s0.143,0.562,0.143,0.937v17.011c0,0.375-0.048,0.693-0.143,0.956s-0.214,0.393-0.356,0.393
				h-0.982c-0.029,0-0.029,0.038,0,0.112c0.531,0.875,1.054,1.924,1.566,3.147c0.238,0.6,0.271,1.274,0.1,2.023l-0.299,1.274
				c-0.066,0.3-0.166,0.468-0.299,0.506c-0.133,0.037-0.248-0.057-0.342-0.281c-0.504-1.199-0.998-2.223-1.482-3.072
				c-0.114-0.2-0.188-0.475-0.221-0.824s-0.012-0.687,0.064-1.012l0.427-1.724c0.019-0.1,0.005-0.15-0.042-0.15h-1.27h-0.085
				c-0.038,0-0.048,0.05-0.028,0.15l0.398,1.611c0.199,0.774,0.181,1.474-0.057,2.098c-0.446,1.174-0.94,2.198-1.482,3.072
				c-0.123,0.2-0.256,0.256-0.398,0.169c-0.143-0.088-0.247-0.294-0.313-0.618l-0.3-1.312c-0.066-0.325-0.082-0.662-0.049-1.012
				s0.111-0.624,0.234-0.824c0.599-0.974,1.121-2.048,1.568-3.223c0-0.05-0.006-0.087-0.015-0.112h-0.513
				c-0.143,0-0.262-0.131-0.357-0.393c-0.094-0.262-0.142-0.581-0.142-0.956V84.123c0-0.375,0.048-0.687,0.142-0.937
				c0.096-0.25,0.215-0.375,0.357-0.375h0.654c0.039,0,0.066-0.063,0.086-0.188c0.02-0.2,0.045-0.5,0.078-0.899
				s0.06-0.687,0.079-0.862c0.019-0.125,0.005-0.188-0.043-0.188h-1.169c-0.18,0-0.318-0.2-0.412-0.6
				c-0.01-0.025-0.02-0.038-0.029-0.038s-0.014,0.013-0.014,0.038v0.974c0,0.375-0.049,0.687-0.143,0.937
				c-0.096,0.25-0.215,0.375-0.356,0.375h-1.112c-0.047,0-0.07,0.063-0.07,0.188v1.986c0,0.125,0.023,0.187,0.07,0.187h0.97
				c0.143,0,0.261,0.131,0.356,0.394c0.094,0.263,0.143,0.581,0.143,0.956v9.442c0,0.375-0.049,0.693-0.143,0.956
				c-0.096,0.263-0.214,0.394-0.356,0.394h-0.784h-0.057c-0.02,0-0.033,0.013-0.043,0.038s-0.01,0.05,0,0.075
				c0.361,1.124,0.798,2.261,1.311,3.41c0.257,0.575,0.338,1.274,0.242,2.098l-0.213,1.948c-0.029,0.275-0.1,0.457-0.214,0.544
				s-0.209,0.019-0.285-0.207c-0.38-1.049-0.698-2.023-0.954-2.922C262.031,101.846,262.018,101.858,262.008,101.883z
				 M270.749,137.067c-0.187,0.325-0.411,0.488-0.675,0.488c-0.154,0-0.285-0.048-0.395-0.144c-0.11-0.096-0.203-0.226-0.277-0.39
				s-0.154-0.416-0.24-0.756s-0.158-0.64-0.221-0.899l-0.461-2.109h-3.923l-0.461,2.154c-0.181,0.841-0.333,1.408-0.46,1.702
				c-0.129,0.294-0.336,0.441-0.627,0.441c-0.245,0-0.463-0.157-0.65-0.471c-0.189-0.313-0.283-0.669-0.283-1.066
				c0-0.229,0.021-0.467,0.064-0.712c0.045-0.244,0.117-0.585,0.219-1.021l2.469-10.921c0.07-0.313,0.154-0.69,0.252-1.13
				c0.1-0.44,0.205-0.805,0.316-1.096s0.26-0.526,0.441-0.706s0.406-0.27,0.675-0.27c0.272,0,0.499,0.09,0.681,0.27
				c0.184,0.18,0.33,0.411,0.441,0.694c0.111,0.283,0.207,0.587,0.283,0.912s0.174,0.759,0.293,1.302l2.521,10.853
				c0.197,0.826,0.297,1.426,0.297,1.801C271.029,136.385,270.936,136.743,270.749,137.067z M281.693,135.627
				c0,0.643-0.082,1.124-0.246,1.445c-0.166,0.321-0.386,0.482-0.662,0.482c-0.26,0-0.473-0.161-0.639-0.481
				c-0.166-0.321-0.25-0.803-0.25-1.445v-11.605l-1.549,10.71c-0.101,0.696-0.184,1.206-0.246,1.531
				c-0.064,0.324-0.182,0.621-0.354,0.889c-0.171,0.268-0.408,0.401-0.711,0.401c-0.229,0-0.422-0.087-0.58-0.259
				s-0.281-0.392-0.369-0.659s-0.156-0.563-0.207-0.889c-0.051-0.324-0.102-0.663-0.154-1.015l-1.549-10.71v11.605
				c0,0.643-0.082,1.124-0.246,1.445c-0.166,0.32-0.383,0.481-0.656,0.481c-0.263,0-0.479-0.159-0.645-0.477s-0.25-0.801-0.25-1.451
				v-13.312c0-0.734,0.109-1.229,0.329-1.486c0.22-0.256,0.517-0.384,0.89-0.384h0.605c0.363,0,0.629,0.058,0.793,0.172
				s0.287,0.321,0.365,0.62c0.08,0.298,0.17,0.784,0.271,1.458l1.403,9.218l1.402-9.218c0.102-0.674,0.191-1.16,0.27-1.458
				c0.08-0.299,0.201-0.505,0.367-0.62c0.164-0.115,0.428-0.172,0.793-0.172h0.605c0.373,0,0.67,0.128,0.889,0.384
				c0.221,0.257,0.33,0.752,0.33,1.486V135.627z M281.736,99.522c0,0.375-0.048,0.687-0.143,0.937
				c-0.096,0.25-0.214,0.375-0.355,0.375h-0.898c-0.143,0-0.262-0.125-0.356-0.375s-0.142-0.562-0.142-0.937v-0.6
				c0-0.125-0.024-0.187-0.072-0.187h-6.198c-0.048,0-0.071,0.05-0.071,0.15c-0.199,4.122-0.746,7.519-1.639,10.191
				c-0.096,0.274-0.217,0.431-0.363,0.468c-0.148,0.037-0.278-0.057-0.393-0.281l-0.684-1.349c-0.104-0.2-0.164-0.475-0.178-0.824
				c-0.016-0.35,0.021-0.663,0.106-0.937c0.503-1.599,0.848-3.403,1.033-5.414c0.185-2.011,0.278-5.052,0.278-9.124v-5.995
				c0-0.375,0.049-0.687,0.148-0.937s0.222-0.375,0.364-0.375h9.063c0.142,0,0.26,0.125,0.355,0.375
				c0.095,0.25,0.143,0.562,0.143,0.937V99.522z M282.662,80.301c0,0.375-0.047,0.688-0.143,0.937
				c-0.095,0.25-0.213,0.375-0.355,0.375h-11.258c-0.143,0-0.262-0.125-0.355-0.375c-0.096-0.25-0.143-0.562-0.143-0.937v-1.723
				c0-0.375,0.047-0.693,0.143-0.956c0.094-0.262,0.213-0.394,0.355-0.394h11.258c0.143,0,0.261,0.131,0.355,0.394
				c0.096,0.263,0.143,0.581,0.143,0.956V80.301z M285.754,135.478c0,0.696-0.092,1.217-0.273,1.561s-0.42,0.517-0.713,0.517
				c-0.281,0-0.512-0.175-0.694-0.522s-0.272-0.866-0.272-1.555v-13.249c0-0.688,0.09-1.204,0.27-1.549
				c0.18-0.344,0.412-0.516,0.697-0.516c0.293,0,0.531,0.17,0.713,0.51c0.182,0.341,0.273,0.859,0.273,1.555V135.478z
				 M295.945,133.696c-0.15,0.623-0.389,1.235-0.715,1.835c-0.324,0.601-0.74,1.088-1.246,1.462
				c-0.505,0.375-1.094,0.563-1.766,0.563c-0.51,0-0.975-0.084-1.391-0.252c-0.418-0.168-0.797-0.43-1.137-0.785
				c-0.34-0.354-0.65-0.822-0.934-1.403c-0.254-0.527-0.47-1.118-0.648-1.772s-0.313-1.352-0.402-2.094
				c-0.09-0.742-0.134-1.53-0.134-2.364c0-1.354,0.112-2.566,0.337-3.637c0.225-1.071,0.546-1.987,0.965-2.748
				c0.418-0.762,0.91-1.341,1.479-1.739c0.566-0.398,1.17-0.597,1.813-0.597c0.781,0,1.479,0.271,2.09,0.814
				c0.609,0.543,1.078,1.214,1.403,2.013s0.487,1.554,0.487,2.265c0,0.39-0.078,0.734-0.236,1.032
				c-0.158,0.298-0.35,0.447-0.574,0.447c-0.25,0-0.438-0.104-0.563-0.31s-0.265-0.563-0.419-1.068
				c-0.254-0.834-0.555-1.458-0.899-1.871c-0.345-0.413-0.771-0.62-1.275-0.62c-0.804,0-1.444,0.532-1.921,1.596
				c-0.478,1.064-0.716,2.575-0.716,4.534c0,1.309,0.105,2.397,0.316,3.266s0.51,1.518,0.896,1.945
				c0.387,0.429,0.839,0.644,1.358,0.644c0.563,0,1.037-0.243,1.426-0.729c0.39-0.485,0.684-1.199,0.881-2.141
				c0.084-0.444,0.188-0.806,0.311-1.085s0.32-0.419,0.592-0.419c0.234,0,0.434,0.142,0.601,0.425s0.251,0.635,0.251,1.056
				C296.174,132.494,296.098,133.073,295.945,133.696z M297.141,89.987c-0.023,2.535-0.057,4.827-0.1,6.875
				s-0.084,3.734-0.121,5.058c-0.039,1.324-0.098,2.479-0.179,3.466s-0.157,1.729-0.228,2.229c-0.072,0.5-0.172,0.899-0.299,1.199
				c-0.129,0.299-0.252,0.48-0.371,0.543s-0.273,0.094-0.463,0.094c-0.723,0-1.426-0.05-2.109-0.15
				c-0.143-0.025-0.266-0.175-0.371-0.45c-0.104-0.275-0.161-0.6-0.17-0.974l-0.029-1.648c-0.01-0.35,0.033-0.649,0.129-0.899
				c0.094-0.25,0.209-0.362,0.342-0.337c0.484,0.1,0.936,0.149,1.354,0.149c0.143,0,0.254-0.231,0.335-0.693
				s0.159-1.574,0.235-3.335c0.076-1.761,0.143-4.377,0.199-7.85c-0.01-0.025-0.02-0.038-0.028-0.038
				c-1.045,6.695-2.503,11.978-4.375,15.85c-0.114,0.25-0.242,0.349-0.385,0.3c-0.143-0.05-0.266-0.213-0.37-0.487l-0.499-1.461
				c-0.095-0.275-0.136-0.581-0.121-0.918s0.073-0.605,0.179-0.806c1.215-2.473,2.268-5.582,3.156-9.329
				c0.888-3.747,1.551-7.869,1.987-12.365c0.019-0.1,0.005-0.15-0.042-0.15h-0.656c-0.057,0-0.09,0.05-0.1,0.15
				c-0.408,3.297-0.947,6.382-1.617,9.255c-0.67,2.873-1.399,5.246-2.188,7.119c-0.104,0.25-0.226,0.356-0.363,0.318
				c-0.138-0.037-0.254-0.193-0.35-0.468l-0.484-1.386c-0.076-0.25-0.113-0.5-0.113-0.75c0-0.149-0.024-0.2-0.072-0.15
				c-0.066,0.05-0.168,0.125-0.306,0.225s-0.24,0.175-0.307,0.225c-0.038,0.025-0.057,0.1-0.057,0.225v9.892
				c0,0.375-0.048,0.687-0.143,0.937c-0.095,0.25-0.214,0.375-0.356,0.375h-0.813c-0.143,0-0.264-0.125-0.363-0.375
				c-0.1-0.25-0.149-0.562-0.149-0.937v-8.693c0-0.149-0.024-0.2-0.071-0.15c-0.399,0.225-0.917,0.5-1.553,0.824
				c-0.134,0.075-0.255,0-0.364-0.225s-0.173-0.512-0.192-0.862l-0.057-1.499c-0.02-0.375,0.014-0.711,0.1-1.011
				s0.199-0.487,0.342-0.563c1.026-0.524,1.602-0.824,1.725-0.899c0.047-0.05,0.071-0.137,0.071-0.262v-9.33
				c0-0.125-0.024-0.187-0.071-0.187h-0.385c-0.057,0-0.086,0.063-0.086,0.187c-0.123,2.273-0.232,4.022-0.327,5.246
				c-0.028,0.35-0.103,0.625-0.222,0.825c-0.118,0.2-0.244,0.25-0.377,0.15l-0.456-0.3c-0.133-0.1-0.237-0.306-0.313-0.618
				s-0.1-0.656-0.071-1.031c0.266-3.521,0.456-7.331,0.57-11.428c0.009-0.375,0.063-0.681,0.163-0.918s0.221-0.343,0.363-0.318
				l0.442,0.075c0.143,0.025,0.259,0.169,0.349,0.431s0.131,0.581,0.121,0.955c-0.019,1.149-0.037,1.974-0.057,2.473
				c0,0.1,0.02,0.15,0.057,0.15h0.229c0.047,0,0.071-0.063,0.071-0.188v-4.159c0-0.375,0.05-0.687,0.149-0.937
				c0.1-0.25,0.221-0.375,0.363-0.375h0.813c0.143,0,0.262,0.125,0.356,0.375c0.095,0.25,0.143,0.562,0.143,0.937v4.159
				c0,0.125,0.023,0.188,0.071,0.188h0.67c0.143,0,0.264,0.131,0.363,0.394s0.149,0.581,0.149,0.955v1.461
				c0,0.375-0.05,0.687-0.149,0.937s-0.221,0.375-0.363,0.375h-0.67c-0.048,0-0.071,0.063-0.071,0.187v8.168
				c0,0.125,0.028,0.163,0.085,0.112c0.076-0.05,0.195-0.137,0.356-0.262s0.284-0.212,0.37-0.262c0.123-0.1,0.24-0.05,0.35,0.15
				c0.109,0.2,0.168,0.462,0.178,0.787l0.029,1.124c0,0.025,0.006,0.044,0.021,0.057c0.014,0.013,0.025,0.006,0.035-0.019
				c1.14-3.122,2.037-7.006,2.693-11.653c0.028-0.125,0.014-0.188-0.043-0.188h-0.713c-0.047,0-0.08,0.063-0.1,0.188
				c-0.484,2.798-1.031,5.233-1.639,7.307c-0.076,0.275-0.181,0.418-0.313,0.431c-0.133,0.013-0.247-0.119-0.342-0.394l-0.484-1.349
				c-0.095-0.274-0.143-0.605-0.143-0.993s0.042-0.731,0.128-1.031c0.893-3.222,1.572-7.069,2.038-11.541
				c0.038-0.35,0.116-0.63,0.235-0.843c0.118-0.212,0.249-0.306,0.392-0.281l0.741,0.262c0.133,0.025,0.236,0.182,0.313,0.469
				s0.096,0.605,0.058,0.955c-0.058,0.55-0.151,1.35-0.284,2.398c-0.02,0.125-0.001,0.187,0.057,0.187h4.503
				c0.133,0,0.249,0.131,0.349,0.394c0.1,0.263,0.15,0.568,0.15,0.918C297.186,84.435,297.164,87.452,297.141,89.987z
				 M279.77,88.544h-6.084c-0.049,0-0.072,0.063-0.072,0.188v4.983v0.674c0,0.15,0.023,0.225,0.072,0.225h6.084
				c0.048,0,0.072-0.063,0.072-0.188v-5.695C279.842,88.606,279.817,88.544,279.77,88.544z M258.927,125.292
				c0-0.467-0.068-0.878-0.204-1.233c-0.137-0.356-0.326-0.622-0.568-0.798c-0.229-0.168-0.682-0.252-1.355-0.252h-1.81v4.625h1.757
				c0.472,0,0.868-0.071,1.189-0.212c0.322-0.142,0.566-0.382,0.736-0.723C258.842,126.357,258.927,125.888,258.927,125.292z
				 M265.57,88.432h1.453c0.047,0,0.071-0.05,0.071-0.15v-1.574c0-0.125-0.024-0.187-0.071-0.187h-1.453
				c-0.049,0-0.072,0.063-0.072,0.187v1.574C265.498,88.382,265.521,88.432,265.57,88.432z"/>
		</g>
	</g>
</g>
</svg>
