<?xml version="1.0" encoding="utf-8"?>
<!-- Generator: Adobe Illustrator 12.0.0, SVG Export Plug-In . SVG Version: 6.00 Build 51448)  -->
<!DOCTYPE svg PUBLIC "-//W3C//DTD SVG 1.1//EN" "http://www.w3.org/Graphics/SVG/1.1/DTD/svg11.dtd" [
	<!ENTITY ns_svg "http://www.w3.org/2000/svg">
	<!ENTITY ns_xlink "http://www.w3.org/1999/xlink">
]>
<svg  version="1.1" id="レイヤー_1" xmlns="&ns_svg;" xmlns:xlink="&ns_xlink;" width="354.331" height="212.598"
	 viewBox="0 0 354.331 212.598" overflow="visible" enable-background="new 0 0 354.331 212.598" xml:space="preserve">
<rect fill="none" width="354.331" height="212.598"/>
<g>
	<g>
		<g>
			<path fill="#FFFFFF" d="M221.758,130.695h4.67l-2.357-6.938L221.758,130.695z M259.594,82.475h-4.598
				c-0.127,0-0.215,0.063-0.266,0.188c-1.293,2.398-2.825,4.621-4.598,6.669c-0.051,0.101-0.026,0.149,0.075,0.149h9.386
				c0.127,0,0.19-0.063,0.19-0.188v-6.631C259.784,82.537,259.721,82.475,259.594,82.475z M294.094,61.653H60.236
				c-3.896,0-7.086,3.188-7.086,7.087v75.117c0,3.898,3.189,7.087,7.086,7.087h233.857c3.898,0,7.088-3.188,7.088-7.087V68.74
				C301.182,64.842,297.992,61.653,294.094,61.653z M208.984,88.731c0-0.374,0.133-0.687,0.399-0.937s0.589-0.375,0.97-0.375
				c5.092,0,10.196-0.074,15.313-0.225c0.051,0,0.089-0.025,0.114-0.074c0.025-0.051,0.025-0.088,0-0.113
				c-0.178-0.6-0.418-1.523-0.723-2.772c-0.051-0.125-0.139-0.188-0.266-0.188c-4.813,0.125-9.082,0.188-12.807,0.188
				c-0.379,0-0.696-0.124-0.949-0.374c-0.254-0.25-0.38-0.563-0.38-0.938v-1.349c0-0.35,0.126-0.655,0.38-0.918
				c0.253-0.263,0.557-0.394,0.912-0.394c3.547,0,7.6-0.063,12.16-0.188c0.126,0,0.189-0.05,0.189-0.15
				c-0.152-1.473-0.229-2.234-0.229-2.285c-0.025-0.375,0.083-0.699,0.324-0.975c0.24-0.273,0.551-0.424,0.931-0.449l2.166-0.112
				c0.38-0.024,0.702,0.087,0.969,0.337c0.266,0.25,0.425,0.563,0.476,0.938c0.126,1.449,0.202,2.235,0.228,2.359
				c0,0.101,0.075,0.15,0.228,0.15c1.773-0.074,4.408-0.188,7.904-0.337c0.354-0.024,0.665,0.094,0.932,0.356
				c0.266,0.262,0.411,0.568,0.437,0.918l0.075,1.348c0.025,0.375-0.095,0.693-0.36,0.956c-0.267,0.263-0.589,0.406-0.969,0.431
				c-3.192,0.15-5.637,0.25-7.334,0.3c-0.152,0-0.19,0.075-0.114,0.226c0.278,1.148,0.531,2.061,0.76,2.734
				c0.051,0.125,0.127,0.188,0.229,0.188c3.217-0.1,5.662-0.188,7.334-0.262c0.38-0.025,0.703,0.08,0.969,0.318
				c0.266,0.236,0.412,0.543,0.438,0.918l0.037,1.349c0.025,0.375-0.088,0.693-0.342,0.956c-0.254,0.262-0.57,0.405-0.949,0.43
				c-0.635,0.025-1.604,0.069-2.908,0.132s-2.299,0.106-2.982,0.131c-0.127,0-0.164,0.05-0.113,0.149
				c0.709,1.524,1.582,3.086,2.621,4.684c0.203,0.301,0.26,0.619,0.171,0.956s-0.298,0.593-0.626,0.769l-2.471,1.311
				c-0.734,0.4-1.545,0.438-2.432,0.113c-2.559-1.024-4.953-1.537-7.182-1.537c-2.18,0-3.737,0.244-4.675,0.731
				s-1.405,1.218-1.405,2.191c0,1.324,0.695,2.298,2.09,2.923c1.393,0.625,3.813,0.937,7.258,0.937c2.305,0,4.838-0.187,7.6-0.562
				c0.38-0.051,0.723,0.037,1.025,0.262c0.305,0.225,0.482,0.525,0.533,0.899l0.189,1.462c0.051,0.35-0.038,0.674-0.266,0.974
				c-0.229,0.3-0.52,0.474-0.875,0.524c-2.736,0.375-5.472,0.563-8.207,0.563c-9.703,0-14.555-2.66-14.555-7.981
				c0-2.099,0.95-3.759,2.85-4.983c1.9-1.224,4.713-1.836,8.438-1.836c2.076,0,4.141,0.324,6.193,0.975h0.076v-0.113
				c-0.481-0.898-0.95-1.91-1.406-3.034c-0.051-0.149-0.152-0.226-0.304-0.226c-7.499,0.201-13.072,0.301-16.72,0.301
				c-0.381,0-0.703-0.131-0.97-0.394s-0.399-0.581-0.399-0.956V88.731z M152.363,138.188c0,3.897-3.188,7.087-7.086,7.087H67.324
				c-3.898,0-7.086-3.189-7.086-7.087V74.409c0-3.897,3.188-7.087,7.086-7.087h77.953c3.897,0,7.086,3.189,7.086,7.087V138.188z
				 M170.137,91.354c0.189-0.325,0.463-0.524,0.816-0.6c3.167-0.725,5.484-1.742,6.955-3.054c1.469-1.312,2.229-2.967,2.279-4.965
				c0-0.125-0.063-0.188-0.189-0.188h-4.637c-0.127,0-0.189,0.063-0.189,0.188v3.223c0,0.375-0.127,0.693-0.381,0.955
				c-0.253,0.263-0.569,0.394-0.949,0.394h-2.279c-0.381,0-0.697-0.131-0.951-0.394c-0.253-0.262-0.379-0.58-0.379-0.955v-6.07
				c0-0.375,0.126-0.693,0.379-0.955c0.254-0.262,0.57-0.394,0.951-0.394h12.045c0.127,0,0.19-0.063,0.19-0.188v-2.023
				c0-0.374,0.126-0.692,0.38-0.955c0.253-0.263,0.57-0.394,0.95-0.394h2.508c0.38,0,0.696,0.131,0.95,0.394
				c0.253,0.263,0.38,0.581,0.38,0.955v2.023c0,0.125,0.063,0.188,0.19,0.188h12.045c0.381,0,0.697,0.132,0.951,0.394
				c0.252,0.262,0.379,0.58,0.379,0.955v4.159c0,0.375-0.127,0.687-0.379,0.937c-0.254,0.25-0.57,0.375-0.951,0.375h-2.279
				c-0.38,0-0.697-0.125-0.95-0.375s-0.38-0.562-0.38-0.937v-1.312c0-0.125-0.063-0.188-0.189-0.188h-4.484
				c-0.127,0-0.189,0.063-0.189,0.188v5.32c0,0.6,0.05,0.943,0.151,1.031c0.101,0.088,0.493,0.144,1.178,0.168
				c0.102,0,0.278,0.006,0.532,0.02c0.253,0.012,0.43,0.018,0.531,0.018s0.273-0.006,0.514-0.018c0.24-0.014,0.424-0.02,0.551-0.02
				c0.785-0.024,1.292-0.1,1.52-0.225c0.229-0.125,0.381-0.486,0.457-1.086c0.051-0.35,0.221-0.645,0.513-0.881
				c0.291-0.238,0.614-0.344,0.97-0.318l2.127,0.225c0.381,0.05,0.684,0.213,0.912,0.486c0.229,0.275,0.33,0.6,0.305,0.975
				c-0.178,2.099-0.621,3.373-1.33,3.822c-0.71,0.449-2.483,0.699-5.32,0.749c-0.203,0-0.494,0.007-0.874,0.019
				c-0.38,0.014-0.671,0.02-0.874,0.02s-0.494-0.006-0.874-0.02c-0.38-0.012-0.671-0.019-0.874-0.019
				c-2.255-0.024-3.66-0.212-4.219-0.562c-0.557-0.35-0.836-1.149-0.836-2.398v-7.307c0-0.125-0.063-0.188-0.189-0.188h-2.279
				c-0.152,0-0.229,0.076-0.229,0.225c-0.38,6.121-4.699,10.117-12.958,11.99c-0.354,0.076-0.69,0.014-1.007-0.188
				c-0.316-0.199-0.539-0.475-0.665-0.824l-0.456-1.424C169.902,92.004,169.947,91.68,170.137,91.354z M170.498,108.459
				c-0.254-0.263-0.381-0.581-0.381-0.955v-1.462c0-0.374,0.127-0.687,0.381-0.937c0.253-0.25,0.57-0.375,0.949-0.375h12.16
				c0.127,0,0.19-0.063,0.19-0.188v-5.508c0-0.125-0.063-0.188-0.19-0.188h-8.625c-0.381,0-0.697-0.124-0.951-0.374
				c-0.253-0.25-0.379-0.562-0.379-0.937v-1.35c0-0.374,0.126-0.692,0.379-0.955c0.254-0.262,0.57-0.394,0.951-0.394h22.838
				c0.379,0,0.702,0.132,0.969,0.394c0.266,0.263,0.398,0.581,0.398,0.955v1.35c0,0.375-0.133,0.687-0.398,0.937
				c-0.267,0.25-0.59,0.374-0.969,0.374h-8.664c-0.127,0-0.19,0.063-0.19,0.188v5.508c0,0.125,0.063,0.188,0.19,0.188h12.16
				c0.379,0,0.695,0.125,0.949,0.375s0.381,0.563,0.381,0.937v1.462c0,0.374-0.127,0.692-0.381,0.955
				c-0.254,0.262-0.57,0.393-0.949,0.393h-29.869C171.068,108.852,170.751,108.721,170.498,108.459z M214.783,133.695
				c-0.245,0.623-0.631,1.235-1.158,1.836c-0.525,0.6-1.198,1.088-2.017,1.461c-0.818,0.375-1.772,0.563-2.86,0.563
				c-0.826,0-1.576-0.084-2.252-0.252s-1.291-0.43-1.842-0.785c-0.553-0.354-1.06-0.822-1.523-1.402
				c-0.413-0.527-0.766-1.119-1.059-1.773c-0.292-0.654-0.512-1.352-0.657-2.094s-0.22-1.529-0.22-2.363
				c0-1.354,0.184-2.566,0.551-3.637c0.367-1.072,0.893-1.988,1.578-2.748c0.684-0.762,1.484-1.342,2.402-1.739
				s1.896-0.597,2.936-0.597c1.268,0,2.395,0.271,3.384,0.814s1.747,1.214,2.273,2.013s0.79,1.554,0.79,2.265
				c0,0.391-0.129,0.734-0.385,1.033c-0.256,0.297-0.565,0.447-0.928,0.447c-0.406,0-0.711-0.104-0.913-0.311
				s-0.429-0.563-0.678-1.068c-0.413-0.834-0.897-1.457-1.456-1.871c-0.559-0.412-1.248-0.619-2.066-0.619
				c-1.303,0-2.34,0.531-3.111,1.596s-1.158,2.575-1.158,4.534c0,1.31,0.172,2.397,0.513,3.267c0.341,0.868,0.825,1.517,1.452,1.945
				c0.625,0.428,1.358,0.643,2.198,0.643c0.911,0,1.681-0.242,2.312-0.729c0.629-0.486,1.104-1.199,1.424-2.141
				c0.135-0.445,0.303-0.807,0.502-1.086s0.52-0.418,0.961-0.418c0.377,0,0.701,0.141,0.971,0.424
				c0.271,0.283,0.406,0.635,0.406,1.057C215.152,132.494,215.029,133.072,214.783,133.695z M230.953,137.066
				c-0.303,0.326-0.666,0.488-1.093,0.488c-0.249,0-0.462-0.048-0.64-0.143c-0.178-0.096-0.327-0.227-0.447-0.391
				c-0.121-0.164-0.252-0.416-0.391-0.756s-0.257-0.64-0.356-0.899l-0.747-2.108h-6.354l-0.746,2.154
				c-0.291,0.84-0.541,1.408-0.746,1.701c-0.207,0.295-0.545,0.441-1.014,0.441c-0.398,0-0.75-0.156-1.055-0.471
				c-0.307-0.313-0.459-0.668-0.459-1.066c0-0.229,0.035-0.467,0.106-0.711s0.188-0.586,0.353-1.021l3.998-10.92
				c0.113-0.314,0.25-0.691,0.41-1.131s0.33-0.805,0.512-1.096c0.182-0.29,0.42-0.525,0.715-0.705s0.658-0.27,1.092-0.27
				c0.441,0,0.809,0.09,1.104,0.27s0.533,0.411,0.715,0.693c0.182,0.283,0.334,0.588,0.459,0.912
				c0.123,0.326,0.281,0.76,0.475,1.303l4.082,10.852c0.32,0.826,0.48,1.426,0.48,1.801
				C231.406,136.385,231.256,136.742,230.953,137.066z M246.861,135.341c0,1.476-0.568,2.214-1.705,2.214
				c-0.283,0-0.539-0.044-0.768-0.132c-0.227-0.088-0.439-0.228-0.639-0.419c-0.199-0.19-0.385-0.414-0.555-0.67
				s-0.34-0.518-0.512-0.785l-5.947-9.791v9.848c0,0.643-0.139,1.127-0.416,1.457c-0.278,0.328-0.635,0.492-1.068,0.492
				c-0.449,0-0.809-0.166-1.078-0.499c-0.271-0.333-0.406-0.816-0.406-1.451v-12.974c0-0.551,0.057-0.982,0.171-1.297
				c0.136-0.344,0.359-0.625,0.673-0.844c0.313-0.217,0.65-0.326,1.014-0.326c0.285,0,0.529,0.05,0.732,0.148
				c0.203,0.1,0.381,0.234,0.533,0.402c0.154,0.168,0.311,0.387,0.471,0.654s0.326,0.547,0.496,0.837l6.098,9.911v-10.003
				c0-0.649,0.129-1.138,0.389-1.462c0.259-0.326,0.608-0.488,1.049-0.488c0.453,0,0.813,0.162,1.074,0.488
				c0.264,0.324,0.395,0.813,0.395,1.462V135.341z M279.202,92.403c0,0.375-0.127,0.687-0.38,0.937
				c-0.254,0.25-0.57,0.375-0.95,0.375h-12.729c-0.127,0-0.19,0.063-0.19,0.188v9.816c0,0.125,0.063,0.188,0.19,0.188h6.649
				c0.126,0,0.19-0.063,0.19-0.188v-5.845c0-0.374,0.133-0.692,0.398-0.956c0.266-0.262,0.59-0.393,0.969-0.393h2.433
				c0.38,0,0.696,0.131,0.95,0.393c0.253,0.264,0.38,0.582,0.38,0.956v10.753c0,0.375-0.127,0.693-0.38,0.956
				c-0.254,0.262-0.57,0.394-0.95,0.394h-2.433c-0.379,0-0.703-0.132-0.969-0.394c-0.266-0.263-0.398-0.581-0.398-0.956v-0.412
				c0-0.125-0.064-0.188-0.19-0.188h-18.848c-0.127,0-0.19,0.063-0.19,0.188v0.412c0,0.375-0.133,0.693-0.398,0.956
				c-0.267,0.262-0.59,0.394-0.969,0.394h-2.433c-0.38,0-0.696-0.132-0.95-0.394c-0.254-0.263-0.38-0.581-0.38-0.956V97.874
				c0-0.374,0.126-0.692,0.38-0.956c0.254-0.262,0.57-0.393,0.95-0.393h2.433c0.379,0,0.702,0.131,0.969,0.393
				c0.266,0.264,0.398,0.582,0.398,0.956v5.845c0,0.125,0.063,0.188,0.19,0.188h6.649c0.127,0,0.19-0.063,0.19-0.188v-9.816
				c0-0.125-0.063-0.188-0.19-0.188h-12.729c-0.38,0-0.697-0.125-0.95-0.375c-0.254-0.25-0.38-0.562-0.38-0.937v-1.61
				c0-0.375,0.126-0.688,0.38-0.938c0.253-0.25,0.57-0.375,0.95-0.375h2.014c0.025,0,0.044-0.012,0.058-0.037
				c0.012-0.025,0.006-0.05-0.02-0.074l-2.128-1.424c-0.304-0.2-0.481-0.475-0.532-0.824s0.038-0.662,0.266-0.938
				c2.508-3.098,4.434-6.457,5.777-10.079c0.126-0.35,0.354-0.618,0.684-0.806c0.328-0.188,0.684-0.243,1.064-0.168l2.203,0.486
				c0.354,0.075,0.621,0.27,0.798,0.581c0.177,0.313,0.216,0.631,0.114,0.956c-0.025,0.049-0.165,0.398-0.418,1.049
				c-0.051,0.1,0,0.149,0.152,0.149h18.316c0.379,0,0.695,0.132,0.949,0.394c0.253,0.263,0.38,0.581,0.38,0.955v1.461
				c0,0.375-0.127,0.688-0.38,0.938c-0.254,0.25-0.57,0.375-0.949,0.375h-10.07c-0.127,0-0.19,0.063-0.19,0.188v6.631
				c0,0.125,0.063,0.188,0.19,0.188h12.729c0.38,0,0.696,0.125,0.95,0.375c0.253,0.25,0.38,0.563,0.38,0.938V92.403z"/>
		</g>
	</g>
	<g>
		
			<ellipse transform="matrix(0.9169 -0.399 0.399 0.9169 -26.1308 47.7434)" fill="none" stroke="#FFFFFF" stroke-width="2.8347" stroke-linecap="round" cx="101.609" cy="86.635" rx="31.727" ry="7.836"/>
		<path fill="#F18D00" stroke="#FFFFFF" stroke-width="0.5" d="M97.918,87.885c0,0-17.328,3.6-16.066,8.137
			C81.852,96.021,85.844,99.894,97.918,87.885z"/>
		<path fill="#FFFFFF" d="M97.918,87.885c0,0-17.328,3.6-16.066,8.137C81.852,96.021,85.844,99.894,97.918,87.885z"/>
		<path fill="none" stroke="#FFFFFF" stroke-width="2.8347" stroke-linecap="round" d="M129.213,79.079c0,0,3.225-0.239,4.845,2.883
			l17.787,38.142"/>
		<path fill="none" stroke="#FFFFFF" stroke-width="2.8347" stroke-linecap="round" d="M77.184,101.691c0,0-2.311,2.26-1.041,5.537
			l16.539,37.993"/>
		<path fill="#FFFFFF" stroke="#000000" stroke-width="0.5" d="M107.098,120.406l-2.014,0.149c-0.574-0.825-1.068-1.354-1.482-1.589
			c-0.611-0.347-1.252-0.495-1.924-0.445c-1.287,0.096-2.326,0.643-3.115,1.642c-0.781,0.992-1.107,2.372-0.976,4.141
			c0.063,0.851,0.302,1.687,0.72,2.505c0.414,0.808,1.031,1.439,1.85,1.897c0.635,0.351,1.381,0.494,2.238,0.431
			c0.461-0.035,0.935-0.184,1.422-0.449c0.457-0.256,0.828-0.573,1.113-0.95c0.225-0.3,0.426-0.764,0.603-1.392l2.032-0.15
			c-0.322,1.113-0.658,1.904-1.009,2.37c-0.438,0.588-1.034,1.063-1.784,1.425c-0.75,0.363-1.504,0.573-2.258,0.629
			c-1.074,0.08-2.14-0.115-3.199-0.585c-0.336-0.144-0.664-0.329-0.982-0.556s-0.602-0.475-0.85-0.746
			c-0.25-0.27-0.486-0.581-0.711-0.933c-0.637-1.013-0.996-2.09-1.082-3.229c-0.11-1.492,0.088-2.793,0.597-3.904
			c0.509-1.098,1.239-1.938,2.19-2.521c0.957-0.584,1.928-0.912,2.91-0.984c0.852-0.064,1.656,0.016,2.414,0.236
			c0.702,0.207,1.351,0.584,1.947,1.131C106.188,118.94,106.637,119.566,107.098,120.406z"/>
		<path fill="none" stroke="#FFFFFF" stroke-width="1.4173" stroke-linecap="round" d="M107.098,120.406l-2.014,0.149
			c-0.574-0.825-1.068-1.354-1.482-1.589c-0.611-0.347-1.252-0.495-1.924-0.445c-1.287,0.096-2.326,0.643-3.115,1.642
			c-0.781,0.992-1.107,2.372-0.976,4.141c0.063,0.851,0.302,1.687,0.72,2.505c0.414,0.808,1.031,1.439,1.85,1.897
			c0.635,0.351,1.381,0.494,2.238,0.431c0.461-0.035,0.935-0.184,1.422-0.449c0.457-0.256,0.828-0.573,1.113-0.95
			c0.225-0.3,0.426-0.764,0.603-1.392l2.032-0.15c-0.322,1.113-0.658,1.904-1.009,2.37c-0.438,0.588-1.034,1.063-1.784,1.425
			c-0.75,0.363-1.504,0.573-2.258,0.629c-1.074,0.08-2.14-0.115-3.199-0.585c-0.336-0.144-0.664-0.329-0.982-0.556
			s-0.602-0.475-0.85-0.746c-0.25-0.27-0.486-0.581-0.711-0.933c-0.637-1.013-0.996-2.09-1.082-3.229
			c-0.11-1.492,0.088-2.793,0.597-3.904c0.509-1.098,1.239-1.938,2.19-2.521c0.957-0.584,1.928-0.912,2.91-0.984
			c0.852-0.064,1.656,0.016,2.414,0.236c0.702,0.207,1.351,0.584,1.947,1.131C106.188,118.94,106.637,119.566,107.098,120.406z"/>
		<path fill="#FFFFFF" stroke="#000000" stroke-width="0.5" d="M112.298,128.145l1.663-0.647l0.064-4.011l5.596-2.178l2.727,2.924
			l1.881-0.732l-9.902-10.077l-1.697,0.661L112.298,128.145z M118.543,120.18l-4.486,1.746l0.092-6.324L118.543,120.18"/>
		<path fill="none" stroke="#FFFFFF" stroke-width="1.4173" stroke-linecap="round" d="M112.298,128.145l1.663-0.647l0.064-4.011
			l5.596-2.178l2.727,2.924l1.881-0.732l-9.902-10.077l-1.697,0.661L112.298,128.145z M118.543,120.18l-4.486,1.746l0.092-6.324
			L118.543,120.18"/>
		<polygon fill="#FFFFFF" stroke="#000000" stroke-width="0.5" points="120.502,109.761 122.111,108.6 133.68,112.701 
			127.768,104.515 129.113,103.543 136.691,114.039 135.26,115.074 123.326,110.836 129.427,119.285 128.082,120.257 		"/>
		<polygon fill="none" stroke="#FFFFFF" stroke-width="1.4173" stroke-linecap="round" points="120.502,109.761 122.111,108.6 
			133.68,112.701 127.768,104.515 129.113,103.543 136.691,114.039 135.26,115.074 123.326,110.836 129.427,119.285 
			128.082,120.257 		"/>
	</g>
</g>
</svg>
