<?xml version="1.0" encoding="utf-8"?>
<!-- Generator: Adobe Illustrator 12.0.0, SVG Export Plug-In . SVG Version: 6.00 Build 51448)  -->
<!DOCTYPE svg PUBLIC "-//W3C//DTD SVG 1.1//EN" "http://www.w3.org/Graphics/SVG/1.1/DTD/svg11.dtd" [
	<!ENTITY ns_svg "http://www.w3.org/2000/svg">
	<!ENTITY ns_xlink "http://www.w3.org/1999/xlink">
]>
<svg  version="1.1" id="レイヤー_1" xmlns="&ns_svg;" xmlns:xlink="&ns_xlink;" width="708.661" height="425.197"
	 viewBox="0 0 708.661 425.197" overflow="visible" enable-background="new 0 0 708.661 425.197" xml:space="preserve">
<rect fill="none" width="708.661" height="425.197"/>
<g>
	<g>
		<g>
			<path fill="#FFFFFF" d="M443.514,261.392h9.34l-4.713-13.875L443.514,261.392z M519.188,164.949h-9.196
				c-0.254,0-0.431,0.125-0.532,0.375c-2.584,4.797-5.649,9.243-9.195,13.339c-0.102,0.2-0.052,0.3,0.151,0.3h18.772
				c0.253,0,0.38-0.125,0.38-0.375v-13.264C519.567,165.074,519.44,164.949,519.188,164.949z M588.188,123.308H120.473
				c-7.795,0-14.174,6.378-14.174,14.174v150.235c0,7.796,6.379,14.173,14.174,14.173h467.715c7.795,0,14.174-6.377,14.174-14.173
				V137.481C602.361,129.686,595.982,123.308,588.188,123.308z M417.969,177.464c0-0.749,0.266-1.373,0.798-1.873
				s1.179-0.75,1.938-0.75c10.184,0,20.394-0.149,30.628-0.449c0.102,0,0.177-0.05,0.228-0.149s0.051-0.175,0-0.226
				c-0.354-1.198-0.836-3.047-1.443-5.545c-0.102-0.25-0.279-0.375-0.532-0.375c-9.627,0.25-18.164,0.375-25.612,0.375
				c-0.76,0-1.394-0.249-1.899-0.749c-0.507-0.5-0.76-1.124-0.76-1.874v-2.697c0-0.699,0.253-1.312,0.76-1.836
				c0.506-0.524,1.114-0.787,1.824-0.787c7.093,0,15.199-0.125,24.319-0.375c0.253,0,0.38-0.1,0.38-0.3
				c-0.305-2.947-0.456-4.471-0.456-4.571c-0.051-0.749,0.165-1.398,0.646-1.948c0.48-0.549,1.102-0.849,1.862-0.899l4.332-0.225
				c0.76-0.05,1.405,0.175,1.938,0.675c0.531,0.5,0.849,1.124,0.95,1.873c0.253,2.898,0.405,4.472,0.456,4.721
				c0,0.2,0.151,0.3,0.456,0.3c3.546-0.149,8.815-0.374,15.808-0.674c0.709-0.05,1.33,0.188,1.862,0.712
				c0.531,0.524,0.823,1.137,0.874,1.836l0.151,2.697c0.051,0.75-0.19,1.387-0.722,1.911c-0.532,0.525-1.178,0.813-1.938,0.862
				c-6.385,0.3-11.273,0.499-14.668,0.599c-0.305,0-0.381,0.15-0.229,0.45c0.557,2.299,1.063,4.122,1.521,5.471
				c0.101,0.25,0.253,0.374,0.456,0.374c6.434-0.199,11.323-0.374,14.668-0.524c0.76-0.05,1.405,0.162,1.938,0.637
				c0.531,0.475,0.823,1.087,0.874,1.836l0.076,2.698c0.051,0.75-0.178,1.387-0.685,1.911s-1.14,0.812-1.899,0.861
				c-1.268,0.051-3.205,0.138-5.814,0.263s-4.599,0.213-5.966,0.262c-0.254,0-0.329,0.101-0.228,0.3
				c1.418,3.048,3.166,6.17,5.244,9.367c0.404,0.6,0.519,1.237,0.341,1.911c-0.178,0.675-0.595,1.187-1.253,1.536l-4.94,2.623
				c-1.47,0.8-3.091,0.875-4.864,0.225c-5.117-2.048-9.905-3.072-14.363-3.072c-4.357,0-7.474,0.487-9.349,1.462
				s-2.812,2.436-2.812,4.383c0,2.648,1.393,4.597,4.18,5.846c2.786,1.249,7.625,1.873,14.516,1.873c4.61,0,9.677-0.374,15.2-1.124
				c0.76-0.1,1.444,0.076,2.052,0.525s0.963,1.049,1.064,1.798l0.38,2.923c0.102,0.699-0.076,1.348-0.532,1.948
				c-0.456,0.599-1.039,0.948-1.748,1.049c-5.473,0.749-10.944,1.124-16.416,1.124c-19.405,0-29.107-5.32-29.107-15.962
				c0-4.196,1.899-7.519,5.699-9.967c3.8-2.447,9.424-3.672,16.873-3.672c4.154,0,8.283,0.649,12.388,1.948h0.152v-0.225
				c-0.963-1.798-1.9-3.821-2.813-6.069c-0.102-0.3-0.305-0.45-0.607-0.45c-14.998,0.4-26.145,0.6-33.44,0.6
				c-0.76,0-1.406-0.262-1.938-0.786s-0.798-1.161-0.798-1.911V177.464z M304.726,276.378c0,7.795-6.377,14.174-14.173,14.174
				H134.647c-7.796,0-14.173-6.379-14.173-14.174V148.819c0-7.795,6.377-14.174,14.173-14.174h155.905
				c7.796,0,14.173,6.379,14.173,14.174V276.378z M340.272,182.71c0.38-0.649,0.925-1.049,1.634-1.199
				c6.333-1.449,10.969-3.484,13.908-6.107c2.938-2.623,4.459-5.933,4.561-9.93c0-0.249-0.127-0.374-0.38-0.374h-9.272
				c-0.254,0-0.38,0.125-0.38,0.374v6.445c0,0.75-0.254,1.387-0.761,1.911s-1.14,0.786-1.899,0.786h-4.56
				c-0.761,0-1.395-0.262-1.9-0.786c-0.507-0.524-0.76-1.161-0.76-1.911v-12.141c0-0.749,0.253-1.386,0.76-1.91
				c0.506-0.524,1.14-0.787,1.9-0.787h24.092c0.253,0,0.38-0.125,0.38-0.375v-4.047c0-0.749,0.253-1.386,0.76-1.91
				c0.506-0.524,1.14-0.787,1.9-0.787h5.016c0.76,0,1.394,0.263,1.9,0.787c0.506,0.524,0.76,1.161,0.76,1.91v4.047
				c0,0.25,0.126,0.375,0.38,0.375h24.092c0.76,0,1.394,0.263,1.9,0.787c0.506,0.524,0.76,1.161,0.76,1.91v8.318
				c0,0.75-0.254,1.374-0.76,1.874c-0.507,0.5-1.141,0.749-1.9,0.749h-4.56c-0.76,0-1.394-0.249-1.9-0.749s-0.76-1.124-0.76-1.874
				v-2.623c0-0.249-0.127-0.374-0.38-0.374h-8.968c-0.254,0-0.38,0.125-0.38,0.374v10.642c0,1.199,0.101,1.886,0.304,2.061
				c0.202,0.176,0.987,0.288,2.355,0.337c0.203,0,0.558,0.013,1.064,0.038c0.506,0.025,0.86,0.037,1.063,0.037
				s0.545-0.012,1.026-0.037c0.48-0.025,0.849-0.038,1.103-0.038c1.57-0.049,2.583-0.199,3.039-0.449s0.76-0.974,0.912-2.173
				c0.102-0.699,0.443-1.287,1.026-1.762c0.582-0.475,1.229-0.687,1.938-0.637l4.256,0.449c0.76,0.101,1.367,0.426,1.823,0.975
				c0.456,0.55,0.659,1.199,0.608,1.948c-0.355,4.197-1.242,6.745-2.66,7.645c-1.419,0.899-4.966,1.398-10.64,1.498
				c-0.406,0-0.988,0.013-1.748,0.038s-1.343,0.037-1.748,0.037c-0.406,0-0.988-0.012-1.748-0.037s-1.343-0.038-1.748-0.038
				c-4.51-0.05-7.321-0.425-8.437-1.124s-1.672-2.298-1.672-4.796v-14.613c0-0.249-0.127-0.374-0.38-0.374h-4.56
				c-0.305,0-0.456,0.15-0.456,0.449c-0.76,12.24-9.398,20.233-25.916,23.98c-0.71,0.15-1.382,0.025-2.015-0.375
				c-0.633-0.399-1.076-0.949-1.329-1.648l-0.912-2.848C339.804,184.009,339.893,183.359,340.272,182.71z M340.994,216.919
				c-0.507-0.525-0.76-1.162-0.76-1.911v-2.923c0-0.749,0.253-1.373,0.76-1.873s1.141-0.75,1.9-0.75h24.32
				c0.253,0,0.38-0.124,0.38-0.374v-11.017c0-0.249-0.127-0.374-0.38-0.374h-17.252c-0.761,0-1.395-0.249-1.9-0.749
				c-0.507-0.5-0.76-1.124-0.76-1.874v-2.697c0-0.749,0.253-1.386,0.76-1.911c0.506-0.524,1.14-0.787,1.9-0.787h45.676
				c0.76,0,1.405,0.263,1.938,0.787c0.532,0.525,0.799,1.162,0.799,1.911v2.697c0,0.75-0.267,1.374-0.799,1.874
				s-1.178,0.749-1.938,0.749h-17.328c-0.254,0-0.38,0.125-0.38,0.374v11.017c0,0.25,0.126,0.374,0.38,0.374h24.32
				c0.76,0,1.393,0.25,1.899,0.75s0.761,1.124,0.761,1.873v2.923c0,0.749-0.254,1.386-0.761,1.911
				c-0.507,0.523-1.14,0.786-1.899,0.786h-59.736C342.135,217.705,341.501,217.442,340.994,216.919z M429.566,267.393
				c-0.491,1.246-1.264,2.47-2.316,3.67s-2.397,2.176-4.034,2.924c-1.637,0.749-3.544,1.124-5.722,1.124
				c-1.65,0-3.152-0.168-4.504-0.504s-2.58-0.858-3.684-1.569c-1.104-0.709-2.118-1.645-3.045-2.807
				c-0.827-1.055-1.533-2.236-2.117-3.545c-0.585-1.309-1.023-2.704-1.315-4.188c-0.292-1.484-0.438-3.061-0.438-4.729
				c0-2.707,0.367-5.133,1.102-7.273c0.734-2.143,1.785-3.975,3.154-5.496c1.369-1.523,2.971-2.682,4.807-3.478
				s3.793-1.193,5.871-1.193c2.533,0,4.789,0.543,6.767,1.629s3.493,2.428,4.547,4.025s1.58,3.108,1.58,4.53
				c0,0.779-0.257,1.468-0.769,2.064c-0.513,0.596-1.132,0.895-1.857,0.895c-0.812,0-1.42-0.207-1.825-0.62
				s-0.857-1.125-1.355-2.136c-0.825-1.668-1.796-2.915-2.913-3.742c-1.117-0.826-2.494-1.239-4.131-1.239
				c-2.605,0-4.68,1.063-6.223,3.191c-1.545,2.128-2.316,5.15-2.316,9.068c0,2.618,0.342,4.795,1.024,6.532s1.651,3.034,2.903,3.891
				c1.252,0.857,2.718,1.286,4.397,1.286c1.821,0,3.362-0.485,4.622-1.458c1.259-0.972,2.209-2.398,2.85-4.281
				c0.27-0.889,0.604-1.611,1.003-2.17s1.038-0.838,1.921-0.838c0.754,0,1.402,0.283,1.943,0.85s0.811,1.27,0.811,2.111
				C430.303,264.988,430.058,266.146,429.566,267.393z M461.905,274.135c-0.604,0.65-1.333,0.976-2.186,0.976
				c-0.498,0-0.925-0.096-1.28-0.286c-0.355-0.191-0.653-0.451-0.895-0.779c-0.242-0.328-0.502-0.832-0.779-1.513
				c-0.277-0.68-0.515-1.279-0.714-1.799l-1.493-4.217h-12.708l-1.493,4.308c-0.582,1.682-1.08,2.816-1.492,3.404
				s-1.088,0.882-2.025,0.882c-0.797,0-1.5-0.313-2.111-0.94s-0.917-1.338-0.917-2.134c0-0.459,0.071-0.933,0.213-1.423
				c0.142-0.488,0.377-1.17,0.704-2.041l7.996-21.842c0.228-0.627,0.501-1.381,0.82-2.26c0.32-0.88,0.662-1.61,1.023-2.191
				c0.363-0.581,0.84-1.052,1.43-1.411s1.318-0.539,2.186-0.539c0.881,0,1.617,0.18,2.207,0.539s1.066,0.822,1.428,1.388
				c0.363,0.566,0.668,1.174,0.918,1.824c0.248,0.65,0.564,1.518,0.949,2.604l8.166,21.705c0.641,1.651,0.96,2.852,0.96,3.602
				C462.812,272.771,462.51,273.485,461.905,274.135z M493.722,270.683c0,2.952-1.137,4.428-3.409,4.428
				c-0.568,0-1.08-0.088-1.535-0.264s-0.881-0.454-1.279-0.837c-0.397-0.382-0.768-0.829-1.107-1.342
				c-0.342-0.512-0.682-1.035-1.023-1.57l-11.896-19.581v19.696c0,1.283-0.278,2.254-0.833,2.912
				c-0.556,0.656-1.268,0.985-2.136,0.985c-0.897,0-1.616-0.333-2.157-0.998s-0.812-1.633-0.812-2.902v-25.948
				c0-1.102,0.114-1.965,0.342-2.592c0.271-0.689,0.719-1.251,1.345-1.688c0.627-0.436,1.303-0.653,2.029-0.653
				c0.57,0,1.058,0.1,1.463,0.298c0.406,0.199,0.762,0.467,1.068,0.804s0.619,0.772,0.939,1.308s0.652,1.094,0.994,1.675
				l12.194,19.822v-20.006c0-1.3,0.259-2.274,0.776-2.925c0.519-0.65,1.218-0.976,2.098-0.976c0.908,0,1.625,0.325,2.15,0.976
				s0.788,1.625,0.788,2.925V270.683z M558.403,184.808c0,0.75-0.254,1.374-0.76,1.874c-0.507,0.5-1.141,0.749-1.9,0.749h-25.46
				c-0.254,0-0.38,0.125-0.38,0.375v19.633c0,0.25,0.126,0.375,0.38,0.375h13.3c0.253,0,0.38-0.125,0.38-0.375v-11.689
				c0-0.749,0.266-1.386,0.798-1.911c0.532-0.524,1.179-0.787,1.938-0.787h4.864c0.76,0,1.393,0.263,1.899,0.787
				c0.507,0.525,0.761,1.162,0.761,1.911v21.507c0,0.749-0.254,1.386-0.761,1.911c-0.507,0.523-1.14,0.786-1.899,0.786h-4.864
				c-0.76,0-1.406-0.263-1.938-0.786c-0.532-0.525-0.798-1.162-0.798-1.911v-0.824c0-0.25-0.127-0.375-0.38-0.375h-37.695
				c-0.254,0-0.38,0.125-0.38,0.375v0.824c0,0.749-0.267,1.386-0.799,1.911c-0.532,0.523-1.178,0.786-1.938,0.786h-4.864
				c-0.76,0-1.394-0.263-1.9-0.786c-0.507-0.525-0.76-1.162-0.76-1.911v-21.507c0-0.749,0.253-1.386,0.76-1.911
				c0.507-0.524,1.141-0.787,1.9-0.787h4.864c0.76,0,1.405,0.263,1.938,0.787c0.532,0.525,0.799,1.162,0.799,1.911v11.689
				c0,0.25,0.126,0.375,0.38,0.375h13.3c0.253,0,0.38-0.125,0.38-0.375v-19.633c0-0.25-0.127-0.375-0.38-0.375h-25.46
				c-0.761,0-1.395-0.249-1.9-0.749c-0.507-0.5-0.76-1.124-0.76-1.874v-3.222c0-0.749,0.253-1.373,0.76-1.873
				c0.506-0.5,1.14-0.75,1.9-0.75h4.027c0.051,0,0.089-0.024,0.114-0.075c0.025-0.05,0.013-0.1-0.038-0.149l-4.256-2.848
				c-0.608-0.399-0.963-0.949-1.064-1.648s0.076-1.324,0.532-1.874c5.016-6.194,8.867-12.914,11.553-20.158
				c0.253-0.699,0.709-1.235,1.367-1.61s1.368-0.487,2.129-0.338l4.407,0.974c0.709,0.15,1.241,0.538,1.596,1.162
				c0.354,0.625,0.431,1.262,0.229,1.911c-0.051,0.1-0.33,0.799-0.836,2.098c-0.102,0.2-0.001,0.3,0.304,0.3h36.633
				c0.76,0,1.393,0.263,1.899,0.787c0.506,0.525,0.76,1.162,0.76,1.911v2.922c0,0.75-0.254,1.374-0.76,1.874
				c-0.507,0.5-1.14,0.749-1.899,0.749h-20.141c-0.254,0-0.38,0.125-0.38,0.375v13.264c0,0.25,0.126,0.375,0.38,0.375h25.46
				c0.76,0,1.394,0.25,1.9,0.75c0.506,0.5,0.76,1.124,0.76,1.873V184.808z"/>
		</g>
	</g>
	<g>
		
			<ellipse transform="matrix(0.9169 -0.399 0.399 0.9169 -52.262 95.4853)" fill="none" stroke="#FFFFFF" stroke-width="5.6693" stroke-linecap="round" cx="203.217" cy="173.272" rx="63.454" ry="15.673"/>
		<path fill="#F18D00" stroke="#FFFFFF" d="M195.834,175.77c0,0-34.655,7.201-32.131,16.274
			C163.703,192.044,171.688,199.788,195.834,175.77z"/>
		<path fill="#FFFFFF" d="M195.834,175.77c0,0-34.655,7.201-32.131,16.274C163.703,192.044,171.688,199.788,195.834,175.77z"/>
		<path fill="none" stroke="#FFFFFF" stroke-width="5.6693" stroke-linecap="round" d="M258.426,158.159
			c0,0,6.447-0.479,9.688,5.766l35.574,76.283"/>
		<path fill="none" stroke="#FFFFFF" stroke-width="5.6693" stroke-linecap="round" d="M154.367,203.383
			c0,0-4.623,4.52-2.083,11.076l33.078,75.985"/>
		<path fill="#FFFFFF" stroke="#000000" d="M214.195,240.814l-4.027,0.298c-1.148-1.649-2.138-2.71-2.967-3.179
			c-1.222-0.692-2.502-0.989-3.846-0.889c-2.576,0.189-4.654,1.284-6.23,3.282c-1.563,1.984-2.216,4.745-1.952,8.281
			c0.125,1.702,0.604,3.373,1.438,5.011c0.83,1.614,2.063,2.879,3.699,3.794c1.27,0.701,2.762,0.988,4.477,0.861
			c0.922-0.069,1.87-0.367,2.844-0.898c0.914-0.513,1.656-1.146,2.228-1.9c0.449-0.601,0.851-1.527,1.205-2.784l4.063-0.301
			c-0.643,2.229-1.315,3.81-2.017,4.741c-0.878,1.176-2.068,2.125-3.567,2.851c-1.502,0.726-3.01,1.146-4.518,1.258
			c-2.146,0.159-4.278-0.23-6.398-1.171c-0.672-0.288-1.326-0.658-1.963-1.11c-0.637-0.453-1.203-0.951-1.701-1.493
			c-0.498-0.54-0.973-1.162-1.422-1.865c-1.273-2.026-1.992-4.18-2.162-6.458c-0.222-2.985,0.176-5.588,1.192-7.81
			c1.019-2.195,2.479-3.877,4.382-5.044c1.914-1.166,3.855-1.822,5.82-1.969c1.703-0.127,3.313,0.032,4.828,0.474
			c1.403,0.414,2.7,1.168,3.893,2.261C212.374,237.882,213.273,239.135,214.195,240.814z"/>
		<path fill="none" stroke="#FFFFFF" stroke-width="2.8346" stroke-linecap="round" d="M214.195,240.814l-4.027,0.298
			c-1.148-1.649-2.138-2.71-2.967-3.179c-1.222-0.692-2.502-0.989-3.846-0.889c-2.576,0.189-4.654,1.284-6.23,3.282
			c-1.563,1.984-2.216,4.745-1.952,8.281c0.125,1.702,0.604,3.373,1.438,5.011c0.83,1.614,2.063,2.879,3.699,3.794
			c1.27,0.701,2.762,0.988,4.477,0.861c0.922-0.069,1.87-0.367,2.844-0.898c0.914-0.513,1.656-1.146,2.228-1.9
			c0.449-0.601,0.851-1.527,1.205-2.784l4.063-0.301c-0.643,2.229-1.315,3.81-2.017,4.741c-0.878,1.176-2.068,2.125-3.567,2.851
			c-1.502,0.726-3.01,1.146-4.518,1.258c-2.146,0.159-4.278-0.23-6.398-1.171c-0.672-0.288-1.326-0.658-1.963-1.11
			c-0.637-0.453-1.203-0.951-1.701-1.493c-0.498-0.54-0.973-1.162-1.422-1.865c-1.273-2.026-1.992-4.18-2.162-6.458
			c-0.222-2.985,0.176-5.588,1.192-7.81c1.019-2.195,2.479-3.877,4.382-5.044c1.914-1.166,3.855-1.822,5.82-1.969
			c1.703-0.127,3.313,0.032,4.828,0.474c1.403,0.414,2.7,1.168,3.893,2.261C212.374,237.882,213.273,239.135,214.195,240.814z"/>
		<path fill="#FFFFFF" stroke="#000000" d="M224.595,256.29l3.326-1.295l0.128-8.021l11.192-4.356l5.452,5.85l3.763-1.465
			l-19.806-20.155l-3.395,1.321L224.595,256.29z M237.084,240.36l-8.972,3.492l0.185-12.648L237.084,240.36"/>
		<path fill="none" stroke="#FFFFFF" stroke-width="2.8346" stroke-linecap="round" d="M224.595,256.29l3.326-1.295l0.128-8.021
			l11.192-4.356l5.452,5.85l3.763-1.465l-19.806-20.155l-3.395,1.321L224.595,256.29z M237.084,240.36l-8.972,3.492l0.185-12.648
			L237.084,240.36"/>
		<polygon fill="#FFFFFF" stroke="#000000" points="241.004,219.522 244.222,217.2 267.358,225.402 255.535,209.03 258.226,207.088 
			273.382,228.079 270.518,230.148 246.65,221.673 258.853,238.571 256.162,240.515 		"/>
		<polygon fill="none" stroke="#FFFFFF" stroke-width="2.8346" stroke-linecap="round" points="241.004,219.522 244.222,217.2 
			267.358,225.402 255.535,209.03 258.226,207.088 273.382,228.079 270.518,230.148 246.65,221.673 258.853,238.571 
			256.162,240.515 		"/>
	</g>
</g>
</svg>
