<?xml version="1.0" encoding="utf-8"?>
<!-- Generator: Adobe Illustrator 12.0.0, SVG Export Plug-In . SVG Version: 6.00 Build 51448)  -->
<!DOCTYPE svg PUBLIC "-//W3C//DTD SVG 1.1//EN" "http://www.w3.org/Graphics/SVG/1.1/DTD/svg11.dtd" [
	<!ENTITY ns_svg "http://www.w3.org/2000/svg">
	<!ENTITY ns_xlink "http://www.w3.org/1999/xlink">
]>
<svg  version="1.1" id="レイヤー_1" xmlns="&ns_svg;" xmlns:xlink="&ns_xlink;" width="354.331" height="212.598"
	 viewBox="0 0 354.331 212.598" overflow="visible" enable-background="new 0 0 354.331 212.598" xml:space="preserve">
<rect fill="none" width="354.331" height="212.598"/>
<g>
	<g>
		<g>
			<path fill="#FFFFFF" d="M168.977,88.207c0.014-0.025,0.014-0.05,0-0.075c-1.384-2.147-2.55-4.421-3.499-6.819
				c-0.041-0.1-0.081-0.112-0.122-0.037c-0.936,2.348-2.103,4.634-3.499,6.856c-0.014,0.025-0.015,0.05-0.001,0.075
				s0.027,0.037,0.041,0.037h7.039C168.949,88.244,168.963,88.232,168.977,88.207z M173.34,123.563
				c-0.418-0.463-0.898-0.695-1.439-0.695c-0.387,0-0.743,0.129-1.07,0.385s-0.609,0.629-0.846,1.119s-0.422,1.115-0.559,1.877
				s-0.205,1.617-0.205,2.565c0,0.956,0.068,1.821,0.205,2.595c0.137,0.772,0.33,1.414,0.578,1.922
				c0.25,0.51,0.535,0.891,0.859,1.143c0.322,0.252,0.676,0.379,1.063,0.379c0.494,0,0.947-0.219,1.361-0.654
				s0.744-1.109,0.988-2.02c0.245-0.912,0.367-2.033,0.367-3.364c0-1.231-0.112-2.3-0.338-3.202
				C174.08,124.707,173.758,124.025,173.34,123.563z M166.556,92.217h-2.462c-0.055,0-0.081,0.063-0.081,0.187v3.447
				c0,0.125,0.026,0.188,0.081,0.188h2.462c0.067,0,0.103-0.063,0.103-0.188v-3.447C166.658,92.279,166.623,92.217,166.556,92.217z
				 M192.695,100.084h-0.081c-0.61,0-1.343-0.037-2.197-0.111c-0.204-0.025-0.38-0.169-0.529-0.432
				c-0.149-0.262-0.23-0.58-0.243-0.955l-0.021-0.75c0-0.125-0.033-0.188-0.102-0.188h-4.129c-0.068,0-0.102,0.063-0.102,0.188
				v5.059c0,1.299,0.131,2.062,0.396,2.286c0.264,0.225,1.176,0.337,2.736,0.337c1.993,0,3.2-0.237,3.621-0.712
				c0.42-0.475,0.664-1.985,0.732-4.534C192.777,100.146,192.75,100.084,192.695,100.084z M190.498,85.547
				c0.136,0.25,0.203,0.563,0.203,0.937v9.143c0,0.125,0.041,0.187,0.123,0.187c0.054,0,0.129,0.007,0.223,0.02
				c0.096,0.013,0.163,0.019,0.204,0.019c0.177,0,0.306-0.1,0.387-0.3c0.081-0.199,0.163-0.743,0.244-1.63s0.146-2.173,0.192-3.858
				c0.048-1.687,0.099-4.104,0.153-7.251c0-0.125-0.034-0.188-0.102-0.188h-6.774c-0.082,0-0.129,0.05-0.143,0.149
				c-0.136,0.65-0.313,1.399-0.529,2.248c-0.027,0.101-0.007,0.15,0.062,0.15h5.249C190.193,85.172,190.362,85.297,190.498,85.547z
				 M241.738,102.033h10.091c0.067,0,0.102-0.063,0.102-0.188V83.86c0-0.124-0.034-0.187-0.102-0.187h-10.091
				c-0.068,0-0.102,0.063-0.102,0.187v17.985C241.637,101.971,241.67,102.033,241.738,102.033z M281.439,130.695h2.838l-1.432-6.938
				L281.439,130.695z M294.094,61.653H60.236c-3.896,0-7.086,3.188-7.086,7.087v75.117c0,3.898,3.189,7.087,7.086,7.087h233.857
				c3.898,0,7.088-3.188,7.088-7.087V68.74C301.182,64.842,297.992,61.653,294.094,61.653z M278.587,104
				c0.048-0.337,0.159-0.594,0.336-0.768c0.651-0.699,1.159-1.406,1.526-2.117c0.365-0.713,0.664-1.742,0.895-3.092
				c0.23-1.348,0.383-2.941,0.457-4.777c0.075-1.836,0.113-4.34,0.113-7.512v-6.295c0-0.375,0.066-0.687,0.203-0.937
				c0.135-0.25,0.305-0.375,0.508-0.375h1.344c0.203,0,0.372,0.125,0.508,0.375s0.203,0.562,0.203,0.937v6.295
				c0,4.771-0.132,8.53-0.396,11.277c-0.265,2.748-0.691,4.896-1.281,6.445s-1.455,2.885-2.594,4.009
				c-0.19,0.175-0.384,0.218-0.58,0.132c-0.197-0.088-0.35-0.295-0.457-0.619l-0.692-2.023
				C278.57,104.656,278.539,104.338,278.587,104z M238.789,80.451c0-0.375,0.066-0.693,0.203-0.955
				c0.135-0.263,0.305-0.395,0.508-0.395h14.566c0.203,0,0.373,0.132,0.509,0.395c0.136,0.262,0.204,0.58,0.204,0.955v24.805
				c0,0.375-0.068,0.693-0.204,0.955s-0.306,0.393-0.509,0.393H239.5c-0.203,0-0.373-0.131-0.508-0.393
				c-0.137-0.262-0.203-0.58-0.203-0.955V80.451z M198.084,103.662c0.055-0.336,0.17-0.593,0.347-0.768
				c2.536-2.447,4.743-5.302,6.622-8.562c1.878-3.26,3.367-6.813,4.465-10.659c0.027-0.125,0.014-0.188-0.041-0.188h-9.174
				c-0.204,0-0.373-0.125-0.51-0.375c-0.135-0.25-0.203-0.563-0.203-0.938v-1.985c0-0.374,0.068-0.687,0.203-0.937
				c0.137-0.25,0.306-0.375,0.51-0.375h11.596c0.203,0,0.372,0.125,0.508,0.375s0.203,0.563,0.203,0.937v1.985
				c0,0.875-0.102,1.712-0.305,2.512c-0.895,3.396-2.082,6.619-3.561,9.666c-0.054,0.1-0.054,0.188,0,0.263
				c1.654,2.748,3.35,5.695,5.086,8.843c0.15,0.274,0.225,0.587,0.225,0.937s-0.068,0.662-0.203,0.937l-0.855,1.536
				c-0.148,0.25-0.318,0.375-0.508,0.375c-0.19,0-0.359-0.125-0.509-0.375c-1.587-2.947-3.269-5.896-5.046-8.843
				c-0.054-0.1-0.107-0.1-0.162,0c-2.143,3.598-4.51,6.582-7.1,8.955c-0.177,0.176-0.363,0.206-0.561,0.094
				c-0.196-0.112-0.342-0.331-0.437-0.656l-0.529-1.76C198.051,104.331,198.03,104,198.084,103.662z M177.275,78.391l0.569-1.274
				c0.136-0.274,0.302-0.443,0.498-0.506s0.376,0.019,0.54,0.243c0.867,1.199,1.633,2.324,2.299,3.373
				c0.148,0.25,0.229,0.555,0.243,0.918c0.014,0.361-0.04,0.681-0.163,0.955l-0.609,1.387c-0.123,0.274-0.279,0.431-0.469,0.468
				c-0.189,0.038-0.359-0.068-0.508-0.318c-0.651-1.074-1.41-2.224-2.279-3.447c-0.148-0.225-0.236-0.512-0.264-0.861
				S177.152,78.665,177.275,78.391z M176.38,86.633l0.59-1.273c0.136-0.274,0.302-0.443,0.499-0.506
				c0.195-0.063,0.375,0.02,0.539,0.244c1.043,1.424,1.932,2.748,2.664,3.971c0.149,0.25,0.234,0.563,0.254,0.938
				c0.021,0.375-0.037,0.699-0.172,0.974l-0.61,1.386c-0.122,0.275-0.282,0.426-0.478,0.451c-0.197,0.024-0.363-0.088-0.499-0.338
				c-0.679-1.124-1.566-2.461-2.665-4.01c-0.149-0.225-0.237-0.518-0.265-0.88S176.258,86.908,176.38,86.633z M152.363,138.188
				c0,3.897-3.188,7.087-7.086,7.087H67.324c-3.898,0-7.086-3.189-7.086-7.087V74.409c0-3.897,3.188-7.087,7.086-7.087h77.953
				c3.897,0,7.086,3.189,7.086,7.087V138.188z M165.211,129.4c-0.596,0.885-1.48,1.326-2.656,1.326h-1.766v4.754
				c0,0.68-0.09,1.195-0.271,1.547s-0.41,0.527-0.686,0.527c-0.289,0-0.522-0.174-0.699-0.521c-0.177-0.349-0.266-0.859-0.266-1.533
				v-12.967c0-0.749,0.098-1.285,0.293-1.605c0.193-0.322,0.502-0.482,0.926-0.482h2.471c0.73,0,1.291,0.1,1.686,0.299
				c0.386,0.191,0.719,0.51,1,0.953c0.281,0.445,0.494,0.988,0.641,1.631c0.146,0.645,0.219,1.367,0.219,2.172
				C166.102,127.215,165.805,128.516,165.211,129.4z M166.871,108.422c-0.143-0.363-0.213-1.006-0.213-1.93v-6.146
				c0-0.124-0.035-0.187-0.103-0.187h-2.665c-0.055,0-0.095,0.063-0.122,0.187c-0.298,2.423-0.936,4.391-1.912,5.901
				c-0.977,1.512-2.333,2.666-4.069,3.466c-0.203,0.1-0.396,0.056-0.58-0.131c-0.183-0.188-0.309-0.456-0.375-0.806l-0.346-1.724
				c-0.055-0.325-0.038-0.644,0.05-0.956c0.088-0.312,0.228-0.518,0.417-0.617c2.103-0.975,3.425-2.686,3.967-5.134
				c0.041-0.124,0.021-0.187-0.061-0.187h-3.662c-0.203,0-0.373-0.125-0.508-0.375c-0.137-0.25-0.203-0.563-0.203-0.938V97.35
				c0-0.375,0.066-0.688,0.203-0.938c0.135-0.249,0.305-0.374,0.508-0.374h3.988c0.066,0,0.102-0.063,0.102-0.188v-3.447
				c0-0.124-0.035-0.187-0.102-0.187h-0.732c-0.367,0-0.598-0.313-0.692-0.938c-0.027-0.074-0.067-0.088-0.122-0.037
				c-0.705,0.874-1.404,1.661-2.096,2.36c-0.176,0.175-0.359,0.206-0.549,0.094s-0.326-0.331-0.406-0.655l-0.448-1.836
				c-0.081-0.325-0.089-0.668-0.021-1.031c0.068-0.361,0.189-0.631,0.367-0.805c0.759-0.75,1.512-1.549,2.258-2.398
				c0.027-0.025,0.041-0.063,0.041-0.112s-0.014-0.101-0.041-0.15c-0.395-0.699-0.984-1.698-1.771-2.997
				c-0.149-0.25-0.224-0.55-0.224-0.899s0.074-0.649,0.224-0.899l0.712-1.236c0.149-0.25,0.326-0.381,0.529-0.394
				s0.379,0.106,0.529,0.356c0.895,1.498,1.566,2.647,2.014,3.447c0.067,0.1,0.121,0.112,0.162,0.037
				c0.773-1.199,1.432-2.41,1.975-3.635c0.013-0.025,0.013-0.05-0.001-0.074c-0.014-0.025-0.026-0.038-0.04-0.038h-3.154
				c-0.203,0-0.376-0.131-0.518-0.394c-0.143-0.262-0.214-0.58-0.214-0.955v-1.274c0-0.374,0.071-0.687,0.214-0.937
				c0.142-0.25,0.314-0.375,0.518-0.375h6.287c0.475,0,0.834,0.388,1.078,1.162c0.353,1.049,0.658,1.873,0.916,2.473
				c0.053,0.1,0.101,0.113,0.142,0.037c0.38-0.799,0.78-1.735,1.2-2.81c0.285-0.675,0.624-0.8,1.018-0.375l0.752,0.862
				c0.163,0.174,0.262,0.438,0.295,0.787c0.035,0.35-0.003,0.674-0.111,0.974c-0.543,1.374-1.071,2.585-1.587,3.634
				c-0.041,0.076-0.041,0.15,0,0.226c0.027,0.024,0.166,0.249,0.417,0.675c0.251,0.424,0.444,0.736,0.58,0.936
				c0.041,0.076,0.095,0.051,0.162-0.074c0.502-1.023,0.99-2.136,1.465-3.335c0.285-0.675,0.624-0.8,1.018-0.374l0.732,0.861
				c0.162,0.2,0.264,0.475,0.305,0.824s0.008,0.674-0.102,0.975c-0.42,1.049-0.936,2.211-1.546,3.484
				c-0.041,0.075-0.034,0.162,0.021,0.262c0.406,0.475,0.949,1.05,1.627,1.725c0.177,0.174,0.295,0.443,0.356,0.805
				c0.062,0.363,0.051,0.706-0.03,1.031l-0.447,1.836c-0.082,0.324-0.218,0.543-0.407,0.655c-0.19,0.112-0.373,0.081-0.55-0.094
				c-0.543-0.55-1.234-1.337-2.074-2.36c-0.055-0.051-0.096-0.025-0.123,0.074c-0.121,0.6-0.352,0.9-0.691,0.9h-0.936
				c-0.068,0-0.102,0.063-0.102,0.187v3.447c0,0.125,0.033,0.188,0.102,0.188h4.191c0.203,0,0.375,0.125,0.518,0.374
				c0.143,0.25,0.215,0.563,0.215,0.938v1.498c0,0.375-0.072,0.688-0.215,0.938s-0.314,0.375-0.518,0.375h-4.191
				c-0.068,0-0.102,0.063-0.102,0.187v4.233c0,0.475,0.051,0.763,0.152,0.862c0.102,0.101,0.424,0.149,0.967,0.149
				c0.596,0,0.963-0.131,1.098-0.393c0.137-0.262,0.225-1.093,0.266-2.492c0.013-0.35,0.09-0.637,0.232-0.861s0.309-0.324,0.5-0.3
				l1.159,0.225c0.203,0.025,0.369,0.182,0.498,0.469s0.187,0.618,0.173,0.993c-0.027,1.123-0.058,1.992-0.092,2.604
				c-0.033,0.611-0.121,1.18-0.264,1.705c-0.143,0.523-0.278,0.893-0.407,1.105c-0.129,0.212-0.387,0.393-0.773,0.543
				c-0.387,0.149-0.753,0.23-1.099,0.244c-0.346,0.012-0.891,0.018-1.637,0.018c-1.1,0-1.883-0.081-2.351-0.242
				C167.318,109.046,167.014,108.783,166.871,108.422z M176.283,132.381c-0.199,1.063-0.497,1.984-0.895,2.766
				c-0.396,0.779-0.885,1.375-1.463,1.789c-0.578,0.412-1.24,0.619-1.986,0.619c-0.744,0-1.408-0.213-1.995-0.637
				s-1.077-1.023-1.47-1.795c-0.393-0.773-0.689-1.701-0.891-2.787c-0.199-1.086-0.301-2.26-0.301-3.522
				c0-1.292,0.105-2.478,0.314-3.556s0.512-1.996,0.91-2.754c0.396-0.756,0.879-1.336,1.449-1.738c0.57-0.4,1.217-0.602,1.943-0.602
				c0.982,0,1.828,0.354,2.533,1.061c0.707,0.709,1.24,1.714,1.604,3.018c0.361,1.305,0.543,2.836,0.543,4.594
				C176.58,130.137,176.48,131.318,176.283,132.381z M177.071,107.803c-0.177-0.199-0.288-0.48-0.335-0.843
				c-0.049-0.362-0.018-0.706,0.092-1.03c0.949-2.973,1.735-6.095,2.359-9.367c0.067-0.35,0.193-0.6,0.376-0.749
				s0.362-0.163,0.539-0.038l0.875,0.637c0.189,0.125,0.332,0.369,0.427,0.731c0.096,0.362,0.109,0.718,0.041,1.067
				c-0.651,3.771-1.472,7.194-2.461,10.267c-0.109,0.325-0.258,0.524-0.448,0.6s-0.373,0.013-0.55-0.188L177.071,107.803z
				 M184.732,136.889c-0.164,0.257-0.404,0.385-0.72,0.385h-4.647c-0.419,0-0.721-0.164-0.903-0.494
				c-0.183-0.328-0.274-0.859-0.274-1.594v-12.956c0-0.688,0.086-1.204,0.262-1.55c0.174-0.344,0.404-0.516,0.689-0.516
				c0.289,0,0.522,0.17,0.701,0.511c0.18,0.341,0.27,0.858,0.27,1.556v12.246h3.903c0.312,0,0.55,0.134,0.716,0.401
				c0.168,0.268,0.25,0.604,0.25,1.009C184.979,136.299,184.896,136.633,184.732,136.889z M193.084,122.447
				c-0.082,0.299-0.223,0.711-0.422,1.238l-2.38,6.459v5.334c0,0.695-0.091,1.216-0.272,1.561c-0.18,0.344-0.412,0.516-0.691,0.516
				c-0.285,0-0.516-0.17-0.693-0.51c-0.176-0.342-0.265-0.863-0.265-1.566v-5.334l-2.321-6.367
				c-0.203-0.573-0.348-1.021-0.432-1.342s-0.127-0.6-0.127-0.838c0-0.39,0.086-0.727,0.256-1.01
				c0.172-0.282,0.383-0.424,0.633-0.424c0.264,0,0.464,0.133,0.6,0.396c0.137,0.264,0.341,0.789,0.613,1.576l1.775,5.105
				l1.793-5.105c0.109-0.313,0.199-0.576,0.273-0.791c0.073-0.215,0.154-0.414,0.242-0.602c0.09-0.188,0.188-0.332,0.296-0.432
				c0.108-0.099,0.239-0.148,0.396-0.148c0.242,0,0.444,0.14,0.606,0.418c0.162,0.279,0.243,0.604,0.243,0.971
				C193.207,121.85,193.166,122.148,193.084,122.447z M193.112,109.208c-0.292,0.138-0.702,0.256-1.23,0.356
				c-0.529,0.1-1.058,0.162-1.587,0.188c-0.529,0.024-1.221,0.037-2.075,0.037c-0.76,0-1.36-0.006-1.8-0.019
				c-0.441-0.013-0.889-0.063-1.344-0.149c-0.453-0.088-0.793-0.182-1.017-0.281c-0.224-0.101-0.448-0.288-0.671-0.563
				c-0.225-0.275-0.377-0.55-0.458-0.824c-0.081-0.275-0.159-0.688-0.234-1.236c-0.075-0.55-0.115-1.093-0.122-1.63
				s-0.01-1.268-0.01-2.192v-7.98c0-0.375,0.07-0.688,0.213-0.938c0.143-0.249,0.316-0.374,0.52-0.374h4.74
				c0.067,0,0.102-0.063,0.102-0.188v-4.122c0-0.125-0.034-0.188-0.102-0.188h-4.455c-0.041,0-0.089,0.051-0.143,0.15
				c-0.109,0.3-0.225,0.6-0.346,0.899c-0.109,0.3-0.266,0.462-0.469,0.487s-0.373-0.088-0.508-0.338l-0.875-1.424
				c-0.149-0.249-0.23-0.555-0.244-0.918c-0.014-0.361,0.033-0.693,0.143-0.992c1.084-2.898,1.932-6.557,2.543-10.979
				c0.054-0.375,0.166-0.674,0.336-0.898c0.169-0.225,0.355-0.313,0.559-0.264l1.14,0.263c0.189,0.025,0.343,0.182,0.458,0.469
				s0.152,0.605,0.111,0.955c-0.027,0.2-0.071,0.493-0.133,0.881c-0.061,0.388-0.104,0.681-0.131,0.88
				c-0.027,0.15-0.001,0.225,0.08,0.225h8.057c0.189,0,0.355,0.132,0.498,0.395c0.143,0.262,0.214,0.568,0.214,0.918
				c-0.067,6.17-0.18,10.678-0.335,13.525c-0.156,2.848-0.391,4.734-0.702,5.658c-0.027,0.125-0.015,0.199,0.04,0.225l0.896,0.449
				c0.203,0.125,0.362,0.338,0.478,0.638s0.166,0.649,0.153,1.049c-0.055,1.074-0.105,1.955-0.153,2.642
				c-0.047,0.688-0.135,1.35-0.264,1.986s-0.258,1.136-0.387,1.498s-0.336,0.705-0.621,1.031
				C193.691,108.84,193.404,109.07,193.112,109.208z M201.307,134.963c-0.295,0.811-0.729,1.445-1.297,1.904
				c-0.57,0.458-1.246,0.688-2.025,0.688c-0.938,0-1.709-0.313-2.318-0.94c-0.432-0.451-0.782-1.054-1.053-1.806
				c-0.27-0.754-0.404-1.486-0.404-2.197c0-0.412,0.08-0.767,0.242-1.061c0.162-0.295,0.369-0.441,0.619-0.441
				c0.203,0,0.375,0.113,0.516,0.344c0.141,0.229,0.26,0.57,0.359,1.021c0.121,0.535,0.252,0.982,0.393,1.342
				c0.14,0.359,0.338,0.655,0.592,0.889c0.256,0.232,0.59,0.35,1.005,0.35c0.57,0,1.034-0.234,1.39-0.705
				c0.357-0.471,0.535-1.058,0.535-1.762c0-0.558-0.096-1.011-0.289-1.359c-0.191-0.348-0.439-0.613-0.744-0.797
				s-0.713-0.379-1.223-0.584c-0.682-0.283-1.254-0.615-1.713-0.993c-0.461-0.378-0.825-0.896-1.096-1.548
				c-0.27-0.654-0.404-1.467-0.404-2.439c0-0.924,0.143-1.746,0.428-2.466c0.284-0.72,0.696-1.272,1.236-1.657
				c0.539-0.387,1.174-0.58,1.902-0.58c0.583,0,1.087,0.129,1.512,0.385c0.426,0.256,0.778,0.596,1.059,1.021
				c0.281,0.424,0.486,0.869,0.615,1.336s0.194,0.922,0.194,1.365c0,0.406-0.081,0.771-0.242,1.096
				c-0.161,0.326-0.362,0.488-0.604,0.488c-0.22,0-0.386-0.098-0.501-0.293c-0.113-0.195-0.237-0.516-0.371-0.961
				c-0.172-0.633-0.38-1.128-0.621-1.482c-0.242-0.355-0.631-0.533-1.167-0.533c-0.497,0-0.897,0.193-1.202,0.58
				c-0.305,0.385-0.457,0.85-0.457,1.393c0,0.337,0.052,0.627,0.156,0.873c0.104,0.244,0.246,0.455,0.428,0.631
				c0.181,0.176,0.364,0.313,0.551,0.412c0.186,0.1,0.492,0.244,0.92,0.436c0.534,0.223,1.018,0.467,1.451,0.734
				s0.802,0.593,1.105,0.975c0.305,0.383,0.541,0.867,0.711,1.451c0.17,0.586,0.256,1.303,0.256,2.15
				C201.75,133.238,201.602,134.152,201.307,134.963z M210.303,122.873c-0.164,0.256-0.41,0.385-0.738,0.385h-2.102v12.221
				c0,0.703-0.089,1.225-0.266,1.566c-0.178,0.34-0.408,0.51-0.689,0.51c-0.285,0-0.518-0.172-0.697-0.516
				c-0.18-0.346-0.27-0.865-0.27-1.561v-12.221h-2.102c-0.328,0-0.572-0.129-0.732-0.385s-0.24-0.595-0.24-1.016
				c0-0.436,0.084-0.781,0.25-1.033s0.407-0.379,0.723-0.379h6.125c0.332,0,0.58,0.131,0.742,0.391s0.243,0.601,0.243,1.021
				S210.467,122.617,210.303,122.873z M218.529,122.447c-0.082,0.299-0.223,0.711-0.422,1.238l-2.38,6.459v5.334
				c0,0.695-0.091,1.216-0.272,1.561c-0.18,0.344-0.412,0.516-0.691,0.516c-0.285,0-0.516-0.17-0.693-0.51
				c-0.176-0.342-0.265-0.863-0.265-1.566v-5.334l-2.321-6.367c-0.203-0.573-0.348-1.021-0.432-1.342s-0.127-0.6-0.127-0.838
				c0-0.39,0.086-0.727,0.256-1.01c0.172-0.282,0.383-0.424,0.633-0.424c0.264,0,0.464,0.133,0.6,0.396
				c0.137,0.264,0.341,0.789,0.613,1.576l1.775,5.105l1.793-5.105c0.109-0.313,0.199-0.576,0.273-0.791
				c0.073-0.215,0.154-0.414,0.242-0.602c0.09-0.188,0.188-0.332,0.296-0.432c0.108-0.099,0.239-0.148,0.396-0.148
				c0.242,0,0.444,0.14,0.606,0.418c0.162,0.279,0.243,0.604,0.243,0.971C218.652,121.85,218.611,122.148,218.529,122.447z
				 M227.76,136.85c-0.08,0.217-0.188,0.39-0.326,0.516c-0.137,0.127-0.297,0.189-0.479,0.189c-0.215,0-0.396-0.09-0.542-0.27
				s-0.272-0.408-0.378-0.684s-0.248-0.681-0.43-1.217l-0.768-2.272c-0.277-0.834-0.526-1.47-0.745-1.905
				c-0.22-0.436-0.44-0.734-0.667-0.896c-0.225-0.161-0.509-0.241-0.852-0.241h-0.676v5.406c0,0.713-0.088,1.236-0.266,1.572
				c-0.176,0.338-0.408,0.506-0.691,0.506c-0.307,0-0.545-0.176-0.713-0.527s-0.252-0.869-0.252-1.549v-12.945
				c0-0.734,0.093-1.266,0.279-1.594c0.186-0.33,0.486-0.494,0.901-0.494h3.134c0.432,0,0.802,0.033,1.109,0.098
				c0.307,0.064,0.584,0.197,0.83,0.396c0.296,0.223,0.558,0.539,0.785,0.953c0.228,0.412,0.4,0.893,0.518,1.439
				c0.119,0.547,0.178,1.125,0.178,1.737c0,1.255-0.199,2.257-0.596,3.005c-0.398,0.75-1.001,1.281-1.809,1.596
				c0.34,0.32,0.664,0.795,0.974,1.423s0.585,1.296,0.829,2.003c0.242,0.708,0.432,1.348,0.566,1.916
				c0.137,0.57,0.203,0.963,0.203,1.178C227.879,136.41,227.84,136.631,227.76,136.85z M228.415,95.176
				c-0.244,3.822-0.872,6.744-1.882,8.768s-2.52,3.447-4.526,4.271c-0.204,0.075-0.394,0.013-0.569-0.188
				c-0.177-0.199-0.299-0.475-0.366-0.824l-0.325-1.836c-0.055-0.324-0.031-0.643,0.07-0.955s0.248-0.518,0.438-0.618
				c1.396-0.624,2.428-1.579,3.092-2.866c0.665-1.286,1.092-3.203,1.282-5.752c0-0.125-0.027-0.188-0.081-0.188h-7.141
				c-0.203,0-0.373-0.131-0.509-0.393s-0.204-0.581-0.204-0.956v-1.836c0-0.374,0.068-0.687,0.204-0.937s0.306-0.375,0.509-0.375
				h7.263c0.067,0,0.102-0.063,0.102-0.188v-5.732c0-0.1-0.034-0.15-0.102-0.15c-1.248,0.15-2.943,0.25-5.086,0.301
				c-0.19,0-0.356-0.131-0.499-0.394s-0.213-0.568-0.213-0.918v-1.836c0-0.375,0.067-0.693,0.203-0.956
				c0.136-0.262,0.305-0.393,0.509-0.393c2.604-0.025,4.771-0.244,6.499-0.656c1.73-0.412,3.381-1.08,4.955-2.004
				c0.189-0.125,0.375-0.106,0.559,0.056c0.184,0.163,0.302,0.419,0.355,0.769l0.326,1.836c0.067,0.35,0.057,0.693-0.031,1.029
				c-0.088,0.338-0.227,0.557-0.416,0.656c-1.344,0.824-2.733,1.449-4.171,1.873c-0.081,0-0.122,0.076-0.122,0.225v6.295
				c0,0.125,0.033,0.188,0.102,0.188h5.839c0.203,0,0.373,0.125,0.509,0.375s0.203,0.563,0.203,0.937v1.836
				c0,0.375-0.067,0.694-0.203,0.956s-0.306,0.393-0.509,0.393h-5.94C228.455,94.988,228.415,95.051,228.415,95.176z
				 M236.633,136.901c-0.154,0.248-0.381,0.372-0.684,0.372h-5.232c-0.418,0-0.719-0.164-0.902-0.494
				c-0.184-0.328-0.275-0.86-0.275-1.596v-12.648c0-0.49,0.041-0.891,0.123-1.2s0.21-0.536,0.385-0.677
				c0.175-0.143,0.398-0.213,0.67-0.213h5.082c0.307,0,0.535,0.121,0.685,0.361s0.224,0.557,0.224,0.945
				c0,0.398-0.074,0.717-0.224,0.957s-0.378,0.361-0.685,0.361h-4.338v4.141h3.994c0.295,0,0.514,0.117,0.658,0.352
				c0.146,0.234,0.219,0.543,0.219,0.926c0,0.385-0.072,0.697-0.215,0.938c-0.143,0.242-0.363,0.363-0.662,0.363h-3.994v4.781h4.488
				c0.303,0,0.529,0.125,0.684,0.373c0.153,0.248,0.23,0.578,0.23,0.99C236.863,136.33,236.786,136.653,236.633,136.901z
				 M246.361,135.341c0,1.476-0.346,2.214-1.035,2.214c-0.172,0-0.328-0.044-0.465-0.132c-0.139-0.088-0.268-0.228-0.389-0.419
				c-0.121-0.19-0.232-0.414-0.336-0.67s-0.207-0.518-0.311-0.785l-3.605-9.791v9.848c0,0.643-0.085,1.127-0.254,1.457
				c-0.17,0.328-0.387,0.492-0.652,0.492c-0.273,0-0.494-0.166-0.658-0.499c-0.166-0.333-0.248-0.816-0.248-1.451v-12.974
				c0-0.551,0.035-0.982,0.104-1.297c0.083-0.344,0.219-0.625,0.41-0.844c0.191-0.217,0.396-0.326,0.619-0.326
				c0.172,0,0.321,0.05,0.445,0.148c0.123,0.1,0.232,0.234,0.324,0.402c0.094,0.168,0.189,0.387,0.287,0.654
				s0.198,0.547,0.303,0.837l3.695,9.911v-10.003c0-0.649,0.078-1.138,0.236-1.462c0.156-0.326,0.369-0.488,0.637-0.488
				c0.275,0,0.494,0.162,0.653,0.488c0.159,0.324,0.239,0.813,0.239,1.462V135.341z M255.571,136.901
				c-0.153,0.248-0.382,0.372-0.685,0.372h-5.231c-0.419,0-0.72-0.164-0.903-0.494c-0.184-0.328-0.274-0.86-0.274-1.596v-12.648
				c0-0.49,0.04-0.891,0.122-1.2s0.211-0.536,0.386-0.677c0.175-0.143,0.397-0.213,0.67-0.213h5.083
				c0.307,0,0.535,0.121,0.684,0.361s0.225,0.557,0.225,0.945c0,0.398-0.076,0.717-0.225,0.957s-0.377,0.361-0.684,0.361h-4.339
				v4.141h3.995c0.293,0,0.514,0.117,0.658,0.352s0.217,0.543,0.217,0.926c0,0.385-0.071,0.697-0.214,0.938
				c-0.144,0.242-0.363,0.363-0.661,0.363h-3.995v4.781h4.487c0.303,0,0.531,0.125,0.685,0.373s0.229,0.578,0.229,0.99
				C255.801,136.33,255.725,136.653,255.571,136.901z M258.927,94.971c-0.136-0.263-0.203-0.581-0.203-0.956v-2.323
				c0-0.375,0.067-0.693,0.203-0.955s0.306-0.394,0.509-0.394h15.38c0.203,0,0.372,0.132,0.509,0.394
				c0.135,0.262,0.203,0.58,0.203,0.955v2.323c0,0.375-0.068,0.693-0.203,0.956c-0.137,0.262-0.306,0.393-0.509,0.393h-15.38
				C259.232,95.363,259.063,95.232,258.927,94.971z M267.002,122.709c-0.148,0.24-0.377,0.361-0.684,0.361h-3.794v4.313h3.171
				c0.295,0,0.514,0.117,0.658,0.351s0.217,0.546,0.217,0.937s-0.072,0.701-0.221,0.931c-0.146,0.229-0.365,0.345-0.654,0.345
				h-3.171v5.535c0,0.703-0.089,1.225-0.269,1.564s-0.408,0.51-0.689,0.51c-0.285,0-0.516-0.172-0.695-0.516
				c-0.18-0.346-0.269-0.865-0.269-1.561v-12.945c0-0.488,0.04-0.889,0.122-1.199c0.082-0.309,0.211-0.535,0.386-0.676
				c0.175-0.143,0.397-0.213,0.67-0.213h4.538c0.307,0,0.535,0.121,0.684,0.361c0.149,0.24,0.225,0.557,0.225,0.945
				C267.227,122.15,267.151,122.469,267.002,122.709z M277.229,132.381c-0.199,1.063-0.497,1.984-0.895,2.766
				c-0.396,0.779-0.885,1.375-1.463,1.789c-0.578,0.412-1.24,0.619-1.986,0.619c-0.744,0-1.408-0.213-1.995-0.637
				s-1.077-1.023-1.47-1.795c-0.393-0.773-0.689-1.701-0.891-2.787c-0.199-1.086-0.301-2.26-0.301-3.522
				c0-1.292,0.105-2.478,0.314-3.556s0.512-1.996,0.91-2.754c0.396-0.756,0.879-1.336,1.449-1.738c0.57-0.4,1.217-0.602,1.943-0.602
				c0.982,0,1.828,0.354,2.533,1.061c0.707,0.709,1.24,1.714,1.604,3.018c0.361,1.305,0.543,2.836,0.543,4.594
				C277.525,130.137,277.426,131.318,277.229,132.381z M287.029,137.066c-0.184,0.326-0.406,0.488-0.664,0.488
				c-0.152,0-0.281-0.048-0.389-0.143c-0.109-0.096-0.199-0.227-0.273-0.391c-0.072-0.164-0.152-0.416-0.236-0.756
				s-0.156-0.64-0.217-0.899l-0.453-2.108h-3.862l-0.454,2.154c-0.177,0.84-0.328,1.408-0.453,1.701
				c-0.125,0.295-0.33,0.441-0.615,0.441c-0.242,0-0.456-0.156-0.643-0.471c-0.186-0.313-0.277-0.668-0.277-1.066
				c0-0.229,0.021-0.467,0.064-0.711s0.114-0.586,0.213-1.021l2.431-10.92c0.069-0.314,0.152-0.691,0.249-1.131
				c0.098-0.439,0.201-0.805,0.312-1.096c0.11-0.29,0.255-0.525,0.435-0.705c0.179-0.18,0.4-0.27,0.664-0.27
				c0.268,0,0.49,0.09,0.67,0.27s0.324,0.411,0.435,0.693c0.11,0.283,0.202,0.588,0.278,0.912c0.076,0.326,0.172,0.76,0.289,1.303
				l2.481,10.852c0.194,0.826,0.292,1.426,0.292,1.801C287.305,136.385,287.213,136.742,287.029,137.066z M287.538,107.335
				c-0.143-0.263-0.214-0.581-0.214-0.956V79.439c0-0.375,0.071-0.687,0.214-0.937s0.315-0.375,0.519-0.375h1.363
				c0.203,0,0.377,0.125,0.52,0.375s0.213,0.562,0.213,0.937v22.855c0,0.15,0.034,0.2,0.102,0.15c1.193-0.6,2.119-1.779,2.777-3.541
				c0.658-1.761,1.102-4.252,1.332-7.475c0.027-0.375,0.119-0.675,0.275-0.899s0.328-0.313,0.519-0.263l1.159,0.3
				c0.203,0.05,0.367,0.22,0.488,0.507c0.123,0.287,0.17,0.617,0.143,0.992c-0.705,10.291-3.668,15.512-8.891,15.662
				C287.854,107.729,287.681,107.597,287.538,107.335z M297.805,135.627c0,0.643-0.082,1.125-0.243,1.445
				c-0.161,0.322-0.378,0.482-0.649,0.482c-0.255,0-0.465-0.16-0.628-0.481s-0.245-0.803-0.245-1.444v-11.605l-1.527,10.711
				c-0.1,0.695-0.182,1.205-0.244,1.53s-0.178,0.621-0.348,0.889c-0.168,0.268-0.402,0.401-0.701,0.401
				c-0.227,0-0.416-0.086-0.572-0.258s-0.277-0.393-0.363-0.66c-0.088-0.268-0.156-0.563-0.205-0.889
				c-0.051-0.324-0.102-0.662-0.152-1.014l-1.527-10.711v11.605c0,0.642-0.082,1.123-0.243,1.444s-0.376,0.481-0.644,0.481
				c-0.258,0-0.471-0.158-0.634-0.477c-0.163-0.316-0.245-0.801-0.245-1.451v-13.311c0-0.734,0.107-1.23,0.324-1.486
				c0.215-0.256,0.508-0.385,0.875-0.385h0.596c0.358,0,0.619,0.058,0.781,0.172c0.162,0.115,0.281,0.322,0.359,0.621
				c0.078,0.297,0.166,0.783,0.266,1.457l1.385,9.219l1.381-9.219c0.1-0.674,0.188-1.16,0.266-1.457
				c0.078-0.299,0.199-0.506,0.361-0.621c0.162-0.114,0.422-0.172,0.781-0.172h0.596c0.368,0,0.66,0.129,0.877,0.385
				c0.215,0.256,0.324,0.752,0.324,1.486V135.627z M225.773,125.291c0-0.467-0.067-0.877-0.201-1.232
				c-0.135-0.356-0.321-0.623-0.56-0.799c-0.226-0.168-0.669-0.252-1.333-0.252h-1.781v4.625h1.729c0.464,0,0.854-0.07,1.171-0.213
				c0.316-0.141,0.557-0.382,0.725-0.723C225.689,126.357,225.773,125.889,225.773,125.291z M162.088,123.008h-1.299v5.141h1.299
				c0.453,0,0.834-0.084,1.139-0.252s0.537-0.443,0.697-0.826s0.24-0.885,0.24-1.504c0-0.742-0.123-1.346-0.369-1.813
				C163.518,123.256,162.949,123.008,162.088,123.008z M274.285,123.563c-0.418-0.463-0.898-0.695-1.439-0.695
				c-0.387,0-0.743,0.129-1.07,0.385s-0.609,0.629-0.846,1.119s-0.422,1.115-0.559,1.877s-0.205,1.617-0.205,2.565
				c0,0.956,0.068,1.821,0.205,2.595c0.137,0.772,0.33,1.414,0.578,1.922c0.25,0.51,0.535,0.891,0.859,1.143
				c0.322,0.252,0.676,0.379,1.063,0.379c0.494,0,0.947-0.219,1.361-0.654s0.744-1.109,0.988-2.02
				c0.245-0.912,0.367-2.033,0.367-3.364c0-1.231-0.112-2.3-0.338-3.202C275.025,124.707,274.703,124.025,274.285,123.563z"/>
		</g>
	</g>
	<g>
		<path fill="none" stroke="#FFFFFF" stroke-width="3" d="M109.727,134.424c-1.66,1.018-4.15,1.461-5.564,0.988L59.856,120.63
			c-1.414-0.472-1.216-1.681,0.442-2.698l21.324-13.093c1.659-1.019,4.15-1.461,5.564-0.989l44.305,14.783
			c1.414,0.473,1.217,1.68-0.441,2.699L109.727,134.424z"/>
		<path fill="none" stroke="#FFFFFF" stroke-width="3" stroke-linecap="round" stroke-linejoin="round" d="M61.434,121.24
			c2.557,1.598,0.124,5.705,2.107,7.813c1.984,2.108,35.758,15.127,42.412,13.89c5.268-0.979,22.355-11.897,24.02-13.864
			c1.279-1.514,0.145-3.525,0.783-6.722"/>
		<path fill="none" stroke="#FFFFFF" stroke-width="3" stroke-linecap="round" stroke-linejoin="round" d="M71.23,119.133
			c0,0,6.696-4.837,12.896-6.821c6.201-1.984,35.716,10.169,35.716,10.169"/>
	</g>
	<g>
		<polygon fill="none" stroke="#FFFFFF" stroke-width="3" stroke-linecap="round" stroke-linejoin="round" points="138.011,70.334 
			99.082,86.702 120.758,94.664 142.435,84.49 130.49,80.066 144.646,73.431 		"/>
		<polyline fill="none" stroke="#FFFFFF" stroke-width="3" stroke-linecap="round" stroke-linejoin="round" points="99.082,86.702 
			99.137,101.355 120.758,109.705 120.758,94.664 		"/>
		<polyline fill="none" stroke="#FFFFFF" stroke-width="3" stroke-linecap="round" stroke-linejoin="round" points="142.435,84.49 
			142.379,100.36 120.758,109.705 		"/>
		<polyline fill="none" stroke="#FFFFFF" stroke-width="3" stroke-linecap="round" stroke-linejoin="round" points="145.145,73.597 
			145.033,88.25 142.711,89.246 		"/>
	</g>
</g>
</svg>
