<?xml version="1.0" encoding="utf-8"?>
<!-- Generator: Adobe Illustrator 12.0.0, SVG Export Plug-In . SVG Version: 6.00 Build 51448)  -->
<!DOCTYPE svg PUBLIC "-//W3C//DTD SVG 1.1//EN" "http://www.w3.org/Graphics/SVG/1.1/DTD/svg11.dtd" [
	<!ENTITY ns_svg "http://www.w3.org/2000/svg">
	<!ENTITY ns_xlink "http://www.w3.org/1999/xlink">
]>
<svg  version="1.1" id="レイヤー_1" xmlns="&ns_svg;" xmlns:xlink="&ns_xlink;" width="708.661" height="425.197"
	 viewBox="0 0 708.661 425.197" overflow="visible" enable-background="new 0 0 708.661 425.197" xml:space="preserve">
<rect fill="none" width="708.661" height="425.197"/>
<g>
	<g>
		<g>
			<path fill="#FFFFFF" d="M521.77,172.227c-6.688,0.199-11.933,0.299-15.731,0.299c-0.761,0-1.407-0.262-1.938-0.786
				c-0.532-0.524-0.823-1.161-0.874-1.911v-0.899c-0.051-0.699,0.177-1.311,0.684-1.836c0.507-0.524,1.115-0.787,1.824-0.787
				c14.693-0.1,28.702-0.799,42.028-2.098l-0.076-0.075h-46.208c-0.254,0-0.38,0.125-0.38,0.375v13.114
				c0,4.746-0.254,8.967-0.76,12.664c0,0.25,0.101,0.375,0.304,0.375h21.052c0.253,0,0.38-0.125,0.38-0.375v-1.424
				c0-0.25-0.127-0.375-0.38-0.375h-15.275c-0.761,0-1.395-0.249-1.9-0.749c-0.507-0.499-0.76-1.123-0.76-1.873v-8.769
				c0-0.749,0.253-1.386,0.76-1.91c0.506-0.524,1.14-0.787,1.9-0.787h15.275c0.253,0,0.38-0.125,0.38-0.375v-1.424
				C522.073,172.352,521.972,172.227,521.77,172.227z M370.253,153.267c-0.254-0.149-0.507-0.149-0.76,0
				c-4.408,3.498-9.146,6.745-14.212,9.742c-0.152,0.15-0.152,0.225,0,0.225h29.184c0.152,0,0.152-0.074,0-0.225
				C379.398,160.012,374.661,156.765,370.253,153.267z M468.296,256.004h9.34l-4.712-13.875L468.296,256.004z M545.178,197.255
				h-13.68c-0.254,0-0.38,0.125-0.38,0.375v3.297c0,0.25,0.126,0.375,0.38,0.375c0.304,0,0.747-0.024,1.33-0.074
				c0.582-0.05,1.025-0.1,1.329-0.15c0.254,0,0.381-0.125,0.381-0.375c0-0.549,0.189-1.049,0.569-1.498s0.874-0.699,1.482-0.75
				l2.204-0.3c0.76-0.1,1.456,0.063,2.09,0.487c0.633,0.425,1.051,0.987,1.254,1.687c0.151,0.699,0.392,1.724,0.722,3.072
				c0.329,1.35,0.545,2.224,0.646,2.622c0.101,0.25,0.278,0.375,0.532,0.375h0.075c0.709,0,1.127-0.074,1.254-0.225
				c0.127-0.149,0.19-0.649,0.19-1.499v-7.044C545.558,197.38,545.431,197.255,545.178,197.255z M521.693,179.72h-8.739
				c-0.254,0-0.381,0.125-0.381,0.375v2.923c0,0.25,0.127,0.374,0.381,0.374h8.739c0.253,0,0.38-0.124,0.38-0.374v-2.923
				C522.073,179.845,521.946,179.72,521.693,179.72z M585.298,117.92H117.583c-7.795,0-14.174,6.378-14.174,14.174v150.235
				c0,7.796,6.379,14.173,14.174,14.173h467.715c7.795,0,14.174-6.377,14.174-14.173V132.094
				C599.472,124.298,593.093,117.92,585.298,117.92z M301.836,270.99c0,7.795-6.377,14.174-14.173,14.174H131.758
				c-7.796,0-14.173-6.379-14.173-14.174V143.432c0-7.795,6.377-14.174,14.173-14.174h155.905c7.796,0,14.173,6.379,14.173,14.174
				V270.99z M397.795,265.867c0,1.285-0.266,2.249-0.799,2.892c-0.531,0.643-1.245,0.964-2.139,0.964
				c-0.838,0-1.527-0.321-2.066-0.963s-0.809-1.605-0.809-2.89v-23.21l-5.018,21.421c-0.327,1.392-0.594,2.412-0.801,3.062
				c-0.206,0.649-0.587,1.242-1.142,1.777c-0.556,0.535-1.323,0.803-2.306,0.803c-0.74,0-1.367-0.173-1.879-0.517
				c-0.513-0.344-0.911-0.783-1.195-1.318c-0.285-0.535-0.51-1.127-0.673-1.777c-0.163-0.649-0.331-1.326-0.501-2.029l-5.018-21.421
				v23.21c0,1.284-0.266,2.248-0.799,2.89c-0.531,0.642-1.238,0.963-2.118,0.963c-0.852,0-1.548-0.317-2.087-0.952
				s-0.809-1.603-0.809-2.903v-26.622c0-1.469,0.355-2.459,1.066-2.973c0.71-0.512,1.67-0.769,2.877-0.769h1.961
				c1.18,0,2.036,0.115,2.569,0.345c0.532,0.229,0.927,0.643,1.183,1.24c0.256,0.596,0.547,1.568,0.875,2.916l4.547,18.437
				l4.543-18.437c0.326-1.348,0.618-2.32,0.874-2.916c0.256-0.598,0.65-1.011,1.184-1.24s1.39-0.345,2.569-0.345h1.963
				c1.208,0,2.168,0.257,2.879,0.769c0.711,0.514,1.066,1.504,1.066,2.973V265.867z M402.477,171.327
				c-0.658,0.25-1.343,0.225-2.052-0.075c-3.648-1.648-7.144-3.372-10.487-5.171c-0.203-0.1-0.305-0.024-0.305,0.225v2.099
				c0,0.75-0.254,1.387-0.76,1.911c-0.507,0.525-1.141,0.787-1.9,0.787h-11.552c-0.254,0-0.38,0.125-0.38,0.374v5.695
				c0,0.25,0.126,0.375,0.38,0.375h21.813c0.76,0,1.393,0.263,1.899,0.787c0.506,0.524,0.76,1.161,0.76,1.91v2.548
				c0,0.75-0.254,1.374-0.76,1.874c-0.507,0.5-1.14,0.749-1.899,0.749h-21.813c-0.254,0-0.38,0.125-0.38,0.375v18.359
				c0,0.25,0.126,0.375,0.38,0.375h24.853c0.76,0,1.393,0.263,1.899,0.787c0.506,0.524,0.76,1.161,0.76,1.91v2.772
				c0,0.75-0.254,1.387-0.76,1.912c-0.507,0.523-1.14,0.786-1.899,0.786h-60.801c-0.76,0-1.394-0.263-1.899-0.786
				c-0.507-0.525-0.76-1.162-0.76-1.912v-2.772c0-0.749,0.253-1.386,0.76-1.91c0.506-0.524,1.14-0.787,1.899-0.787h24.853
				c0.253,0,0.38-0.125,0.38-0.375V185.79c0-0.25-0.127-0.375-0.38-0.375h-21.813c-0.76,0-1.394-0.249-1.899-0.749
				c-0.507-0.5-0.76-1.124-0.76-1.874v-2.548c0-0.749,0.253-1.386,0.76-1.91c0.506-0.524,1.14-0.787,1.899-0.787h21.813
				c0.253,0,0.38-0.125,0.38-0.375v-5.695c0-0.249-0.127-0.374-0.38-0.374h-11.552c-0.761,0-1.395-0.262-1.9-0.787
				c-0.507-0.524-0.76-1.161-0.76-1.911v-2.099c0-0.249-0.102-0.324-0.305-0.225c-3.344,1.799-6.84,3.522-10.487,5.171
				c-0.71,0.3-1.395,0.325-2.053,0.075s-1.14-0.725-1.443-1.424l-1.292-2.848c-0.305-0.699-0.33-1.387-0.076-2.061
				c0.253-0.674,0.734-1.187,1.444-1.537c9.17-4.296,17.657-9.366,25.46-15.212c1.418-1.099,3.039-1.648,4.863-1.648h7.297
				c1.823,0,3.419,0.524,4.787,1.573c7.498,5.646,16.036,10.741,25.612,15.287c0.658,0.351,1.114,0.875,1.368,1.574
				c0.253,0.699,0.228,1.374-0.076,2.023l-1.292,2.848C403.616,170.603,403.135,171.077,402.477,171.327z M393.281,192.234
				c-1.318,2.549-3.092,5.621-5.32,9.218c-0.355,0.649-0.9,1.062-1.635,1.236s-1.431,0.063-2.089-0.338l-3.116-1.798
				c-0.659-0.35-1.077-0.874-1.255-1.573s-0.063-1.374,0.343-2.024c1.875-3.047,3.445-5.894,4.712-8.542
				c0.354-0.649,0.887-1.099,1.596-1.349s1.394-0.225,2.053,0.074l3.42,1.648c0.658,0.301,1.113,0.788,1.367,1.462
				S393.585,191.585,393.281,192.234z M346.085,190.811c0.152-0.699,0.558-1.224,1.216-1.573l3.345-1.874
				c0.658-0.399,1.354-0.512,2.089-0.337s1.279,0.587,1.635,1.236c1.52,2.349,3.268,5.396,5.244,9.143
				c0.354,0.699,0.405,1.387,0.151,2.061c-0.254,0.675-0.709,1.187-1.367,1.536l-3.421,1.648c-0.709,0.301-1.406,0.325-2.09,0.075
				s-1.203-0.699-1.558-1.349c-1.521-2.897-3.142-5.745-4.864-8.543C346.06,192.185,345.933,191.51,346.085,190.811z
				 M427.671,268.416c-0.505,0.496-1.256,0.744-2.252,0.744h-17.229c-1.381,0-2.374-0.329-2.979-0.987
				c-0.605-0.658-0.908-1.722-0.908-3.191v-25.299c0-0.98,0.135-1.779,0.406-2.399c0.27-0.62,0.693-1.071,1.271-1.354
				s1.313-0.425,2.21-0.425h16.738c1.01,0,1.761,0.241,2.252,0.722c0.491,0.482,0.736,1.113,0.736,1.893
				c0,0.795-0.245,1.432-0.736,1.914c-0.491,0.48-1.242,0.722-2.252,0.722h-14.281v8.281h13.15c0.967,0,1.689,0.234,2.166,0.702
				c0.477,0.469,0.715,1.086,0.715,1.854s-0.234,1.393-0.704,1.875c-0.47,0.484-1.195,0.726-2.177,0.726h-13.15v9.563h14.772
				c0.996,0,1.747,0.249,2.252,0.745s0.758,1.156,0.758,1.98C428.429,267.274,428.176,267.92,427.671,268.416z M456.217,240.36
				c-0.541,0.512-1.353,0.769-2.434,0.769h-6.917v24.44c0,1.407-0.292,2.451-0.874,3.133c-0.584,0.68-1.337,1.021-2.261,1.021
				c-0.938,0-1.703-0.345-2.293-1.032c-0.59-0.689-0.885-1.729-0.885-3.121v-24.44h-6.917c-1.082,0-1.886-0.257-2.412-0.769
				c-0.526-0.514-0.789-1.19-0.789-2.032c0-0.872,0.273-1.562,0.821-2.066s1.341-0.758,2.38-0.758h20.146
				c1.096,0,1.91,0.261,2.443,0.78c0.534,0.521,0.801,1.202,0.801,2.044S456.758,239.847,456.217,240.36z M486.688,268.747
				c-0.604,0.65-1.333,0.976-2.186,0.976c-0.498,0-0.924-0.096-1.279-0.286c-0.355-0.191-0.654-0.451-0.896-0.779
				c-0.241-0.328-0.5-0.832-0.777-1.513c-0.277-0.68-0.516-1.279-0.715-1.799l-1.492-4.217h-12.709l-1.492,4.308
				c-0.584,1.682-1.082,2.816-1.494,3.404s-1.087,0.882-2.025,0.882c-0.795,0-1.499-0.313-2.11-0.94s-0.917-1.338-0.917-2.134
				c0-0.459,0.07-0.933,0.213-1.423c0.143-0.488,0.377-1.17,0.704-2.041l7.996-21.842c0.228-0.627,0.501-1.381,0.821-2.26
				c0.319-0.88,0.66-1.61,1.023-2.191c0.361-0.581,0.838-1.052,1.428-1.411s1.319-0.539,2.187-0.539c0.882,0,1.617,0.18,2.207,0.539
				s1.065,0.822,1.429,1.388c0.361,0.566,0.668,1.174,0.916,1.824c0.25,0.65,0.566,1.518,0.949,2.604l8.168,21.705
				c0.639,1.651,0.959,2.852,0.959,3.602C487.594,267.383,487.291,268.098,486.688,268.747z M513.662,268.392
				c-0.541,0.513-1.331,0.769-2.369,0.769h-15.309c-1.381,0-2.374-0.329-2.979-0.987c-0.605-0.657-0.908-1.721-0.908-3.189v-25.911
				c0-1.377,0.288-2.409,0.865-3.099c0.576-0.688,1.334-1.032,2.274-1.032c0.954,0,1.727,0.341,2.317,1.021s0.887,1.718,0.887,3.11
				v24.493h12.852c1.023,0,1.811,0.268,2.358,0.803s0.821,1.208,0.821,2.017C514.473,267.212,514.203,267.88,513.662,268.392z
				 M554.905,205.124c0,3.946-0.418,6.395-1.254,7.344s-3.002,1.424-6.498,1.424c-0.305,0-0.723-0.013-1.254-0.037
				c-0.532-0.026-1.279-0.063-2.242-0.112c-0.963-0.051-1.849-0.101-2.659-0.15c-0.761-0.051-1.42-0.338-1.977-0.861
				c-0.558-0.525-0.861-1.162-0.912-1.911v-0.825c0-0.199-0.127-0.35-0.38-0.449c-0.811-0.3-1.343-0.924-1.596-1.873
				c-0.102-0.2-0.254-0.3-0.456-0.3c-7.55,0.849-14.795,1.423-21.736,1.724c-0.76,0.049-1.406-0.188-1.938-0.712
				c-0.532-0.525-0.823-1.137-0.874-1.836l-0.076-1.574c-0.051-0.699,0.164-1.311,0.646-1.836c0.481-0.524,1.077-0.812,1.786-0.861
				c3.749-0.1,6.511-0.2,8.284-0.3c0.202,0,0.304-0.125,0.304-0.375v-3.972c0-0.25-0.127-0.375-0.38-0.375h-11.855
				c-0.254,0-0.38,0.125-0.38,0.375v13.714c0,0.749-0.267,1.373-0.799,1.874c-0.532,0.499-1.178,0.749-1.938,0.749h-3.876
				c-0.76,0-1.394-0.25-1.9-0.749c-0.507-0.501-0.76-1.125-0.76-1.874V191.56h-0.076c-1.115,7.694-3.294,14.389-6.536,20.084
				c-0.304,0.549-0.785,0.849-1.443,0.899c-0.659,0.049-1.191-0.176-1.596-0.675l-3.496-4.122c-1.115-1.348-1.293-2.847-0.532-4.496
				c1.773-3.996,3.065-8.492,3.876-13.488s1.216-11.291,1.216-18.885v-20.458c0-0.749,0.253-1.373,0.76-1.873
				c0.507-0.499,1.141-0.749,1.9-0.749h56.315c0.76,0,1.394,0.25,1.9,0.749c0.506,0.5,0.76,1.124,0.76,1.873v11.99
				c0,0.5-0.165,0.913-0.494,1.237s-0.747,0.486-1.254,0.486c-0.102,0-0.151,0.075-0.151,0.225l0.531,3.298
				c0.102,0.699-0.076,1.337-0.532,1.911s-1.038,0.911-1.747,1.011c-5.422,0.55-11.324,0.975-17.708,1.274
				c-0.254,0-0.38,0.125-0.38,0.375v1.798c0,0.25,0.126,0.375,0.38,0.375h16.567c0.76,0,1.394,0.263,1.9,0.787
				c0.506,0.524,0.76,1.161,0.76,1.91v8.769c0,0.75-0.254,1.374-0.76,1.873c-0.507,0.5-1.141,0.749-1.9,0.749h-16.567
				c-0.254,0-0.38,0.125-0.38,0.375v1.424c0,0.25,0.126,0.375,0.38,0.375h20.368c0.76,0,1.393,0.25,1.899,0.749
				c0.506,0.5,0.76,1.124,0.76,1.873V205.124z M501.478,157.838h41.42c0.253,0,0.38-0.124,0.38-0.374v-2.174
				c0-0.249-0.127-0.374-0.38-0.374h-41.42c-0.254,0-0.38,0.125-0.38,0.374v2.174C501.098,157.714,501.224,157.838,501.478,157.838z
				 M531.498,183.018c0,0.25,0.126,0.374,0.38,0.374h9.195c0.254,0,0.381-0.124,0.381-0.374v-2.923c0-0.25-0.127-0.375-0.381-0.375
				h-9.195c-0.254,0-0.38,0.125-0.38,0.375V183.018z"/>
		</g>
	</g>
	<g>
		<polyline fill="none" stroke="#FFFFFF" stroke-width="4" stroke-linecap="round" stroke-linejoin="round" points="
			166.984,221.307 254.413,221.307 254.413,251.906 		"/>
		<path fill="none" stroke="#FFFFFF" stroke-width="4" stroke-linecap="round" stroke-linejoin="round" d="M166.984,251.906"/>
		
			<rect x="133.47" y="241.707" fill="none" stroke="#FFFFFF" stroke-width="4" stroke-linecap="round" stroke-linejoin="round" width="87.429" height="30.6"/>
		<polygon fill="none" stroke="#FFFFFF" stroke-width="4" stroke-linecap="round" stroke-linejoin="round" points="133.47,241.707 
			166.984,221.307 254.413,221.307 220.898,241.707 		"/>
		<polygon fill="none" stroke="#FFFFFF" stroke-width="4" stroke-linecap="round" stroke-linejoin="round" points="220.898,272.307 
			254.413,251.906 254.413,221.307 220.898,241.707 		"/>
		
			<rect x="172.821" y="246.143" fill="none" stroke="#FFFFFF" stroke-width="4" stroke-linecap="round" stroke-linejoin="round" width="40.786" height="18.021"/>
		
			<circle fill="none" stroke="#FFFFFF" stroke-width="4" stroke-linecap="round" stroke-linejoin="round" cx="142.197" cy="251.426" r="5.284"/>
		
			<circle fill="none" stroke="#FFFFFF" stroke-width="4" stroke-linecap="round" stroke-linejoin="round" cx="158.186" cy="251.426" r="5.285"/>
	</g>
	<g>
		
			<ellipse transform="matrix(0.9856 0.1689 -0.1689 0.9856 32.9336 -26.835)" fill="none" stroke="#FFFFFF" stroke-width="4" stroke-linecap="round" stroke-linejoin="round" cx="174.251" cy="180.226" rx="24.401" ry="8.495"/>
		<path fill="none" stroke="#FFFFFF" stroke-width="4" stroke-linecap="round" stroke-linejoin="round" d="M190.737,204.689
			c-0.556,3.246-10.001,4.338-21.094,2.438c-11.095-1.901-19.638-6.074-19.081-9.321"/>
		
			<line fill="none" stroke="#FFFFFF" stroke-width="4" stroke-linecap="round" stroke-linejoin="round" x1="150.201" y1="176.105" x2="150.563" y2="197.806"/>
		
			<line fill="none" stroke="#FFFFFF" stroke-width="4" stroke-linecap="round" stroke-linejoin="round" x1="198.302" y1="184.346" x2="190.737" y2="204.689"/>
		
			<ellipse transform="matrix(0.9857 0.1688 -0.1688 0.9857 32.0509 -27.0183)" fill="none" stroke="#FFFFFF" stroke-width="4" stroke-linecap="round" stroke-linejoin="round" cx="174.959" cy="175.028" rx="3.796" ry="1.807"/>
		<path fill="none" stroke="#FFFFFF" stroke-width="4" stroke-linecap="round" stroke-linejoin="round" d="M150.969,174.941
			c-0.633,1.248-2.155,1.746-3.402,1.114l-23.864-12.087c-1.246-0.632-1.745-2.154-1.112-3.401l0,0
			c0.631-1.247,2.153-1.745,3.4-1.114l23.862,12.088C151.101,172.173,151.599,173.695,150.969,174.941L150.969,174.941z"/>
	</g>
	<g>
		
			<ellipse transform="matrix(0.9321 -0.3623 0.3623 0.9321 -41.9254 102.129)" fill="none" stroke="#FFFFFF" stroke-width="5" cx="251.361" cy="162.857" rx="20.667" ry="7.668"/>
		<path fill="none" stroke="#FFFFFF" stroke-width="5" d="M287.048,197.625c1.534,3.946-5.847,10.498-16.484,14.633
			c-10.639,4.135-20.507,4.288-22.041,0.341"/>
		<line fill="none" stroke="#FFFFFF" stroke-width="5" x1="232.099" y1="170.345" x2="249.126" y2="214.152"/>
		<line fill="none" stroke="#FFFFFF" stroke-width="5" x1="270.624" y1="155.37" x2="287.168" y2="197.936"/>
	</g>
	<g>
		<g id="XMLID_1_">
			<g>
				<path fill="#FFFFFF" d="M251.294,145.065l5.031,12.946l-11.8,4.586l-5.032-12.946c0.472,1.212,3.489,1.165,6.752-0.103
					C249.507,148.28,251.765,146.276,251.294,145.065z"/>
				<path fill="#FFFFFF" d="M244.525,162.598l11.8-4.586c0.472,1.212-1.786,3.216-5.048,4.483
					C248.015,163.763,244.996,163.81,244.525,162.598z"/>
				<path fill="#FFFFFF" d="M244.542,145.168c3.263-1.268,6.28-1.314,6.752-0.103c0.471,1.211-1.787,3.215-5.049,4.483
					c-3.263,1.268-6.28,1.314-6.752,0.103C239.022,148.439,241.28,146.436,244.542,145.168z"/>
			</g>
			<g>
				<path fill="none" stroke="#FFFFFF" stroke-width="5" d="M251.294,145.065c0.471,1.211-1.787,3.215-5.049,4.483
					c-3.263,1.268-6.28,1.314-6.752,0.103c-0.471-1.212,1.787-3.216,5.049-4.483C247.805,143.9,250.822,143.854,251.294,145.065z"/>
				<path fill="none" stroke="#FFFFFF" stroke-width="5" d="M256.325,158.012c0.472,1.212-1.786,3.216-5.048,4.483
					c-3.263,1.268-6.281,1.314-6.752,0.103"/>
				<polyline fill="none" stroke="#FFFFFF" stroke-width="5" points="239.493,149.651 244.525,162.598 244.71,163.073 				"/>
				<polyline fill="none" stroke="#FFFFFF" stroke-width="5" points="251.294,145.065 256.325,158.012 256.361,158.104 				"/>
			</g>
		</g>
	</g>
</g>
</svg>
