<?xml version="1.0" encoding="utf-8"?>
<!-- Generator: Adobe Illustrator 12.0.0, SVG Export Plug-In . SVG Version: 6.00 Build 51448)  -->
<!DOCTYPE svg PUBLIC "-//W3C//DTD SVG 1.1//EN" "http://www.w3.org/Graphics/SVG/1.1/DTD/svg11.dtd" [
	<!ENTITY ns_svg "http://www.w3.org/2000/svg">
	<!ENTITY ns_xlink "http://www.w3.org/1999/xlink">
]>
<svg  version="1.1" id="レイヤー_1" xmlns="&ns_svg;" xmlns:xlink="&ns_xlink;" width="354.331" height="212.6"
	 viewBox="0 0 354.331 212.6" overflow="visible" enable-background="new 0 0 354.331 212.6" xml:space="preserve">
<rect fill="none" width="354.331" height="212.6"/>
<g>
	<g>
		<g>
			<path fill="#FFFFFF" d="M260.885,86.113c-3.345,0.1-5.966,0.15-7.866,0.15c-0.38,0-0.703-0.131-0.969-0.394
				s-0.412-0.581-0.438-0.956v-0.449c-0.025-0.35,0.089-0.655,0.342-0.918c0.254-0.262,0.559-0.394,0.912-0.394
				c7.348-0.05,14.352-0.399,21.015-1.049l-0.038-0.038h-23.104c-0.127,0-0.19,0.063-0.19,0.188v6.558
				c0,2.373-0.127,4.483-0.38,6.332c0,0.125,0.051,0.188,0.152,0.188h10.525c0.127,0,0.189-0.063,0.189-0.188v-0.712
				c0-0.125-0.063-0.188-0.189-0.188h-7.638c-0.38,0-0.697-0.125-0.95-0.375c-0.254-0.249-0.38-0.561-0.38-0.936v-4.385
				c0-0.375,0.126-0.693,0.38-0.955c0.253-0.262,0.57-0.394,0.95-0.394h7.638c0.127,0,0.189-0.063,0.189-0.188v-0.712
				C261.036,86.176,260.985,86.113,260.885,86.113z M185.126,76.634c-0.127-0.075-0.253-0.075-0.379,0
				c-2.205,1.749-4.573,3.372-7.106,4.871c-0.076,0.075-0.076,0.112,0,0.112h14.592c0.076,0,0.076-0.037,0-0.112
				C189.699,80.006,187.331,78.383,185.126,76.634z M234.147,128.002h4.67l-2.355-6.938L234.147,128.002z M272.589,98.628h-6.84
				c-0.127,0-0.189,0.063-0.189,0.188v1.648c0,0.125,0.063,0.188,0.189,0.188c0.152,0,0.373-0.013,0.665-0.037
				c0.291-0.024,0.513-0.05,0.665-0.075c0.127,0,0.189-0.063,0.189-0.188c0-0.274,0.096-0.524,0.285-0.749s0.438-0.35,0.741-0.375
				l1.103-0.149c0.379-0.051,0.728,0.031,1.045,0.243c0.316,0.212,0.525,0.493,0.627,0.843c0.075,0.35,0.195,0.862,0.36,1.537
				c0.165,0.674,0.272,1.111,0.323,1.311c0.051,0.125,0.139,0.188,0.266,0.188h0.038c0.354,0,0.563-0.037,0.627-0.112
				s0.095-0.325,0.095-0.749v-3.522C272.778,98.69,272.716,98.628,272.589,98.628z M260.847,89.86h-4.369
				c-0.127,0-0.191,0.063-0.191,0.188v1.462c0,0.125,0.064,0.187,0.191,0.187h4.369c0.127,0,0.189-0.062,0.189-0.187v-1.462
				C261.036,89.923,260.974,89.86,260.847,89.86z M292.649,58.961H58.792c-3.898,0-7.088,3.188-7.088,7.086v75.118
				c0,3.897,3.189,7.087,7.088,7.087h233.857c3.896,0,7.086-3.189,7.086-7.087V66.047C299.735,62.149,296.546,58.961,292.649,58.961
				z M150.918,135.496c0,3.896-3.188,7.086-7.087,7.086H65.879c-3.897,0-7.087-3.189-7.087-7.086V71.717
				c0-3.898,3.189-7.088,7.087-7.088h77.952c3.898,0,7.087,3.189,7.087,7.088V135.496z M198.897,132.934
				c0,0.643-0.133,1.125-0.399,1.446c-0.266,0.321-0.622,0.481-1.069,0.481c-0.419,0-0.764-0.16-1.033-0.48
				c-0.27-0.321-0.404-0.803-0.404-1.445V121.33l-2.509,10.711c-0.163,0.695-0.297,1.206-0.4,1.531
				c-0.103,0.324-0.294,0.621-0.571,0.889s-0.661,0.4-1.152,0.4c-0.37,0-0.684-0.086-0.939-0.258s-0.455-0.392-0.598-0.659
				s-0.255-0.563-0.336-0.889c-0.082-0.325-0.166-0.663-0.251-1.015l-2.509-10.711v11.605c0,0.643-0.133,1.124-0.399,1.445
				c-0.266,0.32-0.619,0.48-1.06,0.48c-0.426,0-0.773-0.158-1.043-0.476s-0.404-0.802-0.404-1.452v-13.311
				c0-0.734,0.178-1.229,0.533-1.486c0.355-0.256,0.835-0.385,1.438-0.385h0.98c0.59,0,1.019,0.059,1.284,0.173
				c0.267,0.114,0.464,0.321,0.592,0.62c0.128,0.298,0.273,0.784,0.438,1.458l2.273,9.218l2.271-9.218
				c0.163-0.674,0.309-1.16,0.438-1.458c0.127-0.299,0.324-0.506,0.592-0.62c0.266-0.114,0.694-0.173,1.284-0.173h0.981
				c0.604,0,1.084,0.129,1.439,0.385c0.355,0.257,0.533,0.752,0.533,1.486V132.934z M201.238,85.664
				c-0.329,0.125-0.671,0.112-1.026-0.037c-1.824-0.824-3.571-1.687-5.243-2.586c-0.102-0.05-0.152-0.012-0.152,0.112v1.05
				c0,0.375-0.127,0.693-0.38,0.955c-0.254,0.263-0.57,0.394-0.95,0.394h-5.776c-0.127,0-0.189,0.063-0.189,0.187v2.848
				c0,0.125,0.063,0.188,0.189,0.188h10.906c0.381,0,0.697,0.132,0.95,0.395c0.253,0.262,0.38,0.58,0.38,0.955v1.273
				c0,0.375-0.127,0.688-0.38,0.938s-0.569,0.374-0.95,0.374H187.71c-0.127,0-0.189,0.063-0.189,0.188v9.18
				c0,0.125,0.063,0.188,0.189,0.188h12.427c0.38,0,0.696,0.132,0.95,0.394c0.252,0.262,0.379,0.58,0.379,0.955v1.387
				c0,0.375-0.127,0.693-0.379,0.955c-0.254,0.262-0.57,0.394-0.95,0.394h-30.4c-0.38,0-0.696-0.132-0.95-0.394
				c-0.253-0.262-0.379-0.58-0.379-0.955v-1.387c0-0.375,0.126-0.693,0.379-0.955c0.254-0.262,0.57-0.394,0.95-0.394h12.427
				c0.126,0,0.189-0.063,0.189-0.188v-9.18c0-0.125-0.063-0.188-0.189-0.188h-10.906c-0.381,0-0.697-0.124-0.95-0.374
				s-0.38-0.563-0.38-0.938v-1.273c0-0.375,0.127-0.693,0.38-0.955c0.253-0.263,0.569-0.395,0.95-0.395h10.906
				c0.126,0,0.189-0.063,0.189-0.188v-2.848c0-0.124-0.063-0.187-0.189-0.187h-5.776c-0.38,0-0.697-0.131-0.95-0.394
				c-0.254-0.262-0.38-0.58-0.38-0.955v-1.05c0-0.124-0.051-0.162-0.152-0.112c-1.672,0.899-3.42,1.762-5.243,2.586
				c-0.355,0.149-0.697,0.162-1.027,0.037c-0.328-0.125-0.569-0.362-0.721-0.712l-0.646-1.424c-0.152-0.35-0.165-0.693-0.038-1.03
				c0.126-0.337,0.367-0.594,0.722-0.769c4.586-2.147,8.829-4.683,12.73-7.606c0.709-0.549,1.52-0.824,2.432-0.824h3.648
				c0.912,0,1.709,0.263,2.394,0.787c3.749,2.822,8.019,5.371,12.806,7.644c0.33,0.175,0.558,0.438,0.685,0.787
				c0.126,0.35,0.114,0.687-0.038,1.012l-0.646,1.424C201.808,85.302,201.567,85.539,201.238,85.664z M196.641,96.117
				c-0.659,1.275-1.546,2.811-2.66,4.609c-0.178,0.324-0.45,0.531-0.817,0.618s-0.715,0.031-1.045-0.169l-1.558-0.898
				c-0.329-0.176-0.538-0.438-0.628-0.787c-0.088-0.35-0.031-0.688,0.172-1.012c0.938-1.523,1.723-2.947,2.355-4.271
				c0.178-0.324,0.443-0.549,0.799-0.674c0.354-0.125,0.696-0.113,1.025,0.037l1.711,0.824c0.328,0.15,0.557,0.394,0.684,0.73
				S196.792,95.793,196.641,96.117z M173.042,95.406c0.076-0.35,0.279-0.612,0.608-0.787l1.673-0.938
				c0.328-0.199,0.677-0.256,1.044-0.168s0.64,0.293,0.817,0.618c0.76,1.175,1.634,2.698,2.622,4.571
				c0.177,0.35,0.202,0.693,0.075,1.03s-0.354,0.593-0.684,0.769l-1.71,0.824c-0.354,0.15-0.703,0.162-1.045,0.037
				s-0.602-0.35-0.778-0.674c-0.761-1.449-1.571-2.873-2.433-4.271C173.03,96.093,172.966,95.756,173.042,95.406z M213.835,134.209
				c-0.252,0.248-0.627,0.371-1.125,0.371h-8.615c-0.69,0-1.188-0.164-1.489-0.493c-0.303-0.329-0.454-0.86-0.454-1.596v-12.649
				c0-0.49,0.067-0.89,0.203-1.199c0.135-0.311,0.347-0.536,0.635-0.678c0.289-0.142,0.657-0.213,1.105-0.213h8.369
				c0.505,0,0.881,0.121,1.126,0.361c0.245,0.241,0.368,0.557,0.368,0.946c0,0.397-0.123,0.716-0.368,0.957
				c-0.245,0.24-0.621,0.36-1.126,0.36h-7.141v4.141h6.575c0.483,0,0.845,0.117,1.083,0.352s0.357,0.543,0.357,0.927
				s-0.117,0.696-0.352,0.938c-0.235,0.242-0.598,0.362-1.089,0.362h-6.575v4.781h7.387c0.498,0,0.873,0.125,1.125,0.373
				c0.253,0.248,0.379,0.578,0.379,0.99C214.214,133.638,214.088,133.961,213.835,134.209z M228.108,120.181
				c-0.271,0.256-0.676,0.384-1.217,0.384h-3.459v12.221c0,0.703-0.146,1.226-0.437,1.566c-0.292,0.34-0.669,0.51-1.13,0.51
				c-0.47,0-0.852-0.172-1.146-0.516c-0.295-0.345-0.443-0.864-0.443-1.561v-12.221h-3.458c-0.541,0-0.942-0.128-1.206-0.384
				c-0.264-0.257-0.395-0.595-0.395-1.017c0-0.436,0.137-0.78,0.41-1.033c0.274-0.252,0.671-0.379,1.19-0.379h10.073
				c0.548,0,0.955,0.131,1.222,0.391c0.267,0.261,0.4,0.602,0.4,1.021C228.514,119.586,228.379,119.924,228.108,120.181z
				 M243.344,134.374c-0.302,0.325-0.667,0.487-1.093,0.487c-0.249,0-0.462-0.047-0.64-0.143s-0.327-0.226-0.448-0.39
				s-0.25-0.416-0.389-0.757c-0.139-0.34-0.258-0.639-0.357-0.898l-0.746-2.109h-6.354l-0.746,2.154
				c-0.292,0.841-0.541,1.408-0.747,1.702s-0.543,0.44-1.013,0.44c-0.397,0-0.749-0.156-1.056-0.47
				c-0.305-0.313-0.458-0.669-0.458-1.067c0-0.229,0.035-0.466,0.106-0.711c0.071-0.244,0.188-0.585,0.352-1.021l3.998-10.921
				c0.114-0.313,0.251-0.69,0.411-1.13c0.159-0.44,0.33-0.806,0.512-1.096c0.181-0.29,0.419-0.526,0.714-0.706s0.66-0.27,1.094-0.27
				c0.44,0,0.809,0.09,1.104,0.27s0.532,0.412,0.714,0.694c0.181,0.283,0.334,0.587,0.458,0.912
				c0.125,0.325,0.283,0.759,0.475,1.302l4.084,10.853c0.319,0.825,0.479,1.426,0.479,1.801
				C243.797,133.691,243.646,134.049,243.344,134.374z M256.831,134.196c-0.271,0.257-0.666,0.384-1.185,0.384h-7.654
				c-0.69,0-1.187-0.164-1.489-0.493s-0.454-0.86-0.454-1.595v-12.955c0-0.689,0.144-1.205,0.433-1.55
				c0.288-0.344,0.667-0.517,1.137-0.517c0.478,0,0.863,0.171,1.159,0.512c0.296,0.34,0.443,0.858,0.443,1.555v12.246h6.426
				c0.512,0,0.905,0.135,1.179,0.402c0.274,0.268,0.411,0.604,0.411,1.008C257.236,133.606,257.102,133.94,256.831,134.196z
				 M277.452,102.563c0,1.973-0.209,3.197-0.627,3.672s-1.5,0.712-3.248,0.712c-0.152,0-0.361-0.007-0.627-0.019
				c-0.267-0.014-0.641-0.031-1.121-0.057c-0.482-0.025-0.925-0.05-1.33-0.074c-0.381-0.025-0.71-0.17-0.988-0.432
				c-0.279-0.262-0.431-0.58-0.456-0.955v-0.412c0-0.1-0.063-0.176-0.19-0.225c-0.404-0.15-0.671-0.463-0.797-0.938
				c-0.051-0.1-0.127-0.149-0.229-0.149c-3.775,0.425-7.397,0.712-10.868,0.862c-0.38,0.023-0.703-0.095-0.969-0.356
				c-0.267-0.263-0.411-0.568-0.437-0.918l-0.039-0.787c-0.025-0.35,0.082-0.655,0.323-0.918s0.538-0.405,0.894-0.431
				c1.874-0.05,3.255-0.1,4.142-0.15c0.101,0,0.151-0.063,0.151-0.188v-1.985c0-0.125-0.063-0.188-0.189-0.188h-5.928
				c-0.127,0-0.189,0.063-0.189,0.188v6.856c0,0.375-0.134,0.688-0.4,0.938c-0.266,0.25-0.588,0.375-0.969,0.375h-1.938
				c-0.38,0-0.697-0.125-0.95-0.375s-0.38-0.563-0.38-0.938V95.78h-0.038c-0.558,3.847-1.647,7.194-3.269,10.042
				c-0.151,0.274-0.393,0.424-0.721,0.449c-0.33,0.025-0.596-0.088-0.799-0.337l-1.748-2.062c-0.557-0.674-0.646-1.423-0.266-2.248
				c0.887-1.998,1.533-4.246,1.938-6.744c0.406-2.498,0.608-5.645,0.608-9.441V75.21c0-0.374,0.126-0.687,0.38-0.937
				s0.57-0.375,0.95-0.375h28.157c0.381,0,0.697,0.125,0.951,0.375c0.252,0.25,0.379,0.563,0.379,0.937v5.995
				c0,0.25-0.082,0.457-0.246,0.619c-0.165,0.162-0.374,0.242-0.627,0.242c-0.051,0-0.076,0.038-0.076,0.113l0.266,1.648
				c0.051,0.35-0.038,0.668-0.266,0.955c-0.229,0.287-0.52,0.456-0.874,0.506c-2.711,0.275-5.662,0.487-8.854,0.637
				c-0.127,0-0.189,0.063-0.189,0.188v0.899c0,0.125,0.063,0.188,0.189,0.188h8.284c0.38,0,0.696,0.132,0.95,0.394
				c0.253,0.262,0.38,0.58,0.38,0.955v4.385c0,0.375-0.127,0.687-0.38,0.936c-0.254,0.25-0.57,0.375-0.95,0.375h-8.284
				c-0.127,0-0.189,0.063-0.189,0.188v0.712c0,0.125,0.063,0.188,0.189,0.188h10.185c0.38,0,0.696,0.125,0.95,0.374
				c0.252,0.25,0.379,0.563,0.379,0.938V102.563z M250.739,78.92h20.709c0.127,0,0.19-0.063,0.19-0.188v-1.087
				c0-0.124-0.063-0.187-0.19-0.187h-20.709c-0.127,0-0.19,0.063-0.19,0.187v1.087C250.549,78.857,250.612,78.92,250.739,78.92z
				 M265.749,91.51c0,0.125,0.063,0.187,0.189,0.187h4.598c0.127,0,0.191-0.062,0.191-0.187v-1.462c0-0.125-0.064-0.188-0.191-0.188
				h-4.598c-0.127,0-0.189,0.063-0.189,0.188V91.51z"/>
		</g>
	</g>
	<g>
		<polyline fill="none" stroke="#FFFFFF" stroke-width="2" stroke-linecap="round" stroke-linejoin="round" points="83.492,110.654 
			127.206,110.654 127.206,125.953 		"/>
		<path fill="none" stroke="#FFFFFF" stroke-width="2" stroke-linecap="round" stroke-linejoin="round" d="M83.492,125.953"/>
		
			<rect x="66.735" y="120.854" fill="none" stroke="#FFFFFF" stroke-width="2" stroke-linecap="round" stroke-linejoin="round" width="43.714" height="15.301"/>
		<polygon fill="none" stroke="#FFFFFF" stroke-width="2" stroke-linecap="round" stroke-linejoin="round" points="66.735,120.854 
			83.492,110.654 127.206,110.654 110.449,120.854 		"/>
		<polygon fill="none" stroke="#FFFFFF" stroke-width="2" stroke-linecap="round" stroke-linejoin="round" points="110.449,136.154 
			127.206,125.953 127.206,110.654 110.449,120.854 		"/>
		
			<rect x="86.411" y="123.072" fill="none" stroke="#FFFFFF" stroke-width="2" stroke-linecap="round" stroke-linejoin="round" width="20.393" height="9.01"/>
		
			<circle fill="none" stroke="#FFFFFF" stroke-width="2" stroke-linecap="round" stroke-linejoin="round" cx="71.099" cy="125.713" r="2.643"/>
		
			<circle fill="none" stroke="#FFFFFF" stroke-width="2" stroke-linecap="round" stroke-linejoin="round" cx="79.093" cy="125.713" r="2.643"/>
	</g>
	<g>
		
			<ellipse transform="matrix(0.9856 0.1689 -0.1689 0.9856 16.4706 -13.4201)" fill="none" stroke="#FFFFFF" stroke-width="2" stroke-linecap="round" stroke-linejoin="round" cx="87.126" cy="90.113" rx="12.201" ry="4.247"/>
		<path fill="none" stroke="#FFFFFF" stroke-width="2" stroke-linecap="round" stroke-linejoin="round" d="M95.368,102.346
			c-0.277,1.623-5,2.168-10.547,1.219c-5.547-0.951-9.818-3.037-9.54-4.661"/>
		
			<line fill="none" stroke="#FFFFFF" stroke-width="2" stroke-linecap="round" stroke-linejoin="round" x1="75.101" y1="88.053" x2="75.281" y2="98.903"/>
		
			<line fill="none" stroke="#FFFFFF" stroke-width="2" stroke-linecap="round" stroke-linejoin="round" x1="99.151" y1="92.174" x2="95.368" y2="102.346"/>
		
			<ellipse transform="matrix(0.9857 0.1687 -0.1687 0.9857 16.0211 -13.506)" fill="none" stroke="#FFFFFF" stroke-width="2" stroke-linecap="round" stroke-linejoin="round" cx="87.479" cy="87.515" rx="1.898" ry="0.904"/>
		<path fill="none" stroke="#FFFFFF" stroke-width="2" stroke-linecap="round" stroke-linejoin="round" d="M75.484,87.471
			c-0.316,0.625-1.077,0.873-1.701,0.558l-11.933-6.044c-0.623-0.315-0.872-1.076-0.556-1.7l0,0c0.315-0.624,1.077-0.872,1.7-0.558
			l11.932,6.045C75.55,86.087,75.8,86.848,75.484,87.471L75.484,87.471z"/>
	</g>
	<g>
		
			<ellipse transform="matrix(0.9321 -0.3623 0.3623 0.9321 -20.9634 51.067)" fill="none" stroke="#FFFFFF" stroke-width="2.5" cx="125.681" cy="81.429" rx="10.333" ry="3.833"/>
		<path fill="none" stroke="#FFFFFF" stroke-width="2.5" d="M143.524,98.813c0.767,1.974-2.924,5.25-8.242,7.316
			c-5.32,2.068-10.254,2.145-11.021,0.171"/>
		<line fill="none" stroke="#FFFFFF" stroke-width="2.5" x1="116.05" y1="85.173" x2="124.563" y2="107.076"/>
		<line fill="none" stroke="#FFFFFF" stroke-width="2.5" x1="135.312" y1="77.686" x2="143.584" y2="98.969"/>
	</g>
	<g>
		<g id="XMLID_1_">
			<g>
				<path fill="#FFFFFF" d="M125.646,72.533l2.517,6.473l-5.9,2.294l-2.516-6.474c0.235,0.605,1.744,0.583,3.375-0.052
					C124.754,74.141,125.882,73.139,125.646,72.533z"/>
				<path fill="#FFFFFF" d="M122.263,81.3l5.9-2.294c0.235,0.606-0.894,1.608-2.524,2.242
					C124.007,81.882,122.498,81.905,122.263,81.3z"/>
				
					<ellipse transform="matrix(-0.362 -0.9322 0.9322 -0.362 98.4286 214.7259)" fill="#FFFFFF" cx="122.697" cy="73.679" rx="1.175" ry="3.165"/>
			</g>
			<g>
				
					<ellipse transform="matrix(0.9321 -0.3623 0.3623 0.9321 -18.3577 49.4549)" fill="none" stroke="#FFFFFF" stroke-width="2.5" cx="122.697" cy="73.68" rx="3.165" ry="1.174"/>
				<path fill="none" stroke="#FFFFFF" stroke-width="2.5" d="M128.163,79.006c0.235,0.606-0.894,1.608-2.524,2.242
					c-1.632,0.634-3.141,0.657-3.376,0.052"/>
				<polyline fill="none" stroke="#FFFFFF" stroke-width="2.5" points="119.747,74.826 122.263,81.3 122.355,81.537 				"/>
				<polyline fill="none" stroke="#FFFFFF" stroke-width="2.5" points="125.646,72.533 128.163,79.006 128.181,79.053 				"/>
			</g>
		</g>
	</g>
</g>
</svg>
