<?xml version="1.0" encoding="utf-8"?>
<!-- Generator: Adobe Illustrator 12.0.0, SVG Export Plug-In . SVG Version: 6.00 Build 51448)  -->
<!DOCTYPE svg PUBLIC "-//W3C//DTD SVG 1.1//EN" "http://www.w3.org/Graphics/SVG/1.1/DTD/svg11.dtd" [
	<!ENTITY ns_svg "http://www.w3.org/2000/svg">
	<!ENTITY ns_xlink "http://www.w3.org/1999/xlink">
]>
<svg  version="1.1" id="レイヤー_1" xmlns="&ns_svg;" xmlns:xlink="&ns_xlink;" width="708.661" height="425.197"
	 viewBox="0 0 708.661 425.197" overflow="visible" enable-background="new 0 0 708.661 425.197" xml:space="preserve">
<rect fill="none" width="708.661" height="425.197"/>
<g>
	<g>
		<g>
			<path fill="#FFFFFF" d="M265.827,190.031c0.004-0.438-0.021-0.86-0.096-1.258C265.731,188.773,265.768,189.239,265.827,190.031z
				 M267.581,216.511c0-3.191-1.376-21.507-1.754-26.48c-0.071,7.69-11.652,20.934-11.652,20.934l-1.85-12.482
				c-0.925-17.105-20.805-29.127-20.805-29.127c-6.01-3.699-11.096-19.416-11.096-19.416c-6.473,10.633-3.235,30.512-3.235,30.512
				c-3.237,5.549-5.087,6.01-5.087,6.01c-7.396-29.588-37.447-40.221-37.447-40.221c5.085,12.02-1.387,49.006-1.387,49.006
				c-8.784-11.096-32.361-16.645-32.361-16.645c8.321,6.01,10.632,24.965,10.632,24.965c0.462,13.871,3.236,15.719,3.236,15.719
				l4.162,8.783l-22.192-16.643c5.085,10.635,6.935,36.061,6.935,36.061c4.624,32.363,43.457,36.061,43.457,36.061
				c4.636,0.826,9.049,1.275,13.253,1.437c-1.484-0.17-2.989-0.373-4.538-0.649c0,0-28.705-2.734-32.123-26.656
				c0,0-1.366-18.795-5.125-26.654l16.403,12.303l-3.077-6.494c0,0-2.05-1.367-2.392-11.619c0,0-1.707-14.012-7.858-18.455
				c0,0,17.428,4.102,23.922,12.305c0,0,4.783-27.34,1.024-36.225c0,0,22.214,7.859,27.681,29.732c0,0,1.368-0.344,3.759-4.445
				c0,0-2.391-14.693,2.394-22.553c0,0,3.759,11.615,8.201,14.354c0,0,14.694,8.885,15.379,21.527l1.365,9.229
				c0,0,8.563-9.791,8.616-15.476c-0.045-0.585-0.071-0.929-0.071-0.929c0.055,0.294,0.074,0.606,0.071,0.929
				c0.279,3.676,1.297,17.218,1.297,19.573c0,0,4.783,23.24-6.494,34.518c0,0-3.835,4.389-11.254,8.591
				c13.975-6.372,21.228-14.681,21.228-14.681C274.053,247.949,267.581,216.511,267.581,216.511z"/>
		</g>
	</g>
	<path fill="#FFFFFF" d="M197.543,210.609c0,0,15.993,5.658,19.93,21.408c0,0,0.984-0.248,2.706-3.199c0,0-1.722-10.58,1.724-16.24
		c0,0,2.707,8.365,5.905,10.334c0,0,10.58,6.398,11.072,15.502l0.984,6.645c0,0,6.89-7.875,6.151-11.811
		c0,0,0.984,12.795,0.984,14.762c0,0,3.444,16.732-4.674,24.854c0,0-13.288,15.256-38.14,10.826c0,0-20.67-1.969-23.13-19.195
		c0,0-0.983-13.531-3.69-19.189l11.811,8.857l-2.215-4.676c0,0-1.476-0.984-1.722-8.365c0,0-1.23-10.09-5.659-13.287
		c0,0,12.548,2.951,17.223,8.857C196.804,236.691,200.249,217.005,197.543,210.609z"/>
	<g>
		<g>
			<path fill="#FFFFFF" d="M428.085,259.611h-4.424v9.813h4.566c2.872,0,4.309-1.658,4.309-4.977c0-1.695-0.373-2.926-1.117-3.689
				C430.675,259.992,429.563,259.611,428.085,259.611z M322.581,254.251c0.578-0.322,1.02-0.936,1.324-1.84
				c0.24-0.645,0.361-1.365,0.361-2.162c0-1.703-0.377-2.834-1.131-3.393c-0.755-0.561-1.905-0.84-3.451-0.84h-3.451v8.719h3.894
				C321.187,254.736,322.005,254.574,322.581,254.251z M320.657,259.611h-4.424v9.813h4.566c2.872,0,4.309-1.658,4.309-4.977
				c0-1.695-0.373-2.926-1.117-3.689C323.247,259.992,322.136,259.611,320.657,259.611z M430.009,254.251
				c0.578-0.322,1.02-0.936,1.324-1.84c0.24-0.645,0.361-1.365,0.361-2.162c0-1.703-0.377-2.834-1.131-3.393
				c-0.755-0.561-1.905-0.84-3.451-0.84h-3.451v8.719h3.894C428.614,254.736,429.433,254.574,430.009,254.251z M354.334,165.099
				c-1.119-3.697-1.975-6.42-2.564-8.168c-0.031-0.049-0.062-0.074-0.093-0.074s-0.047,0.025-0.047,0.074v6.52
				c0,0.15,0.008,0.4,0.023,0.75s0.023,0.625,0.023,0.824s0.077,0.299,0.232,0.299h2.285
				C354.35,165.324,354.396,165.25,354.334,165.099z M403.476,261.392h6.24l-3.148-13.875L403.476,261.392z M367.973,250.583
				c0-0.934-0.147-1.756-0.444-2.467c-0.295-0.711-0.706-1.244-1.23-1.596c-0.496-0.336-1.475-0.504-2.935-0.504h-3.922v9.25h3.808
				c1.021,0,1.88-0.143,2.576-0.426c0.697-0.283,1.229-0.764,1.596-1.445S367.973,251.777,367.973,250.583z M335.404,165.324
				c-0.156,0-0.265,0.125-0.327,0.375s-0.155,0.574-0.279,0.975c-0.031,0.199,0,0.4,0.094,0.6c0.342,0.5,0.831,1.223,1.469,2.172
				c0.637,0.949,1.064,1.574,1.282,1.875c0.124,0.199,0.217,0.174,0.279-0.076c0.56-2.396,0.933-4.221,1.119-5.471
				c0.063-0.299,0-0.449-0.187-0.449H335.404z M332.747,173.867c-0.031-0.1-0.086-0.15-0.164-0.15s-0.132,0.051-0.162,0.15
				c-0.343,1-0.747,2.023-1.213,3.072c-0.094,0.25-0.078,0.477,0.047,0.676c1.803,2.598,2.766,3.996,2.891,4.195
				c0.093,0.201,0.201,0.201,0.326,0c0.279-0.648,0.668-1.674,1.166-3.072c0.093-0.25,0.077-0.475-0.047-0.674
				C334.907,177.015,333.959,175.617,332.747,173.867z M517.335,261.392h6.24l-3.148-13.875L517.335,261.392z M588.188,123.308
				H120.473c-7.795,0-14.174,6.377-14.174,14.174v150.234c0,7.797,6.379,14.174,14.174,14.174h467.715
				c7.795,0,14.174-6.377,14.174-14.174V137.482C602.361,129.685,595.982,123.308,588.188,123.308z M553.767,158.88
				c0.03-0.75,0.209-1.373,0.535-1.873s0.723-0.725,1.189-0.676c9.854,0.699,19.474,2.049,28.861,4.047
				c0.466,0.1,0.839,0.438,1.118,1.012s0.404,1.236,0.373,1.986l-0.326,4.42c-0.063,0.699-0.265,1.287-0.606,1.762
				s-0.73,0.662-1.165,0.563c-9.979-2.098-19.505-3.447-28.581-4.047c-0.467-0.051-0.855-0.35-1.166-0.9
				c-0.311-0.549-0.45-1.174-0.419-1.873L553.767,158.88z M583,184.658l-0.373,4.646c-0.063,0.699-0.279,1.262-0.652,1.686
				c-0.373,0.426-0.777,0.588-1.213,0.488c-7.709-2.049-15.557-3.422-23.545-4.123c-0.436-0.049-0.81-0.35-1.12-0.898
				s-0.45-1.174-0.419-1.873l0.187-4.646c0.062-0.75,0.256-1.373,0.582-1.873s0.723-0.725,1.189-0.676
				c8.112,0.65,16.085,2.049,23.919,4.197c0.466,0.1,0.839,0.449,1.119,1.049C582.953,183.234,583.063,183.91,583,184.658z
				 M538.297,152.96c0.14-0.699,0.412-1.225,0.816-1.574l1.492-1.199c0.435-0.35,0.869-0.412,1.305-0.188s0.762,0.662,0.979,1.311
				l2.099,6.52c0.217,0.701,0.256,1.375,0.116,2.025c-0.141,0.648-0.428,1.148-0.862,1.498l-1.492,1.199
				c-0.436,0.35-0.87,0.398-1.306,0.148s-0.762-0.725-0.979-1.424c-0.436-1.398-1.119-3.496-2.051-6.295
				C538.196,154.333,538.157,153.66,538.297,152.96z M504.098,206.615c0-0.75,0.155-1.387,0.466-1.91
				c0.311-0.525,0.699-0.787,1.166-0.787h24.712c0.154,0,0.232-0.125,0.232-0.375V170.57c0-0.25-0.078-0.375-0.232-0.375h-24.712
				c-0.467,0-0.855-0.248-1.166-0.748s-0.466-1.125-0.466-1.875V163.9c0-0.748,0.155-1.385,0.466-1.91s0.699-0.787,1.166-0.787
				h27.183c0.155,0,0.202-0.1,0.14-0.301c-0.342-1.098-0.886-2.746-1.632-4.945c-0.218-0.648-0.257-1.311-0.116-1.986
				c0.14-0.674,0.411-1.186,0.815-1.535l1.399-1.125c0.403-0.35,0.822-0.424,1.258-0.225c0.436,0.201,0.762,0.625,0.979,1.275
				c0.933,2.797,1.616,4.92,2.052,6.369c0.217,0.65,0.248,1.324,0.093,2.023s-0.435,1.199-0.839,1.498l-0.187,0.15
				c-0.156,0.1-0.202,0.25-0.14,0.449c0.093,0.301,0.14,0.65,0.14,1.049v46.387c0,0.75-0.156,1.373-0.467,1.873
				s-0.699,0.75-1.165,0.75h-29.514c-0.467,0-0.855-0.25-1.166-0.75s-0.466-1.123-0.466-1.873V206.615z M361.993,179.9
				c0.187-0.674,0.481-1.137,0.886-1.387c0.466-0.299,2.983-1.873,7.554-4.721c0.155-0.1,0.202-0.275,0.14-0.525
				c-0.653-3.496-1.431-7.494-2.331-11.99c-0.156-0.699-0.125-1.359,0.093-1.984s0.544-1.037,0.979-1.238l2.751-1.348
				c0.435-0.25,0.861-0.199,1.281,0.15s0.691,0.873,0.816,1.572c0.279,1.4,0.66,3.387,1.143,5.959
				c0.481,2.572,0.831,4.383,1.049,5.432c0.063,0.25,0.171,0.326,0.327,0.225c1.803-1.049,3.792-2.146,5.968-3.297
				c0.186-0.1,0.248-0.299,0.187-0.6c-0.529-2.848-1.042-5.619-1.539-8.318c-0.125-0.699-0.078-1.359,0.14-1.984
				s0.544-1.037,0.979-1.236l2.704-1.199c0.436-0.199,0.854-0.113,1.259,0.262s0.668,0.912,0.793,1.611
				c0.031,0.25,0.226,1.424,0.583,3.521c0.357,2.1,0.645,3.723,0.862,4.871c0.063,0.301,0.187,0.4,0.373,0.301
				c1.678-0.5,3.139-0.75,4.383-0.75c3.201,0,5.789,1.574,7.763,4.721c1.974,3.148,2.961,7.32,2.961,12.516
				c0,5.795-1.065,10.328-3.194,13.6c-2.129,3.273-4.996,4.908-8.602,4.908c-1.368,0-2.876-0.199-4.522-0.6
				c-0.467-0.1-0.833-0.449-1.097-1.049s-0.365-1.273-0.303-2.023l0.187-3.596c0.063-0.699,0.272-1.273,0.63-1.725
				c0.357-0.449,0.753-0.623,1.188-0.523c1.306,0.25,2.409,0.375,3.311,0.375c1.865,0,3.364-0.799,4.499-2.398
				s1.702-3.748,1.702-6.445c0-2.797-0.467-4.959-1.399-6.482s-2.284-2.285-4.056-2.285c-0.404,0-1.073,0.125-2.005,0.375
				c-0.156,0.1-0.218,0.25-0.187,0.449c0.063,0.4,0.404,2.498,1.025,6.295c0.124,0.699,0.069,1.361-0.163,1.986
				c-0.233,0.625-0.567,1.061-1.002,1.311l-2.425,1.125c-0.436,0.199-0.854,0.125-1.259-0.225s-0.669-0.875-0.793-1.574
				c-0.155-0.799-0.357-1.973-0.605-3.521c-0.249-1.549-0.404-2.473-0.467-2.773c-0.063-0.299-0.171-0.4-0.326-0.301
				c-1.306,0.701-3.279,1.824-5.921,3.373c-0.156,0.1-0.203,0.275-0.141,0.525c2.051,10.941,4.025,22.307,5.922,34.096
				c0.124,0.699,0.069,1.35-0.163,1.949c-0.233,0.6-0.567,0.998-1.003,1.199l-2.844,1.123c-0.436,0.199-0.855,0.088-1.26-0.336
				c-0.404-0.426-0.668-0.988-0.792-1.688c-1.771-11.141-3.652-22.08-5.642-32.822c-0.063-0.25-0.155-0.35-0.279-0.301
				c-2.146,1.35-4.523,2.85-7.134,4.498c-0.436,0.25-0.863,0.225-1.283-0.076c-0.42-0.299-0.707-0.773-0.861-1.424l-0.887-3.521
				C361.791,181.261,361.807,180.574,361.993,179.9z M314.283,185.033c0.559-6.244,0.854-12.84,0.886-19.783
				c0-0.699,0.171-1.299,0.513-1.799s0.73-0.699,1.166-0.6l0.652,0.15c0.467,0.1,0.855,0.412,1.166,0.938
				c0.311,0.523,0.466,1.16,0.466,1.91c-0.031,7.645-0.373,14.787-1.025,21.432c-0.063,0.65-0.279,1.162-0.652,1.537
				s-0.762,0.436-1.166,0.186l-0.699-0.449c-0.436-0.25-0.777-0.711-1.025-1.387C314.314,186.494,314.221,185.783,314.283,185.033z
				 M304.726,276.378c0,7.795-6.377,14.174-14.173,14.174H134.647c-7.796,0-14.173-6.379-14.173-14.174V148.82
				c0-7.795,6.377-14.174,14.173-14.174h155.905c7.796,0,14.173,6.379,14.173,14.174V276.378z M328.493,270.039
				c-0.598,1.506-1.402,2.619-2.418,3.338c-0.637,0.428-1.37,0.73-2.198,0.906c-0.828,0.178-1.794,0.266-2.897,0.266h-6.396
				c-0.923,0-1.582-0.334-1.978-1c-0.395-0.666-0.592-1.725-0.592-3.18V245.07c0-1.484,0.202-2.553,0.606-3.203
				s1.06-0.975,1.964-0.975h6.78c0.999,0,1.865,0.1,2.599,0.299c0.732,0.199,1.389,0.582,1.97,1.148
				c0.493,0.475,0.929,1.076,1.309,1.805c0.379,0.727,0.668,1.531,0.867,2.412s0.299,1.813,0.299,2.793
				c0,3.371-1.043,5.838-3.129,7.4c2.74,1.406,4.11,4.143,4.11,8.209C329.39,266.839,329.091,268.533,328.493,270.039z
				 M350.683,260.636c0,2.631-0.158,4.826-0.477,6.586c-0.316,1.76-0.916,3.305-1.797,4.635c-0.762,1.131-1.646,1.955-2.655,2.475
				s-2.189,0.779-3.541,0.779c-1.608,0-2.994-0.279-4.155-0.838s-2.108-1.422-2.842-2.592c-0.732-1.17-1.271-2.67-1.613-4.498
				s-0.514-4.012-0.514-6.551v-16.174c0-1.377,0.191-2.408,0.575-3.098c0.384-0.688,0.888-1.031,1.513-1.031
				c0.653,0,1.172,0.344,1.556,1.031c0.384,0.689,0.575,1.723,0.575,3.1v16.545c0,1.883,0.131,3.455,0.395,4.717
				c0.262,1.262,0.728,2.242,1.396,2.938c0.668,0.697,1.604,1.045,2.809,1.045c1.662,0,2.837-0.709,3.525-2.123
				c0.688-1.416,1.031-3.561,1.031-6.438V244.46c0-1.393,0.189-2.43,0.568-3.109c0.379-0.682,0.885-1.021,1.52-1.021
				s1.148,0.34,1.541,1.02c0.393,0.682,0.59,1.719,0.59,3.109V260.636z M335.777,202.38c0.279-0.574,0.637-0.912,1.072-1.012
				l1.912-0.449c0.466-0.1,0.878,0.063,1.235,0.486c0.357,0.426,0.566,1.012,0.629,1.762c0.436,4.547,0.762,8.844,0.979,12.889
				c0.063,0.75-0.047,1.424-0.326,2.023c-0.28,0.6-0.653,0.949-1.119,1.049l-2.052,0.451c-0.436,0.1-0.831-0.076-1.188-0.525
				s-0.552-1.023-0.583-1.723c-0.187-4.396-0.481-8.742-0.886-13.039C335.389,203.593,335.497,202.955,335.777,202.38z
				 M343.145,202.417c0.248-0.6,0.59-0.973,1.025-1.123l1.958-0.6c0.436-0.15,0.847-0.025,1.235,0.375s0.645,0.949,0.77,1.648
				c0.59,3.746,1.181,8.068,1.772,12.963c0.093,0.699,0.007,1.35-0.257,1.949c-0.265,0.6-0.614,0.975-1.049,1.125l-2.099,0.6
				c-0.436,0.148-0.839-0.002-1.212-0.451s-0.591-1.023-0.653-1.723c-0.497-4.496-1.057-8.768-1.678-12.814
				C342.833,203.667,342.896,203.017,343.145,202.417z M353.751,218.755c-0.389-0.301-0.645-0.801-0.769-1.5
				c-0.995-5.994-1.881-10.641-2.658-13.938c-0.156-0.65-0.141-1.299,0.046-1.949c0.187-0.648,0.498-1.074,0.934-1.273l2.751-1.199
				c0.124-0.1,0.14-0.225,0.046-0.375c-2.27-4.096-4.041-8.691-5.314-13.789c-0.063-0.148-0.125-0.123-0.187,0.076
				c-1.71,5.695-3.777,10.367-6.201,14.014c-0.373,0.5-0.777,0.725-1.213,0.674c-0.436-0.049-0.823-0.35-1.165-0.898l-1.818-2.848
				c-0.312-0.549-0.451-1.174-0.42-1.873s0.218-1.299,0.56-1.799c3.637-5.246,5.952-11.291,6.947-18.137
				c0.062-0.248-0.001-0.373-0.187-0.373h-1.912c-0.155,0-0.264,0.125-0.326,0.373c-2.643,10.893-6.559,19.66-11.749,26.305
				c-0.125,0.1-0.109,0.225,0.046,0.375l1.912,1.123c0.435,0.25,0.761,0.713,0.979,1.387s0.265,1.361,0.141,2.061
				c-0.809,4.396-1.804,8.592-2.984,12.59c-0.187,0.648-0.505,1.098-0.956,1.35c-0.451,0.248-0.878,0.223-1.282-0.076l-2.098-1.498
				c-0.404-0.301-0.685-0.801-0.84-1.5s-0.124-1.373,0.094-2.023c1.119-3.797,2.129-7.793,3.03-11.99
				c0.063-0.248,0.047-0.473-0.046-0.674l-1.539-4.795c-0.467-1.549-0.28-2.822,0.56-3.822c0.994-1.248,2.066-2.848,3.217-4.797
				c0.094-0.148,0.094-0.299,0-0.449c-0.56-0.799-1.43-2.098-2.61-3.896c-0.342-0.5-0.536-1.123-0.583-1.873
				s0.085-1.398,0.396-1.949l1.398-2.697c0.124-0.199,0.14-0.4,0.047-0.6l-1.119-2.998c-0.063-0.199-0.125-0.199-0.187,0
				c-0.622,3.598-1.353,7.096-2.191,10.492c-0.125,0.5-0.335,0.85-0.63,1.049s-0.583,0.176-0.862-0.074
				c-0.063-0.051-0.124-0.025-0.187,0.074c-0.094,1.549-0.265,3.572-0.513,6.07c-0.063,0.25-0.031,0.5,0.094,0.748
				c1.43,3.797,2.657,7.195,3.683,10.191c0.528,1.549,0.389,2.898-0.419,4.047l-1.353,1.875c-0.311,0.449-0.668,0.623-1.072,0.523
				s-0.716-0.449-0.933-1.049c-0.684-1.998-1.197-3.473-1.539-4.422c-0.031-0.049-0.069-0.074-0.116-0.074s-0.085,0.051-0.116,0.15
				c-1.119,5.545-2.55,10.189-4.29,13.938c-0.249,0.549-0.591,0.813-1.025,0.787c-0.436-0.025-0.777-0.313-1.025-0.861l-1.399-3.072
				c-0.622-1.398-0.606-2.822,0.047-4.271c1.834-4.246,3.178-9.518,4.033-15.813c0.854-6.295,1.282-14.412,1.282-24.355v-14.313
				c0-0.748,0.163-1.373,0.489-1.873s0.723-0.75,1.189-0.75h1.818c0.466,0,0.854,0.25,1.165,0.75s0.467,1.125,0.467,1.873v14.313
				v1.051c0,0.049,0.015,0.074,0.046,0.074s0.047-0.025,0.047-0.074c0.311-1.799,0.699-4.322,1.166-7.57
				c0.093-0.699,0.334-1.248,0.723-1.648c0.389-0.398,0.8-0.498,1.235-0.299l0.326,0.15c0.466,0.199,0.839,0.699,1.119,1.498
				c0.063,0.199,0.124,0.176,0.187-0.074c0.932-2.748,1.662-5.521,2.191-8.318c0.155-0.699,0.435-1.273,0.839-1.725
				c0.404-0.449,0.839-0.623,1.306-0.523l1.726,0.375c0.435,0.049,0.784,0.373,1.049,0.973c0.264,0.6,0.334,1.25,0.21,1.949
				c-0.188,1.1-0.343,1.924-0.467,2.473c-0.063,0.25-0.016,0.375,0.141,0.375h5.781c0.466,0,0.862,0.25,1.188,0.75
				s0.49,1.123,0.49,1.873v4.195c0,0.25,0.077,0.375,0.232,0.375h0.84c0.155,0,0.233-0.125,0.233-0.375V164.5v-8.992
				c0-0.75,0.155-1.373,0.466-1.873s0.699-0.75,1.166-0.75h3.59c0.342,0,0.513,0.275,0.513,0.824c0,0.051,0.031,0.076,0.094,0.076
				l1.165-1.125c0.404-0.35,0.831-0.424,1.282-0.225c0.45,0.199,0.784,0.625,1.003,1.273c0.684,1.998,1.367,4.172,2.051,6.52
				c0.218,0.699,0.249,1.4,0.094,2.1c-0.156,0.699-0.436,1.248-0.84,1.648l-1.259,1.197c-0.063,0.102-0.047,0.15,0.047,0.15h0.933
				c0.466,0,0.862,0.264,1.188,0.787c0.326,0.525,0.49,1.162,0.49,1.91v2.924c0,0.75-0.164,1.373-0.49,1.873s-0.723,0.75-1.188,0.75
				h-3.776c-0.125,0-0.187,0.125-0.187,0.373c0.808,6.396,2.595,12.066,5.361,17.012c0.342,0.551,0.528,1.213,0.56,1.986
				s-0.094,1.461-0.373,2.061l-2.331,5.096c-0.125,0.199-0.155,0.424-0.093,0.674c1.057,4.646,1.942,9.094,2.657,13.34
				c0.124,0.748,0.077,1.461-0.14,2.135c-0.218,0.674-0.544,1.137-0.979,1.387l-1.958,1.199
				C354.536,219.08,354.14,219.054,353.751,218.755z M372.361,273.699c-0.176,0.436-0.416,0.781-0.72,1.033
				c-0.305,0.252-0.656,0.379-1.055,0.379c-0.476,0-0.875-0.182-1.197-0.541c-0.324-0.359-0.602-0.814-0.834-1.365
				s-0.549-1.361-0.947-2.434l-1.697-4.545c-0.61-1.668-1.156-2.939-1.639-3.813c-0.482-0.871-0.971-1.469-1.467-1.789
				c-0.496-0.322-1.121-0.482-1.875-0.482h-1.489v10.813c0,1.424-0.194,2.473-0.583,3.145c-0.388,0.674-0.895,1.012-1.52,1.012
				c-0.672,0-1.193-0.354-1.563-1.057s-0.554-1.736-0.554-3.098v-25.889c0-1.469,0.204-2.531,0.614-3.189
				c0.408-0.658,1.07-0.986,1.983-0.986h6.895c0.951,0,1.765,0.064,2.44,0.195c0.676,0.129,1.285,0.395,1.827,0.793
				c0.654,0.443,1.232,1.078,1.735,1.904c0.502,0.826,0.885,1.785,1.145,2.879c0.262,1.094,0.392,2.252,0.392,3.477
				c0,2.508-0.438,4.512-1.316,6.01c-0.878,1.5-2.208,2.563-3.992,3.189c0.749,0.643,1.466,1.592,2.149,2.848
				c0.684,1.254,1.293,2.59,1.829,4.006s0.954,2.693,1.253,3.832c0.299,1.141,0.448,1.926,0.448,2.354
				C372.625,272.822,372.537,273.263,372.361,273.699z M393.828,270.683c0,2.951-0.763,4.428-2.286,4.428
				c-0.381,0-0.725-0.088-1.029-0.264s-0.59-0.455-0.856-0.838c-0.267-0.381-0.515-0.828-0.743-1.342
				c-0.229-0.512-0.457-1.035-0.686-1.57l-7.931-19.58v19.695c0,1.283-0.187,2.254-0.558,2.912
				c-0.371,0.656-0.847,0.986-1.427,0.986c-0.6,0-1.081-0.334-1.442-0.998c-0.361-0.666-0.542-1.633-0.542-2.902v-25.949
				c0-1.102,0.076-1.965,0.229-2.592c0.181-0.689,0.479-1.25,0.898-1.688c0.419-0.436,0.87-0.652,1.355-0.652
				c0.38,0,0.706,0.1,0.978,0.297c0.271,0.199,0.508,0.467,0.713,0.805c0.204,0.336,0.414,0.771,0.627,1.307
				c0.215,0.535,0.436,1.094,0.664,1.676l8.13,19.822V244.23c0-1.301,0.174-2.275,0.522-2.926c0.348-0.65,0.817-0.975,1.409-0.975
				c0.61,0,1.093,0.324,1.445,0.975s0.529,1.625,0.529,2.926V270.683z M415.763,274.134c-0.404,0.65-0.891,0.977-1.461,0.977
				c-0.332,0-0.617-0.096-0.854-0.287s-0.437-0.451-0.599-0.779c-0.161-0.328-0.334-0.832-0.52-1.512s-0.344-1.279-0.477-1.799
				l-0.998-4.217h-8.49l-0.998,4.307c-0.389,1.682-0.721,2.816-0.996,3.404s-0.727,0.883-1.354,0.883
				c-0.533,0-1.003-0.314-1.411-0.941s-0.612-1.338-0.612-2.133c0-0.459,0.047-0.934,0.143-1.424
				c0.095-0.488,0.252-1.17,0.471-2.041l5.342-21.842c0.152-0.627,0.334-1.381,0.549-2.26c0.213-0.879,0.441-1.609,0.684-2.191
				c0.242-0.58,0.561-1.051,0.954-1.41s0.881-0.539,1.46-0.539c0.59,0,1.08,0.18,1.475,0.539s0.713,0.822,0.955,1.387
				c0.242,0.566,0.446,1.174,0.612,1.824s0.378,1.518,0.634,2.604l5.457,21.705c0.427,1.652,0.641,2.852,0.641,3.602
				C416.368,272.771,416.166,273.486,415.763,274.134z M416.417,197.697V175.89c0-0.25-0.094-0.375-0.279-0.375
				c-0.591,0-1.461,0.014-2.611,0.039s-2.005,0.037-2.564,0.037c-0.436,0-0.816-0.262-1.143-0.787s-0.489-1.137-0.489-1.836v-3.223
				c0-0.699,0.163-1.311,0.489-1.836c0.326-0.523,0.707-0.787,1.143-0.787c0.56,0,1.414-0.012,2.564-0.037s2.021-0.037,2.611-0.037
				c0.186,0,0.279-0.125,0.279-0.375v-9.518c0-0.748,0.155-1.385,0.466-1.91s0.699-0.787,1.166-0.787h2.611
				c0.466,0,0.854,0.262,1.165,0.787s0.467,1.162,0.467,1.91v9.367c0,0.25,0.077,0.375,0.233,0.375
				c6.651-0.199,11.531-0.375,14.641-0.525c0.154,0,0.232-0.125,0.232-0.375v-10.641c0-0.748,0.155-1.373,0.466-1.873
				s0.699-0.75,1.166-0.75h2.472c0.466,0,0.854,0.25,1.165,0.75s0.467,1.125,0.467,1.873v10.268c0,0.25,0.077,0.373,0.232,0.373
				c0.528-0.049,1.313-0.098,2.354-0.148s1.826-0.1,2.355-0.15c0.435-0.049,0.815,0.188,1.142,0.713
				c0.326,0.523,0.505,1.137,0.536,1.836l0.094,3.221c0.031,0.75-0.117,1.387-0.443,1.912s-0.723,0.813-1.188,0.861
				c-0.529,0.051-1.337,0.1-2.425,0.15s-1.896,0.1-2.425,0.148c-0.155,0-0.232,0.125-0.232,0.375v11.766
				c0,3.896-0.412,6.619-1.236,8.168s-2.23,2.324-4.219,2.324c-2.021,0-4.772-0.674-8.253-2.023
				c-0.436-0.199-0.77-0.625-1.003-1.273c-0.233-0.65-0.303-1.324-0.209-2.025l0.466-3.521c0.093-0.699,0.342-1.236,0.746-1.611
				s0.823-0.486,1.259-0.336c2.518,0.949,4.336,1.424,5.455,1.424c0.59,0,0.947-0.176,1.072-0.525
				c0.124-0.35,0.187-1.424,0.187-3.223v-8.842c0-0.25-0.078-0.375-0.232-0.375c-6.342,0.301-11.222,0.5-14.641,0.6
				c-0.156,0-0.233,0.125-0.233,0.375v21.881c0,2.998,0.225,5.158,0.676,6.482s1.298,2.236,2.541,2.736s3.279,0.748,6.108,0.748
				c3.947,0,7.848-0.373,11.703-1.123c0.435-0.1,0.839,0.086,1.212,0.561s0.575,1.063,0.606,1.762l0.187,3.447
				c0.062,0.748-0.048,1.424-0.327,2.023s-0.652,0.924-1.118,0.975c-4.104,0.748-8.191,1.123-12.263,1.123
				c-4.228,0-7.398-0.537-9.512-1.611s-3.59-2.896-4.43-5.471C416.836,206.777,416.417,202.892,416.417,197.697z M435.921,270.039
				c-0.598,1.506-1.402,2.619-2.418,3.338c-0.637,0.428-1.37,0.73-2.198,0.906c-0.828,0.178-1.794,0.266-2.897,0.266h-6.396
				c-0.923,0-1.582-0.334-1.978-1c-0.395-0.666-0.592-1.725-0.592-3.18V245.07c0-1.484,0.202-2.553,0.606-3.203
				s1.06-0.975,1.964-0.975h6.78c0.999,0,1.865,0.1,2.599,0.299c0.732,0.199,1.389,0.582,1.97,1.148
				c0.493,0.475,0.929,1.076,1.309,1.805c0.379,0.727,0.668,1.531,0.867,2.412s0.299,1.813,0.299,2.793
				c0,3.371-1.043,5.838-3.129,7.4c2.74,1.406,4.11,4.143,4.11,8.209C436.817,266.839,436.519,268.533,435.921,270.039z
				 M454.813,273.779c-0.361,0.514-0.889,0.77-1.584,0.77h-10.221c-0.92,0-1.58-0.33-1.982-0.988
				c-0.402-0.656-0.604-1.721-0.604-3.189v-25.91c0-1.377,0.191-2.41,0.575-3.1c0.384-0.688,0.888-1.031,1.513-1.031
				c0.635,0,1.148,0.34,1.541,1.021c0.393,0.68,0.59,1.717,0.59,3.109v24.494h8.588c0.686,0,1.211,0.268,1.577,0.803
				s0.55,1.207,0.55,2.016C455.356,272.599,455.175,273.267,454.813,273.779z M473.728,273.804c-0.338,0.496-0.84,0.744-1.506,0.744
				h-11.506c-0.918,0-1.579-0.33-1.981-0.988s-0.604-1.721-0.604-3.191V245.07c0-0.98,0.09-1.779,0.27-2.398
				c0.18-0.621,0.462-1.072,0.845-1.355c0.385-0.283,0.875-0.424,1.471-0.424h11.178c0.676,0,1.178,0.24,1.506,0.721
				c0.328,0.482,0.492,1.113,0.492,1.893c0,0.795-0.164,1.432-0.492,1.914c-0.328,0.48-0.83,0.723-1.506,0.723h-9.544v8.281h8.788
				c0.646,0,1.13,0.234,1.448,0.701c0.318,0.469,0.478,1.086,0.478,1.854s-0.156,1.393-0.471,1.875
				c-0.313,0.484-0.799,0.727-1.455,0.727h-8.788v9.563h9.872c0.666,0,1.168,0.248,1.506,0.744s0.506,1.156,0.506,1.98
				C474.233,272.662,474.065,273.308,473.728,273.804z M465.479,213.546c-2.301-2.273-3.45-5.557-3.45-9.854
				c0-3.297,0.979-6.082,2.938-8.355c1.958-2.273,4.662-3.41,8.112-3.41c3.543,0,6.107,0.949,7.693,2.848
				c1.585,1.898,2.378,4.695,2.378,8.393c0,1.148-0.094,2.373-0.279,3.672c-0.031,0.051-0.024,0.113,0.022,0.188
				c0.047,0.076,0.102,0.088,0.164,0.037c3.17-2.148,4.756-5.969,4.756-11.465c0-3.447-0.754-6.045-2.262-7.793
				s-3.909-2.623-7.204-2.623c-3.016,0-5.859,0.5-8.532,1.498c-2.674,1-5.564,2.674-8.672,5.021
				c-0.404,0.299-0.832,0.35-1.282,0.148c-0.451-0.199-0.785-0.623-1.003-1.273l-0.652-2.248c-0.218-0.648-0.265-1.324-0.14-2.023
				c0.124-0.699,0.388-1.248,0.792-1.648l20.329-19.783l0.047-0.074l-0.047-0.076h-16.925c-0.467,0-0.855-0.248-1.166-0.748
				s-0.466-1.125-0.466-1.875v-2.996c0-0.75,0.155-1.373,0.466-1.873s0.699-0.75,1.166-0.75h26.39c0.466,0,0.862,0.25,1.188,0.75
				s0.49,1.123,0.49,1.873l0.046,3.146c0,1.799-0.467,3.123-1.398,3.973l-13.895,12.363v0.076h0.094
				c2.051-0.65,3.932-0.975,5.642-0.975c4.444,0,7.809,1.475,10.094,4.422s3.428,7.143,3.428,12.588
				c0,7.096-1.602,12.578-4.803,16.449c-3.202,3.871-7.756,5.809-13.661,5.809C471.245,216.957,467.779,215.82,465.479,213.546z
				 M509.2,246.431l-3.48,22.645c-0.238,1.529-0.436,2.65-0.592,3.361c-0.158,0.711-0.424,1.336-0.799,1.871
				c-0.377,0.533-0.906,0.803-1.591,0.803c-0.647,0-1.165-0.262-1.556-0.781c-0.39-0.52-0.66-1.104-0.813-1.754
				s-0.366-1.762-0.643-3.338l-3.38-20.158l-3.423,20.158c-0.268,1.529-0.479,2.627-0.635,3.293
				c-0.158,0.664-0.432,1.262-0.82,1.789c-0.391,0.525-0.909,0.791-1.556,0.791c-0.522,0-0.953-0.158-1.29-0.471
				c-0.338-0.314-0.611-0.758-0.82-1.33c-0.21-0.574-0.381-1.254-0.514-2.043c-0.134-0.787-0.252-1.518-0.357-2.191l-3.48-22.645
				c-0.209-1.314-0.313-2.316-0.313-3.006c0-0.871,0.19-1.605,0.57-2.201c0.38-0.598,0.851-0.895,1.413-0.895
				c0.77,0,1.287,0.396,1.555,1.193c0.266,0.795,0.498,1.951,0.698,3.467l2.739,19.652l3.066-18.391
				c0.229-1.408,0.434-2.479,0.613-3.213c0.182-0.734,0.476-1.371,0.885-1.906c0.408-0.535,0.965-0.803,1.669-0.803
				c0.713,0,1.267,0.279,1.661,0.838s0.668,1.166,0.82,1.824s0.357,1.746,0.613,3.26l3.096,18.391l2.739-19.652
				c0.133-1.025,0.259-1.83,0.378-2.41c0.119-0.582,0.323-1.104,0.613-1.563s0.711-0.688,1.262-0.688
				c0.553,0,1.021,0.293,1.406,0.883c0.385,0.588,0.577,1.326,0.577,2.213C509.514,244.054,509.409,245.056,509.2,246.431z
				 M529.623,274.134c-0.403,0.65-0.891,0.977-1.46,0.977c-0.333,0-0.618-0.096-0.855-0.287s-0.438-0.451-0.598-0.779
				c-0.162-0.328-0.336-0.832-0.521-1.512s-0.345-1.279-0.478-1.799l-0.996-4.217h-8.491l-0.997,4.307
				c-0.391,1.682-0.723,2.816-0.998,3.404s-0.727,0.883-1.354,0.883c-0.531,0-1.002-0.314-1.41-0.941s-0.612-1.338-0.612-2.133
				c0-0.459,0.048-0.934,0.143-1.424c0.095-0.488,0.251-1.17,0.47-2.041l5.343-21.842c0.151-0.627,0.335-1.381,0.548-2.26
				c0.215-0.879,0.442-1.609,0.685-2.191c0.242-0.58,0.56-1.051,0.954-1.41s0.881-0.539,1.461-0.539c0.588,0,1.08,0.18,1.475,0.539
				c0.394,0.359,0.712,0.822,0.954,1.387c0.242,0.566,0.446,1.174,0.612,1.824s0.377,1.518,0.634,2.604l5.456,21.705
				c0.428,1.652,0.642,2.852,0.642,3.602C530.229,272.771,530.026,273.486,529.623,274.134z M548.233,269.925
				c-0.65,1.621-1.603,2.891-2.855,3.809c-1.254,0.918-2.74,1.377-4.459,1.377c-2.061,0-3.76-0.627-5.1-1.881
				c-0.947-0.902-1.717-2.107-2.309-3.613c-0.593-1.506-0.889-2.971-0.889-4.393c0-0.826,0.178-1.533,0.533-2.123
				c0.355-0.588,0.807-0.883,1.357-0.883c0.445,0,0.821,0.229,1.129,0.688c0.309,0.459,0.571,1.141,0.789,2.043
				c0.267,1.07,0.555,1.965,0.863,2.684c0.31,0.719,0.745,1.313,1.307,1.777c0.562,0.467,1.299,0.701,2.213,0.701
				c1.256,0,2.276-0.471,3.062-1.412c0.785-0.939,1.178-2.113,1.178-3.521c0-1.115-0.212-2.021-0.636-2.719
				c-0.424-0.695-0.971-1.227-1.643-1.594c-0.67-0.367-1.568-0.758-2.691-1.17c-1.5-0.566-2.755-1.229-3.766-1.984
				c-1.011-0.758-1.813-1.791-2.406-3.098c-0.594-1.309-0.89-2.934-0.89-4.877c0-1.85,0.313-3.494,0.94-4.932
				c0.626-1.439,1.533-2.545,2.719-3.316c1.188-0.773,2.582-1.158,4.188-1.158c1.281,0,2.39,0.256,3.324,0.768
				c0.936,0.514,1.711,1.193,2.328,2.043s1.068,1.74,1.354,2.674s0.428,1.844,0.428,2.73c0,0.811-0.178,1.541-0.533,2.191
				s-0.797,0.975-1.327,0.975c-0.483,0-0.85-0.195-1.101-0.586s-0.523-1.031-0.816-1.92c-0.381-1.268-0.838-2.256-1.371-2.967
				c-0.533-0.709-1.39-1.064-2.57-1.064c-1.095,0-1.979,0.385-2.648,1.158c-0.672,0.771-1.007,1.701-1.007,2.787
				c0,0.674,0.114,1.254,0.343,1.744c0.229,0.488,0.543,0.91,0.942,1.262s0.804,0.627,1.214,0.826
				c0.408,0.197,1.085,0.488,2.027,0.871c1.176,0.443,2.241,0.934,3.194,1.469s1.765,1.186,2.433,1.949
				c0.67,0.766,1.191,1.732,1.566,2.902c0.374,1.17,0.562,2.604,0.562,4.301C549.209,266.478,548.884,268.304,548.233,269.925z
				 M568.037,245.748c-0.361,0.512-0.903,0.77-1.626,0.77h-4.623v24.439c0,1.408-0.195,2.451-0.584,3.133
				c-0.391,0.68-0.895,1.021-1.512,1.021c-0.627,0-1.137-0.346-1.531-1.033c-0.395-0.689-0.592-1.729-0.592-3.121v-24.439h-4.623
				c-0.723,0-1.26-0.258-1.611-0.77c-0.353-0.514-0.528-1.189-0.528-2.031c0-0.873,0.183-1.563,0.55-2.066
				c0.365-0.506,0.896-0.758,1.59-0.758h13.465c0.732,0,1.276,0.26,1.633,0.779c0.357,0.521,0.535,1.203,0.535,2.045
				S568.398,245.234,568.037,245.748z M586.675,273.804c-0.338,0.496-0.84,0.744-1.506,0.744h-11.506
				c-0.918,0-1.579-0.33-1.981-0.988s-0.604-1.721-0.604-3.191V245.07c0-0.98,0.09-1.779,0.27-2.398
				c0.18-0.621,0.462-1.072,0.845-1.355c0.385-0.283,0.875-0.424,1.471-0.424h11.178c0.676,0,1.178,0.24,1.506,0.721
				c0.328,0.482,0.492,1.113,0.492,1.893c0,0.795-0.164,1.432-0.492,1.914c-0.328,0.48-0.83,0.723-1.506,0.723h-9.544v8.281h8.788
				c0.646,0,1.13,0.234,1.448,0.701c0.318,0.469,0.478,1.086,0.478,1.854s-0.156,1.393-0.471,1.875
				c-0.313,0.484-0.799,0.727-1.455,0.727h-8.788v9.563h9.872c0.666,0,1.168,0.248,1.506,0.744s0.506,1.156,0.506,1.98
				C587.181,272.662,587.013,273.308,586.675,273.804z M587.383,208.638l-0.28,4.646c-0.031,0.699-0.24,1.26-0.629,1.686
				c-0.389,0.424-0.801,0.586-1.235,0.486c-10.849-2.896-21.541-4.695-32.078-5.395c-0.436-0.049-0.816-0.35-1.143-0.898
				c-0.326-0.551-0.474-1.176-0.442-1.875l0.14-4.646c0.031-0.699,0.218-1.311,0.56-1.834c0.342-0.525,0.729-0.762,1.165-0.713
				c10.289,0.699,21.121,2.523,32.498,5.471c0.466,0.1,0.839,0.449,1.118,1.049S587.444,207.888,587.383,208.638z M472.753,199.421
				c-1.555,0-2.743,0.412-3.566,1.236c-0.824,0.824-1.235,1.836-1.235,3.035c0,3.496,2.642,5.244,7.926,5.244h0.979
				c0.154,0,0.264-0.123,0.326-0.373c0.466-1.748,0.699-3.197,0.699-4.348c0-1.549-0.373-2.734-1.119-3.559
				S474.68,199.421,472.753,199.421z"/>
		</g>
	</g>
</g>
</svg>
