<?xml version="1.0" encoding="utf-8"?>
<!-- Generator: Adobe Illustrator 12.0.0, SVG Export Plug-In . SVG Version: 6.00 Build 51448)  -->
<!DOCTYPE svg PUBLIC "-//W3C//DTD SVG 1.1//EN" "http://www.w3.org/Graphics/SVG/1.1/DTD/svg11.dtd" [
	<!ENTITY ns_svg "http://www.w3.org/2000/svg">
	<!ENTITY ns_xlink "http://www.w3.org/1999/xlink">
]>
<svg  version="1.1" id="レイヤー_1" xmlns="&ns_svg;" xmlns:xlink="&ns_xlink;" width="354.331" height="212.598"
	 viewBox="0 0 354.331 212.598" overflow="visible" enable-background="new 0 0 354.331 212.598" xml:space="preserve">
<rect fill="none" width="354.331" height="212.598"/>
<g>
	<g>
		<g>
			<path fill="#FFFFFF" d="M132.914,95.016c0.002-0.219-0.011-0.431-0.048-0.629C132.866,94.387,132.885,94.619,132.914,95.016z
				 M133.791,108.256c0-1.596-0.688-10.754-0.877-13.24c-0.035,3.845-5.826,10.467-5.826,10.467l-0.925-6.242
				c-0.462-8.553-10.402-14.563-10.402-14.563c-3.005-1.85-5.548-9.709-5.548-9.709c-3.236,5.316-1.617,15.256-1.617,15.256
				c-1.619,2.775-2.544,3.006-2.544,3.006c-3.698-14.795-18.724-20.111-18.724-20.111c2.543,6.01-0.693,24.504-0.693,24.504
				c-4.393-5.549-16.181-8.322-16.181-8.322c4.161,3.004,5.315,12.482,5.315,12.482c0.231,6.936,1.619,7.859,1.619,7.859l2.08,4.391
				l-11.096-8.32c2.543,5.316,3.467,18.029,3.467,18.029c2.313,16.182,21.729,18.031,21.729,18.031
				c2.318,0.412,4.525,0.637,6.627,0.718c-0.742-0.085-1.494-0.187-2.27-0.325c0,0-14.352-1.367-16.061-13.328
				c0,0-0.684-9.396-2.563-13.326l8.201,6.15l-1.539-3.246c0,0-1.024-0.684-1.195-5.811c0,0-0.854-7.006-3.93-9.227
				c0,0,8.715,2.051,11.961,6.152c0,0,2.393-13.67,0.513-18.113c0,0,11.106,3.93,13.841,14.867c0,0,0.684-0.172,1.879-2.223
				c0,0-1.195-7.348,1.197-11.277c0,0,1.879,5.809,4.1,7.178c0,0,7.348,4.441,7.689,10.764l0.684,4.613c0,0,4.281-4.895,4.308-7.737
				c-0.022-0.292-0.036-0.464-0.036-0.464c0.027,0.146,0.037,0.303,0.036,0.464c0.14,1.838,0.648,8.608,0.648,9.786
				c0,0,2.392,11.621-3.247,17.26c0,0-1.918,2.193-5.627,4.295c6.987-3.186,10.613-7.34,10.613-7.34
				C137.027,123.975,133.791,108.256,133.791,108.256z"/>
		</g>
	</g>
	<path fill="#FFFFFF" d="M98.771,105.305c0,0,7.997,2.828,9.965,10.703c0,0,0.492-0.123,1.354-1.6c0,0-0.861-5.289,0.861-8.119
		c0,0,1.354,4.182,2.953,5.166c0,0,5.29,3.199,5.536,7.752l0.492,3.322c0,0,3.444-3.938,3.075-5.906c0,0,0.492,6.398,0.492,7.381
		c0,0,1.723,8.367-2.336,12.428c0,0-6.645,7.627-19.07,5.412c0,0-10.335-0.984-11.564-9.598c0,0-0.492-6.766-1.846-9.594
		l5.905,4.428l-1.107-2.338c0,0-0.737-0.492-0.86-4.182c0,0-0.615-5.045-2.83-6.645c0,0,6.273,1.477,8.611,4.43
		C98.402,118.346,100.125,108.502,98.771,105.305z"/>
	<g>
		<g>
			<path fill="#FFFFFF" d="M214.043,129.805h-2.212v4.906h2.283c1.437,0,2.154-0.828,2.154-2.488c0-0.848-0.187-1.463-0.559-1.844
				C215.338,129.996,214.782,129.805,214.043,129.805z M161.291,127.125c0.289-0.16,0.51-0.467,0.662-0.92
				c0.12-0.322,0.181-0.682,0.181-1.08c0-0.852-0.188-1.418-0.565-1.697s-0.953-0.42-1.726-0.42h-1.726v4.359h1.947
				C160.594,127.367,161.003,127.287,161.291,127.125z M160.329,129.805h-2.212v4.906h2.283c1.436,0,2.154-0.828,2.154-2.488
				c0-0.848-0.187-1.463-0.559-1.844C161.624,129.996,161.068,129.805,160.329,129.805z M215.005,127.125
				c0.289-0.16,0.51-0.467,0.662-0.92c0.12-0.322,0.181-0.682,0.181-1.08c0-0.852-0.188-1.418-0.565-1.697
				c-0.378-0.279-0.952-0.42-1.726-0.42h-1.726v4.359h1.946C214.308,127.367,214.717,127.287,215.005,127.125z M177.168,82.549
				c-0.561-1.848-0.988-3.209-1.283-4.084c-0.016-0.023-0.03-0.037-0.046-0.037s-0.023,0.014-0.023,0.037v3.26
				c0,0.076,0.004,0.201,0.012,0.375c0.008,0.176,0.012,0.313,0.012,0.412s0.038,0.15,0.116,0.15h1.143
				C177.176,82.662,177.199,82.625,177.168,82.549z M201.738,130.695h3.12l-1.574-6.938L201.738,130.695z M183.986,125.291
				c0-0.467-0.073-0.877-0.222-1.232c-0.147-0.355-0.353-0.623-0.615-0.799c-0.248-0.168-0.737-0.252-1.468-0.252h-1.961v4.625
				h1.904c0.511,0,0.939-0.07,1.288-0.213c0.349-0.141,0.614-0.381,0.798-0.723C183.895,126.357,183.986,125.889,183.986,125.291z
				 M167.703,82.662c-0.078,0-0.133,0.063-0.164,0.188s-0.078,0.287-0.14,0.486c-0.016,0.1,0,0.201,0.047,0.301
				c0.171,0.25,0.415,0.611,0.734,1.086c0.318,0.475,0.532,0.787,0.642,0.938c0.062,0.1,0.107,0.086,0.139-0.039
				c0.28-1.197,0.467-2.109,0.561-2.734c0.031-0.15,0-0.225-0.094-0.225H167.703z M166.374,86.934
				c-0.016-0.051-0.043-0.076-0.082-0.076s-0.065,0.025-0.081,0.076c-0.172,0.5-0.373,1.012-0.606,1.535
				c-0.047,0.125-0.039,0.238,0.023,0.338c0.901,1.299,1.383,1.998,1.445,2.098c0.046,0.102,0.101,0.102,0.163,0
				c0.14-0.324,0.334-0.836,0.583-1.535c0.046-0.125,0.038-0.238-0.023-0.338C167.454,88.508,166.98,87.809,166.374,86.934z
				 M258.668,130.695h3.12l-1.574-6.938L258.668,130.695z M294.094,61.654H60.236c-3.896,0-7.086,3.188-7.086,7.086v75.117
				c0,3.898,3.189,7.088,7.086,7.088h233.857c3.898,0,7.088-3.189,7.088-7.088V68.74C301.182,64.842,297.992,61.654,294.094,61.654z
				 M276.884,79.439c0.015-0.375,0.104-0.686,0.268-0.936s0.361-0.363,0.595-0.338c4.927,0.35,9.736,1.023,14.431,2.023
				c0.233,0.049,0.419,0.219,0.56,0.506c0.139,0.287,0.201,0.617,0.186,0.992l-0.162,2.211c-0.031,0.35-0.133,0.643-0.304,0.881
				c-0.171,0.236-0.365,0.33-0.583,0.281c-4.988-1.049-9.752-1.725-14.29-2.023c-0.233-0.025-0.428-0.176-0.583-0.451
				c-0.155-0.273-0.225-0.586-0.209-0.936L276.884,79.439z M291.5,92.328l-0.186,2.324c-0.031,0.35-0.141,0.631-0.326,0.842
				c-0.188,0.213-0.389,0.295-0.607,0.244c-3.854-1.023-7.777-1.711-11.771-2.061c-0.219-0.025-0.405-0.176-0.561-0.449
				c-0.155-0.275-0.225-0.588-0.209-0.938l0.093-2.322c0.03-0.375,0.128-0.688,0.291-0.938s0.361-0.361,0.595-0.338
				c4.057,0.326,8.043,1.025,11.959,2.1c0.233,0.049,0.42,0.225,0.561,0.523C291.477,91.617,291.531,91.955,291.5,92.328z
				 M269.148,76.48c0.07-0.35,0.207-0.613,0.408-0.787l0.746-0.6c0.218-0.176,0.436-0.207,0.652-0.094
				c0.219,0.111,0.381,0.33,0.49,0.654l1.049,3.26c0.109,0.352,0.129,0.688,0.059,1.014c-0.07,0.324-0.214,0.574-0.432,0.748
				l-0.746,0.6c-0.217,0.176-0.435,0.199-0.652,0.074s-0.381-0.361-0.49-0.711c-0.217-0.699-0.559-1.748-1.025-3.148
				C269.099,77.166,269.079,76.83,269.148,76.48z M252.049,103.307c0-0.375,0.078-0.693,0.233-0.955s0.35-0.393,0.583-0.393h12.355
				c0.078,0,0.117-0.063,0.117-0.188V85.285c0-0.125-0.039-0.188-0.117-0.188h-12.355c-0.233,0-0.428-0.125-0.583-0.375
				s-0.233-0.563-0.233-0.938v-1.836c0-0.373,0.078-0.691,0.233-0.955c0.155-0.262,0.35-0.393,0.583-0.393h13.592
				c0.077,0,0.101-0.051,0.069-0.15c-0.171-0.549-0.442-1.373-0.815-2.473c-0.109-0.324-0.129-0.656-0.059-0.994
				c0.07-0.336,0.205-0.592,0.408-0.768l0.699-0.563c0.201-0.174,0.411-0.211,0.629-0.111s0.381,0.313,0.49,0.637
				c0.466,1.398,0.808,2.461,1.025,3.186c0.108,0.324,0.124,0.662,0.047,1.012c-0.078,0.35-0.218,0.6-0.42,0.748l-0.094,0.076
				c-0.078,0.049-0.101,0.125-0.069,0.225c0.046,0.15,0.069,0.324,0.069,0.523v23.193c0,0.375-0.078,0.688-0.232,0.938
				c-0.156,0.25-0.35,0.375-0.583,0.375h-14.757c-0.233,0-0.428-0.125-0.583-0.375s-0.233-0.563-0.233-0.938V103.307z
				 M180.997,89.949c0.093-0.336,0.241-0.568,0.442-0.693c0.233-0.148,1.492-0.936,3.777-2.359c0.078-0.051,0.102-0.139,0.07-0.264
				c-0.327-1.748-0.716-3.746-1.166-5.994c-0.078-0.35-0.063-0.68,0.047-0.992c0.108-0.313,0.271-0.52,0.489-0.619l1.376-0.674
				c0.217-0.125,0.43-0.1,0.641,0.074c0.209,0.176,0.346,0.438,0.408,0.787c0.139,0.699,0.33,1.693,0.57,2.979
				c0.241,1.287,0.416,2.191,0.525,2.717c0.031,0.125,0.085,0.162,0.163,0.111c0.901-0.523,1.896-1.072,2.983-1.648
				c0.094-0.049,0.125-0.148,0.094-0.299c-0.265-1.424-0.521-2.811-0.77-4.16c-0.063-0.35-0.039-0.68,0.07-0.992
				c0.108-0.313,0.271-0.518,0.489-0.617l1.353-0.6c0.217-0.1,0.427-0.057,0.629,0.131s0.334,0.455,0.396,0.805
				c0.016,0.125,0.113,0.713,0.291,1.762c0.18,1.049,0.322,1.861,0.432,2.436c0.031,0.15,0.094,0.199,0.187,0.15
				c0.839-0.25,1.569-0.375,2.191-0.375c1.601,0,2.895,0.787,3.882,2.359c0.986,1.574,1.48,3.66,1.48,6.258
				c0,2.898-0.533,5.164-1.598,6.801s-2.498,2.453-4.301,2.453c-0.684,0-1.438-0.1-2.262-0.299
				c-0.232-0.051-0.416-0.225-0.548-0.525c-0.132-0.299-0.183-0.637-0.151-1.012l0.094-1.797c0.031-0.35,0.136-0.637,0.314-0.863
				c0.179-0.225,0.377-0.311,0.594-0.262c0.653,0.125,1.205,0.188,1.656,0.188c0.932,0,1.682-0.398,2.249-1.199
				c0.567-0.799,0.851-1.873,0.851-3.223c0-1.398-0.232-2.479-0.699-3.24s-1.143-1.143-2.027-1.143
				c-0.203,0-0.537,0.063-1.003,0.188c-0.078,0.049-0.108,0.125-0.093,0.225c0.031,0.199,0.201,1.248,0.512,3.146
				c0.063,0.35,0.035,0.682-0.081,0.994s-0.284,0.529-0.501,0.654l-1.213,0.563c-0.217,0.1-0.427,0.063-0.629-0.111
				c-0.202-0.176-0.334-0.438-0.396-0.787c-0.078-0.4-0.179-0.986-0.303-1.762c-0.125-0.773-0.202-1.236-0.233-1.387
				c-0.031-0.148-0.085-0.199-0.163-0.15c-0.652,0.352-1.64,0.912-2.961,1.688c-0.078,0.049-0.102,0.137-0.07,0.262
				c1.025,5.471,2.014,11.154,2.961,17.049c0.063,0.35,0.035,0.674-0.081,0.975c-0.116,0.299-0.284,0.498-0.501,0.6l-1.422,0.561
				c-0.219,0.1-0.428,0.045-0.631-0.168c-0.201-0.213-0.334-0.494-0.396-0.844c-0.886-5.57-1.826-11.039-2.821-16.41
				c-0.031-0.125-0.077-0.176-0.139-0.15c-1.073,0.674-2.262,1.424-3.567,2.248c-0.218,0.125-0.432,0.113-0.642-0.037
				s-0.354-0.387-0.431-0.713l-0.443-1.76C180.896,90.631,180.904,90.287,180.997,89.949z M157.143,92.516
				c0.279-3.121,0.427-6.42,0.442-9.891c0-0.35,0.085-0.65,0.257-0.9c0.17-0.25,0.365-0.35,0.582-0.299l0.326,0.074
				c0.234,0.051,0.428,0.207,0.584,0.469c0.154,0.262,0.232,0.58,0.232,0.955c-0.016,3.822-0.187,7.395-0.513,10.717
				c-0.031,0.324-0.14,0.58-0.326,0.768s-0.381,0.219-0.583,0.094l-0.35-0.225c-0.218-0.125-0.389-0.355-0.513-0.693
				S157.111,92.891,157.143,92.516z M152.363,138.189c0,3.896-3.188,7.086-7.086,7.086H67.324c-3.898,0-7.086-3.189-7.086-7.086
				V74.41c0-3.898,3.188-7.088,7.086-7.088h77.953c3.897,0,7.086,3.189,7.086,7.088V138.189z M164.247,135.02
				c-0.299,0.752-0.701,1.309-1.209,1.668c-0.318,0.215-0.685,0.365-1.099,0.453c-0.414,0.09-0.897,0.133-1.449,0.133h-3.197
				c-0.462,0-0.791-0.166-0.989-0.5c-0.197-0.332-0.296-0.861-0.296-1.59v-12.648c0-0.742,0.102-1.277,0.303-1.602
				c0.203-0.326,0.53-0.488,0.982-0.488h3.391c0.499,0,0.932,0.051,1.299,0.15c0.366,0.1,0.694,0.291,0.984,0.574
				c0.247,0.236,0.465,0.537,0.654,0.902c0.189,0.363,0.334,0.766,0.434,1.205c0.1,0.441,0.15,0.906,0.15,1.396
				c0,1.686-0.521,2.92-1.564,3.701c1.369,0.703,2.055,2.07,2.055,4.104C164.695,133.42,164.546,134.266,164.247,135.02z
				 M175.342,130.318c0,1.314-0.079,2.412-0.238,3.293c-0.158,0.879-0.458,1.652-0.898,2.316c-0.381,0.566-0.823,0.979-1.328,1.238
				c-0.504,0.26-1.094,0.389-1.77,0.389c-0.805,0-1.498-0.139-2.078-0.418s-1.055-0.711-1.421-1.297
				c-0.366-0.584-0.636-1.334-0.807-2.248s-0.257-2.006-0.257-3.275v-8.088c0-0.688,0.096-1.203,0.287-1.549
				c0.192-0.344,0.444-0.516,0.757-0.516c0.327,0,0.586,0.172,0.778,0.516c0.191,0.346,0.287,0.861,0.287,1.551v8.271
				c0,0.941,0.065,1.729,0.197,2.359c0.131,0.631,0.363,1.121,0.698,1.469c0.334,0.348,0.802,0.521,1.404,0.521
				c0.831,0,1.419-0.354,1.763-1.061c0.344-0.709,0.516-1.781,0.516-3.219v-8.342c0-0.697,0.095-1.215,0.284-1.555
				c0.189-0.342,0.442-0.512,0.76-0.512s0.574,0.17,0.771,0.51c0.196,0.342,0.295,0.859,0.295,1.555V130.318z M167.889,101.189
				c0.141-0.287,0.318-0.455,0.537-0.506l0.955-0.225c0.233-0.049,0.439,0.031,0.618,0.244s0.283,0.506,0.314,0.881
				c0.218,2.273,0.381,4.422,0.489,6.443c0.031,0.375-0.023,0.713-0.162,1.012c-0.141,0.301-0.327,0.475-0.561,0.525l-1.025,0.225
				c-0.218,0.051-0.416-0.037-0.594-0.262c-0.18-0.225-0.276-0.512-0.292-0.861c-0.093-2.199-0.241-4.371-0.442-6.52
				C167.695,101.797,167.749,101.477,167.889,101.189z M171.572,101.209c0.125-0.301,0.295-0.486,0.514-0.563l0.979-0.299
				c0.218-0.076,0.424-0.014,0.617,0.188c0.195,0.199,0.322,0.475,0.385,0.824c0.295,1.873,0.591,4.033,0.887,6.48
				c0.047,0.35,0.004,0.676-0.129,0.975c-0.132,0.301-0.307,0.488-0.523,0.563l-1.05,0.301c-0.218,0.074-0.419-0.002-0.606-0.227
				c-0.186-0.225-0.295-0.512-0.326-0.861c-0.248-2.248-0.528-4.383-0.839-6.406C171.417,101.834,171.448,101.508,171.572,101.209z
				 M176.876,109.377c-0.194-0.15-0.322-0.4-0.384-0.75c-0.498-2.996-0.941-5.32-1.33-6.969c-0.078-0.324-0.07-0.648,0.023-0.975
				c0.094-0.324,0.249-0.537,0.467-0.637l1.375-0.6c0.063-0.049,0.07-0.111,0.023-0.188c-1.135-2.047-2.021-4.346-2.657-6.895
				c-0.031-0.074-0.063-0.061-0.093,0.039c-0.855,2.848-1.889,5.184-3.102,7.006c-0.186,0.25-0.389,0.363-0.605,0.338
				c-0.219-0.025-0.412-0.176-0.583-0.449l-0.909-1.424c-0.156-0.275-0.226-0.588-0.21-0.938s0.108-0.648,0.28-0.898
				c1.818-2.623,2.976-5.646,3.473-9.068c0.031-0.125,0-0.188-0.093-0.188h-0.956c-0.078,0-0.132,0.063-0.163,0.188
				c-1.321,5.445-3.279,9.83-5.874,13.152c-0.063,0.049-0.055,0.111,0.022,0.188l0.956,0.561c0.217,0.125,0.381,0.357,0.489,0.693
				c0.108,0.338,0.132,0.682,0.07,1.031c-0.404,2.197-0.901,4.295-1.492,6.295c-0.093,0.324-0.253,0.549-0.478,0.674
				c-0.227,0.125-0.439,0.111-0.642-0.037l-1.049-0.75c-0.202-0.15-0.343-0.4-0.42-0.75s-0.062-0.686,0.047-1.012
				c0.56-1.898,1.064-3.896,1.515-5.994c0.031-0.125,0.023-0.236-0.022-0.338l-0.77-2.396c-0.233-0.775-0.14-1.412,0.28-1.912
				c0.496-0.623,1.033-1.424,1.607-2.398c0.047-0.074,0.047-0.148,0-0.225c-0.279-0.398-0.715-1.049-1.305-1.947
				c-0.171-0.25-0.268-0.563-0.291-0.938s0.042-0.699,0.197-0.975l0.699-1.348c0.063-0.1,0.07-0.201,0.023-0.301l-0.559-1.498
				c-0.031-0.1-0.063-0.1-0.094,0c-0.311,1.799-0.676,3.547-1.096,5.246c-0.063,0.25-0.168,0.424-0.314,0.523
				c-0.148,0.1-0.292,0.088-0.432-0.037c-0.031-0.025-0.063-0.012-0.094,0.037c-0.047,0.775-0.132,1.787-0.256,3.035
				c-0.031,0.125-0.016,0.25,0.047,0.375c0.715,1.898,1.328,3.598,1.842,5.096c0.264,0.773,0.193,1.449-0.21,2.023l-0.677,0.938
				c-0.154,0.225-0.334,0.311-0.535,0.262c-0.203-0.051-0.358-0.225-0.467-0.525c-0.342-0.998-0.599-1.736-0.77-2.211
				c-0.016-0.023-0.035-0.037-0.059-0.037s-0.042,0.025-0.058,0.076c-0.56,2.771-1.274,5.094-2.146,6.969
				c-0.124,0.273-0.295,0.406-0.512,0.393c-0.219-0.012-0.389-0.156-0.514-0.43l-0.699-1.537c-0.311-0.699-0.303-1.41,0.023-2.135
				c0.917-2.123,1.589-4.76,2.017-7.906c0.427-3.148,0.642-7.207,0.642-12.178v-7.156c0-0.375,0.081-0.688,0.244-0.938
				s0.361-0.375,0.595-0.375h0.909c0.232,0,0.428,0.125,0.582,0.375c0.156,0.25,0.234,0.563,0.234,0.938v7.156v0.525
				c0,0.023,0.007,0.037,0.022,0.037s0.023-0.014,0.023-0.037c0.155-0.9,0.35-2.162,0.583-3.785c0.047-0.35,0.167-0.625,0.361-0.824
				s0.4-0.25,0.617-0.15l0.164,0.076c0.232,0.1,0.419,0.35,0.559,0.748c0.031,0.1,0.063,0.088,0.094-0.037
				c0.466-1.373,0.831-2.76,1.096-4.158c0.078-0.35,0.217-0.637,0.42-0.863c0.201-0.225,0.419-0.311,0.652-0.262l0.863,0.188
				c0.217,0.025,0.392,0.188,0.523,0.486c0.133,0.301,0.168,0.625,0.105,0.975c-0.094,0.551-0.172,0.963-0.233,1.236
				c-0.031,0.125-0.008,0.188,0.07,0.188h2.891c0.233,0,0.431,0.125,0.595,0.375c0.162,0.25,0.244,0.563,0.244,0.938v2.098
				c0,0.125,0.039,0.188,0.117,0.188h0.42c0.077,0,0.116-0.063,0.116-0.188V82.25v-4.496c0-0.375,0.077-0.688,0.233-0.938
				c0.154-0.25,0.35-0.375,0.582-0.375h1.795c0.172,0,0.257,0.139,0.257,0.412c0,0.025,0.016,0.039,0.047,0.039l0.583-0.563
				c0.201-0.176,0.415-0.213,0.641-0.113c0.225,0.1,0.393,0.313,0.502,0.637c0.342,1,0.684,2.086,1.025,3.26
				c0.108,0.35,0.124,0.701,0.047,1.051c-0.078,0.35-0.219,0.623-0.42,0.824l-0.63,0.598c-0.031,0.051-0.023,0.076,0.023,0.076
				h0.466c0.233,0,0.432,0.131,0.595,0.393c0.163,0.264,0.245,0.582,0.245,0.955v1.463c0,0.375-0.082,0.686-0.245,0.936
				s-0.361,0.375-0.595,0.375h-1.888c-0.063,0-0.093,0.063-0.093,0.188c0.403,3.197,1.297,6.033,2.68,8.506
				c0.172,0.275,0.265,0.605,0.28,0.992s-0.047,0.73-0.187,1.031l-1.166,2.547c-0.063,0.1-0.077,0.213-0.046,0.338
				c0.528,2.322,0.972,4.547,1.329,6.67c0.062,0.373,0.038,0.73-0.07,1.066c-0.109,0.338-0.271,0.568-0.49,0.693l-0.979,0.6
				C177.269,109.539,177.07,109.527,176.876,109.377z M186.182,136.85c-0.088,0.217-0.209,0.391-0.36,0.516
				c-0.152,0.127-0.328,0.189-0.527,0.189c-0.237,0-0.438-0.09-0.599-0.27c-0.162-0.18-0.301-0.408-0.417-0.684
				s-0.274-0.68-0.474-1.217l-0.849-2.271c-0.306-0.834-0.578-1.471-0.819-1.906s-0.485-0.734-0.733-0.895
				c-0.248-0.162-0.561-0.242-0.938-0.242h-0.745v5.406c0,0.713-0.097,1.236-0.291,1.572c-0.193,0.338-0.447,0.506-0.76,0.506
				c-0.336,0-0.597-0.176-0.781-0.527s-0.277-0.869-0.277-1.549v-12.945c0-0.734,0.103-1.266,0.308-1.594
				c0.204-0.33,0.535-0.494,0.991-0.494h3.447c0.477,0,0.883,0.033,1.221,0.098s0.643,0.197,0.914,0.396
				c0.326,0.223,0.615,0.539,0.867,0.953c0.251,0.412,0.442,0.893,0.572,1.439c0.131,0.547,0.195,1.125,0.195,1.738
				c0,1.254-0.219,2.256-0.658,3.004c-0.438,0.75-1.104,1.281-1.996,1.596c0.375,0.32,0.733,0.795,1.075,1.424
				c0.342,0.627,0.646,1.295,0.915,2.002c0.268,0.709,0.477,1.348,0.626,1.916c0.149,0.57,0.224,0.963,0.224,1.178
				C186.313,136.41,186.27,136.631,186.182,136.85z M196.914,135.342c0,1.475-0.381,2.213-1.143,2.213
				c-0.19,0-0.362-0.043-0.515-0.131s-0.295-0.229-0.429-0.42c-0.133-0.189-0.257-0.414-0.371-0.67s-0.229-0.518-0.343-0.785
				l-3.966-9.791v9.848c0,0.643-0.093,1.127-0.278,1.457c-0.186,0.328-0.423,0.492-0.714,0.492c-0.299,0-0.54-0.166-0.721-0.498
				c-0.181-0.334-0.271-0.816-0.271-1.451v-12.975c0-0.551,0.039-0.982,0.115-1.297c0.09-0.344,0.239-0.625,0.449-0.844
				c0.209-0.217,0.435-0.326,0.678-0.326c0.189,0,0.353,0.051,0.488,0.148c0.135,0.1,0.254,0.234,0.356,0.402
				s0.207,0.387,0.313,0.654c0.107,0.268,0.218,0.547,0.332,0.838l4.064,9.91v-10.002c0-0.65,0.088-1.139,0.262-1.463
				c0.174-0.326,0.408-0.488,0.705-0.488c0.305,0,0.546,0.162,0.723,0.488c0.176,0.324,0.264,0.813,0.264,1.463V135.342z
				 M207.882,137.066c-0.202,0.326-0.445,0.488-0.73,0.488c-0.166,0-0.309-0.047-0.427-0.143c-0.119-0.096-0.219-0.227-0.3-0.391
				s-0.167-0.416-0.26-0.756s-0.172-0.639-0.238-0.898l-0.499-2.109h-4.245l-0.499,2.154c-0.194,0.84-0.36,1.408-0.498,1.701
				c-0.138,0.295-0.363,0.441-0.677,0.441c-0.267,0-0.501-0.156-0.706-0.471c-0.203-0.313-0.306-0.668-0.306-1.066
				c0-0.229,0.023-0.467,0.071-0.711c0.047-0.244,0.126-0.586,0.235-1.021l2.671-10.92c0.076-0.314,0.167-0.691,0.274-1.131
				c0.106-0.439,0.221-0.805,0.342-1.096c0.121-0.289,0.28-0.525,0.478-0.705c0.196-0.18,0.439-0.27,0.729-0.27
				c0.295,0,0.54,0.09,0.737,0.27s0.356,0.412,0.478,0.693c0.121,0.283,0.224,0.588,0.306,0.912c0.084,0.326,0.189,0.76,0.317,1.303
				l2.729,10.852c0.214,0.826,0.32,1.426,0.32,1.801C208.185,136.385,208.084,136.742,207.882,137.066z M208.209,98.848V87.945
				c0-0.125-0.047-0.188-0.14-0.188c-0.296,0-0.73,0.006-1.306,0.02c-0.575,0.012-1.002,0.018-1.282,0.018
				c-0.218,0-0.408-0.131-0.571-0.393c-0.163-0.264-0.244-0.568-0.244-0.918v-1.611c0-0.35,0.081-0.656,0.244-0.918
				s0.354-0.395,0.571-0.395c0.28,0,0.707-0.006,1.282-0.018c0.575-0.014,1.01-0.02,1.306-0.02c0.093,0,0.14-0.063,0.14-0.188
				v-4.758c0-0.375,0.078-0.693,0.232-0.955c0.156-0.264,0.35-0.395,0.584-0.395h1.305c0.233,0,0.428,0.131,0.583,0.395
				c0.155,0.262,0.233,0.58,0.233,0.955v4.684c0,0.125,0.039,0.188,0.117,0.188c3.325-0.1,5.766-0.188,7.32-0.264
				c0.076,0,0.115-0.063,0.115-0.188v-5.32c0-0.373,0.078-0.686,0.233-0.936s0.35-0.375,0.583-0.375h1.236
				c0.232,0,0.427,0.125,0.582,0.375s0.233,0.563,0.233,0.936v5.135c0,0.125,0.038,0.186,0.116,0.186
				c0.264-0.023,0.656-0.049,1.178-0.074c0.52-0.025,0.912-0.049,1.178-0.074c0.217-0.025,0.407,0.094,0.57,0.355
				s0.252,0.568,0.268,0.918l0.047,1.611c0.016,0.375-0.059,0.693-0.221,0.955c-0.164,0.264-0.361,0.406-0.595,0.432
				c-0.265,0.025-0.669,0.049-1.212,0.074c-0.545,0.025-0.949,0.051-1.213,0.074c-0.078,0-0.116,0.063-0.116,0.188v5.883
				c0,1.949-0.206,3.311-0.618,4.084c-0.412,0.775-1.115,1.162-2.109,1.162c-1.011,0-2.387-0.336-4.127-1.012
				c-0.217-0.1-0.385-0.313-0.501-0.637s-0.151-0.662-0.104-1.012l0.232-1.762c0.047-0.35,0.172-0.617,0.373-0.805
				c0.203-0.188,0.412-0.244,0.63-0.168c1.259,0.475,2.168,0.711,2.728,0.711c0.295,0,0.474-0.088,0.536-0.262
				c0.062-0.176,0.093-0.713,0.093-1.611v-4.422c0-0.125-0.039-0.188-0.115-0.188c-3.172,0.15-5.611,0.25-7.32,0.301
				c-0.078,0-0.117,0.063-0.117,0.188v10.939c0,1.5,0.112,2.58,0.338,3.242s0.648,1.117,1.271,1.367s1.64,0.375,3.054,0.375
				c1.975,0,3.924-0.188,5.852-0.563c0.218-0.049,0.42,0.043,0.606,0.281c0.187,0.236,0.288,0.531,0.304,0.881l0.093,1.723
				c0.03,0.375-0.024,0.713-0.163,1.012c-0.141,0.301-0.326,0.463-0.56,0.488c-2.052,0.373-4.096,0.561-6.132,0.561
				c-2.113,0-3.699-0.268-4.756-0.805s-1.795-1.449-2.215-2.736C208.418,103.389,208.209,101.445,208.209,98.848z M217.961,135.02
				c-0.299,0.752-0.701,1.309-1.209,1.668c-0.318,0.215-0.686,0.365-1.1,0.453c-0.414,0.09-0.896,0.133-1.448,0.133h-3.198
				c-0.461,0-0.791-0.166-0.988-0.5c-0.197-0.332-0.296-0.861-0.296-1.59v-12.648c0-0.742,0.101-1.277,0.304-1.602
				c0.201-0.326,0.529-0.488,0.981-0.488h3.39c0.5,0,0.934,0.051,1.3,0.15s0.694,0.291,0.985,0.574
				c0.246,0.236,0.464,0.537,0.654,0.902c0.189,0.363,0.334,0.766,0.434,1.205c0.1,0.441,0.148,0.906,0.148,1.396
				c0,1.686-0.521,2.92-1.564,3.701c1.371,0.703,2.056,2.07,2.056,4.104C218.409,133.42,218.26,134.266,217.961,135.02z
				 M227.407,136.889c-0.181,0.258-0.444,0.385-0.792,0.385h-5.11c-0.46,0-0.79-0.164-0.991-0.494
				c-0.201-0.328-0.302-0.859-0.302-1.594V122.23c0-0.689,0.096-1.205,0.288-1.551c0.191-0.344,0.443-0.516,0.756-0.516
				c0.317,0,0.574,0.17,0.771,0.512c0.196,0.34,0.295,0.857,0.295,1.555v12.246h4.294c0.343,0,0.605,0.135,0.789,0.402
				c0.183,0.268,0.274,0.604,0.274,1.008C227.679,136.299,227.588,136.633,227.407,136.889z M236.864,136.902
				c-0.169,0.248-0.42,0.371-0.753,0.371h-5.753c-0.459,0-0.79-0.164-0.991-0.494c-0.201-0.328-0.301-0.859-0.301-1.596v-12.648
				c0-0.49,0.045-0.891,0.135-1.199c0.09-0.311,0.23-0.537,0.422-0.678c0.192-0.143,0.438-0.213,0.735-0.213h5.589
				c0.338,0,0.589,0.121,0.753,0.361s0.246,0.557,0.246,0.945c0,0.398-0.082,0.717-0.246,0.957s-0.415,0.361-0.753,0.361h-4.771
				v4.141h4.394c0.323,0,0.565,0.117,0.724,0.352c0.16,0.234,0.239,0.543,0.239,0.926c0,0.385-0.078,0.697-0.235,0.938
				c-0.156,0.242-0.399,0.363-0.728,0.363h-4.394v4.781h4.936c0.333,0,0.584,0.125,0.753,0.373s0.253,0.578,0.253,0.99
				C237.117,136.33,237.033,136.654,236.864,136.902z M232.74,106.773c-1.15-1.137-1.725-2.779-1.725-4.928
				c0-1.648,0.488-3.041,1.469-4.178c0.979-1.137,2.33-1.705,4.056-1.705c1.771,0,3.054,0.475,3.847,1.424s1.189,2.348,1.189,4.197
				c0,0.574-0.047,1.186-0.141,1.836c-0.016,0.025-0.012,0.057,0.012,0.094s0.051,0.043,0.082,0.018
				c1.585-1.074,2.378-2.984,2.378-5.732c0-1.723-0.377-3.021-1.131-3.896c-0.754-0.873-1.954-1.311-3.603-1.311
				c-1.508,0-2.93,0.25-4.266,0.748c-1.337,0.5-2.782,1.338-4.336,2.512c-0.202,0.148-0.416,0.174-0.641,0.074
				c-0.227-0.1-0.393-0.313-0.502-0.637l-0.326-1.125c-0.109-0.324-0.133-0.662-0.07-1.012s0.194-0.623,0.396-0.824l10.164-9.891
				l0.023-0.037l-0.023-0.039h-8.462c-0.233,0-0.428-0.123-0.583-0.373s-0.232-0.563-0.232-0.938v-1.498
				c0-0.375,0.077-0.688,0.232-0.938s0.35-0.375,0.583-0.375h13.194c0.233,0,0.432,0.125,0.595,0.375s0.245,0.563,0.245,0.938
				l0.023,1.572c0,0.9-0.234,1.563-0.699,1.986l-6.947,6.182v0.039h0.047c1.025-0.326,1.965-0.488,2.82-0.488
				c2.223,0,3.904,0.738,5.047,2.211c1.143,1.475,1.714,3.572,1.714,6.295c0,3.547-0.801,6.289-2.401,8.225
				c-1.602,1.936-3.878,2.904-6.83,2.904C235.623,108.479,233.891,107.91,232.74,106.773z M254.601,123.215l-1.74,11.322
				c-0.119,0.766-0.218,1.326-0.296,1.682c-0.079,0.355-0.212,0.668-0.399,0.936c-0.188,0.266-0.453,0.4-0.796,0.4
				c-0.323,0-0.582-0.131-0.777-0.391s-0.33-0.551-0.406-0.877c-0.076-0.324-0.184-0.881-0.321-1.668l-1.69-10.08l-1.711,10.08
				c-0.134,0.764-0.239,1.313-0.317,1.646c-0.079,0.332-0.216,0.631-0.41,0.895c-0.195,0.262-0.454,0.395-0.778,0.395
				c-0.261,0-0.477-0.078-0.645-0.234c-0.169-0.158-0.306-0.379-0.41-0.666c-0.105-0.287-0.19-0.627-0.257-1.021
				c-0.067-0.393-0.126-0.758-0.179-1.096l-1.74-11.322c-0.104-0.656-0.156-1.158-0.156-1.502c0-0.436,0.095-0.803,0.285-1.102
				c0.189-0.299,0.425-0.447,0.706-0.447c0.385,0,0.644,0.199,0.777,0.598c0.133,0.396,0.249,0.975,0.349,1.732l1.37,9.826
				l1.533-9.195c0.114-0.703,0.217-1.238,0.307-1.605c0.091-0.367,0.237-0.686,0.442-0.953c0.204-0.268,0.482-0.402,0.834-0.402
				c0.357,0,0.634,0.141,0.831,0.42s0.334,0.582,0.41,0.912c0.076,0.328,0.179,0.873,0.307,1.629l1.548,9.195l1.369-9.826
				c0.066-0.512,0.13-0.914,0.189-1.205s0.162-0.551,0.307-0.781c0.145-0.229,0.355-0.344,0.631-0.344
				c0.276,0,0.51,0.146,0.703,0.441c0.192,0.295,0.289,0.664,0.289,1.107C254.758,122.027,254.705,122.527,254.601,123.215z
				 M264.813,137.066c-0.202,0.326-0.445,0.488-0.73,0.488c-0.166,0-0.309-0.047-0.428-0.143s-0.219-0.227-0.299-0.391
				c-0.081-0.164-0.168-0.416-0.26-0.756c-0.093-0.34-0.173-0.639-0.239-0.898l-0.498-2.109h-4.245l-0.499,2.154
				c-0.195,0.84-0.361,1.408-0.499,1.701c-0.138,0.295-0.363,0.441-0.677,0.441c-0.266,0-0.501-0.156-0.705-0.471
				c-0.204-0.313-0.306-0.668-0.306-1.066c0-0.229,0.023-0.467,0.07-0.711c0.048-0.244,0.126-0.586,0.235-1.021l2.671-10.92
				c0.076-0.314,0.168-0.691,0.274-1.131c0.107-0.439,0.222-0.805,0.343-1.096c0.121-0.289,0.279-0.525,0.477-0.705
				s0.44-0.27,0.73-0.27c0.294,0,0.54,0.09,0.737,0.27c0.196,0.18,0.356,0.412,0.478,0.693c0.121,0.283,0.223,0.588,0.306,0.912
				c0.083,0.326,0.188,0.76,0.317,1.303l2.728,10.852c0.214,0.826,0.321,1.426,0.321,1.801
				C265.115,136.385,265.014,136.742,264.813,137.066z M274.117,134.963c-0.325,0.811-0.801,1.445-1.428,1.904
				s-1.37,0.688-2.229,0.688c-1.03,0-1.88-0.313-2.55-0.939c-0.474-0.451-0.858-1.055-1.154-1.807
				c-0.297-0.754-0.444-1.486-0.444-2.197c0-0.412,0.089-0.766,0.267-1.061s0.403-0.441,0.679-0.441
				c0.223,0,0.411,0.113,0.564,0.344c0.154,0.229,0.286,0.57,0.395,1.021c0.134,0.535,0.277,0.982,0.432,1.342
				c0.155,0.359,0.372,0.656,0.653,0.889s0.649,0.35,1.106,0.35c0.628,0,1.138-0.234,1.53-0.705s0.59-1.057,0.59-1.762
				c0-0.557-0.106-1.01-0.318-1.359c-0.212-0.348-0.485-0.613-0.821-0.797c-0.335-0.184-0.784-0.379-1.346-0.584
				c-0.75-0.283-1.378-0.615-1.883-0.992c-0.505-0.379-0.906-0.896-1.203-1.549c-0.297-0.654-0.444-1.467-0.444-2.439
				c0-0.924,0.156-1.746,0.47-2.465c0.313-0.721,0.767-1.273,1.359-1.658c0.594-0.387,1.291-0.58,2.094-0.58
				c0.641,0,1.194,0.129,1.662,0.385s0.855,0.596,1.164,1.021c0.309,0.424,0.534,0.869,0.677,1.336s0.214,0.922,0.214,1.365
				c0,0.406-0.089,0.771-0.267,1.096c-0.178,0.326-0.398,0.488-0.664,0.488c-0.241,0-0.424-0.098-0.55-0.293
				s-0.262-0.516-0.408-0.961c-0.19-0.633-0.419-1.127-0.686-1.482s-0.694-0.533-1.285-0.533c-0.548,0-0.989,0.193-1.324,0.58
				c-0.336,0.385-0.503,0.85-0.503,1.393c0,0.338,0.057,0.627,0.171,0.873c0.114,0.244,0.271,0.455,0.472,0.631
				c0.199,0.176,0.401,0.313,0.606,0.412c0.204,0.1,0.542,0.244,1.014,0.436c0.588,0.223,1.12,0.467,1.597,0.734
				s0.883,0.594,1.217,0.975c0.335,0.383,0.596,0.867,0.783,1.451c0.188,0.586,0.281,1.303,0.281,2.15
				C274.605,133.238,274.442,134.152,274.117,134.963z M284.02,122.873c-0.182,0.256-0.452,0.385-0.813,0.385h-2.312v12.221
				c0,0.703-0.098,1.225-0.292,1.566c-0.195,0.34-0.447,0.51-0.756,0.51c-0.313,0-0.568-0.172-0.766-0.516
				c-0.197-0.346-0.296-0.865-0.296-1.561v-12.221h-2.312c-0.361,0-0.63-0.129-0.806-0.385s-0.264-0.594-0.264-1.016
				c0-0.436,0.091-0.781,0.274-1.033c0.183-0.252,0.448-0.379,0.795-0.379h6.732c0.366,0,0.638,0.131,0.816,0.391
				s0.268,0.602,0.268,1.021C284.29,122.279,284.199,122.617,284.02,122.873z M293.338,136.902c-0.169,0.248-0.42,0.371-0.753,0.371
				h-5.753c-0.459,0-0.789-0.164-0.99-0.494c-0.201-0.328-0.303-0.859-0.303-1.596v-12.648c0-0.49,0.045-0.891,0.135-1.199
				c0.09-0.311,0.231-0.537,0.423-0.678c0.192-0.143,0.438-0.213,0.735-0.213h5.589c0.338,0,0.589,0.121,0.753,0.361
				s0.246,0.557,0.246,0.945c0,0.398-0.082,0.717-0.246,0.957s-0.415,0.361-0.753,0.361h-4.772v4.141h4.395
				c0.323,0,0.564,0.117,0.725,0.352c0.158,0.234,0.238,0.543,0.238,0.926c0,0.385-0.078,0.697-0.235,0.938
				c-0.157,0.242-0.399,0.363-0.728,0.363h-4.395v4.781h4.937c0.333,0,0.584,0.125,0.753,0.373s0.253,0.578,0.253,0.99
				C293.591,136.33,293.507,136.654,293.338,136.902z M293.691,104.318l-0.14,2.324c-0.016,0.35-0.12,0.629-0.314,0.842
				s-0.4,0.293-0.618,0.244c-5.424-1.449-10.77-2.348-16.039-2.697c-0.217-0.025-0.408-0.176-0.57-0.449
				c-0.164-0.275-0.237-0.588-0.222-0.938l0.069-2.324c0.016-0.35,0.109-0.654,0.28-0.916c0.171-0.264,0.364-0.381,0.583-0.357
				c5.145,0.35,10.561,1.262,16.248,2.736c0.233,0.049,0.42,0.225,0.56,0.523C293.668,103.607,293.723,103.943,293.691,104.318z
				 M236.377,99.711c-0.777,0-1.371,0.205-1.783,0.617s-0.617,0.918-0.617,1.518c0,1.748,1.32,2.623,3.963,2.623h0.489
				c0.077,0,0.132-0.063,0.163-0.188c0.232-0.873,0.35-1.598,0.35-2.174c0-0.773-0.187-1.367-0.56-1.779
				S237.34,99.711,236.377,99.711z"/>
		</g>
	</g>
</g>
</svg>
