<?xml version="1.0" encoding="utf-8"?>
<!-- Generator: Adobe Illustrator 12.0.0, SVG Export Plug-In . SVG Version: 6.00 Build 51448)  -->
<!DOCTYPE svg PUBLIC "-//W3C//DTD SVG 1.1//EN" "http://www.w3.org/Graphics/SVG/1.1/DTD/svg11.dtd" [
	<!ENTITY ns_svg "http://www.w3.org/2000/svg">
	<!ENTITY ns_xlink "http://www.w3.org/1999/xlink">
]>
<svg  version="1.1" id="レイヤー_1" xmlns="&ns_svg;" xmlns:xlink="&ns_xlink;" width="114.948" height="41.529"
	 viewBox="0 0 114.948 41.529" overflow="visible" enable-background="new 0 0 114.948 41.529" xml:space="preserve">
<g>
	<g>
		<g>
			<path fill="#FFFFFF" d="M53.351,27.887c-0.196-0.206-0.431-0.354-0.701-0.441c-0.274-0.092-0.666-0.139-1.176-0.139h-1.722
				c-0.295,0-0.511,0.074-0.646,0.223s-0.203,0.396-0.203,0.743v5.997c0,0.313,0.062,0.548,0.186,0.709s0.286,0.241,0.489,0.241
				c0.192,0,0.353-0.081,0.479-0.243c0.126-0.163,0.189-0.401,0.189-0.716v-2.198h1.229c0.822,0,1.44-0.205,1.855-0.613
				c0.416-0.41,0.623-1.012,0.623-1.805c0-0.371-0.051-0.707-0.152-1.004C53.698,28.344,53.548,28.092,53.351,27.887z
				 M52.428,30.372c-0.111,0.177-0.273,0.305-0.485,0.382c-0.212,0.078-0.477,0.116-0.793,0.116h-0.903v-2.377h0.903
				c0.6,0,0.996,0.115,1.188,0.345c0.172,0.216,0.257,0.495,0.257,0.839C52.595,29.962,52.54,30.194,52.428,30.372z M59.551,33.84
				h-3.128v-2.211h2.784c0.208,0,0.362-0.057,0.461-0.168c0.1-0.111,0.15-0.256,0.15-0.434s-0.051-0.32-0.152-0.429
				c-0.101-0.108-0.254-0.163-0.459-0.163h-2.784v-1.914h3.024c0.214,0,0.372-0.057,0.477-0.168s0.156-0.258,0.156-0.441
				c0-0.181-0.052-0.326-0.156-0.438s-0.263-0.168-0.477-0.168h-3.545c-0.19,0-0.346,0.033-0.468,0.099
				c-0.123,0.065-0.213,0.17-0.27,0.313c-0.058,0.143-0.086,0.328-0.086,0.555v5.851c0,0.34,0.063,0.586,0.191,0.738
				c0.129,0.151,0.339,0.228,0.632,0.228h3.648c0.211,0,0.37-0.057,0.478-0.172c0.106-0.114,0.16-0.264,0.16-0.448
				c0-0.19-0.054-0.343-0.16-0.457C59.921,33.898,59.762,33.84,59.551,33.84z M65.56,27.307h-4.266c-0.22,0-0.388,0.059-0.504,0.176
				c-0.116,0.116-0.174,0.275-0.174,0.479c0,0.193,0.055,0.35,0.167,0.469c0.111,0.119,0.282,0.178,0.511,0.178h1.465v5.652
				c0,0.322,0.063,0.563,0.188,0.722c0.124,0.159,0.286,0.238,0.485,0.238c0.195,0,0.355-0.078,0.479-0.235s0.186-0.399,0.186-0.725
				v-5.652h1.464c0.229,0,0.401-0.059,0.516-0.178s0.172-0.275,0.172-0.469c0-0.195-0.057-0.354-0.169-0.474
				C65.964,27.368,65.792,27.307,65.56,27.307z M73.554,30.975c0.661-0.361,0.992-0.932,0.992-1.712
				c0-0.227-0.031-0.442-0.095-0.646c-0.063-0.204-0.155-0.39-0.275-0.559c-0.12-0.168-0.259-0.307-0.415-0.417
				c-0.185-0.131-0.393-0.22-0.624-0.266c-0.232-0.046-0.507-0.069-0.823-0.069h-2.148c-0.286,0-0.494,0.076-0.622,0.227
				s-0.192,0.396-0.192,0.74v5.851c0,0.336,0.063,0.581,0.188,0.735c0.126,0.153,0.334,0.23,0.627,0.23h2.026
				c0.35,0,0.655-0.021,0.918-0.061c0.263-0.041,0.494-0.111,0.696-0.21c0.322-0.166,0.578-0.424,0.768-0.771
				c0.189-0.349,0.284-0.74,0.284-1.175C74.858,31.933,74.423,31.3,73.554,30.975z M70.696,28.493h1.09
				c0.488,0,0.852,0.064,1.09,0.194c0.238,0.129,0.357,0.391,0.357,0.784c0,0.185-0.038,0.352-0.113,0.5
				c-0.097,0.209-0.236,0.352-0.418,0.426c-0.183,0.074-0.441,0.111-0.776,0.111h-1.229V28.493z M72.138,33.905h-1.442v-2.269h1.397
				c0.467,0,0.818,0.088,1.054,0.265c0.234,0.178,0.353,0.462,0.353,0.854C73.5,33.522,73.045,33.905,72.138,33.905z M80.707,27.668
				c-0.492-0.327-1.082-0.491-1.769-0.491c-0.507,0-0.958,0.093-1.356,0.278c-0.397,0.186-0.735,0.454-1.013,0.805
				c-0.276,0.35-0.488,0.773-0.635,1.272c-0.146,0.499-0.219,1.048-0.219,1.646c0,0.583,0.07,1.126,0.21,1.628
				c0.141,0.503,0.348,0.933,0.622,1.29c0.273,0.356,0.615,0.634,1.025,0.83c0.409,0.196,0.873,0.294,1.392,0.294
				c0.521,0,0.984-0.095,1.388-0.286s0.744-0.467,1.021-0.827c0.276-0.361,0.485-0.787,0.624-1.279
				c0.138-0.491,0.207-1.038,0.207-1.64c0-0.813-0.126-1.521-0.38-2.124C81.572,28.461,81.2,27.996,80.707,27.668z M80.59,32.734
				c-0.17,0.421-0.399,0.732-0.688,0.935c-0.287,0.201-0.604,0.302-0.947,0.302c-0.269,0-0.515-0.059-0.739-0.175
				c-0.225-0.117-0.424-0.293-0.598-0.528c-0.173-0.235-0.307-0.532-0.402-0.89c-0.095-0.357-0.143-0.757-0.143-1.199
				c0-0.439,0.048-0.835,0.143-1.187c0.096-0.353,0.225-0.642,0.39-0.868c0.164-0.227,0.359-0.399,0.587-0.519
				c0.229-0.118,0.477-0.178,0.745-0.178c0.376,0,0.71,0.108,1.001,0.321c0.291,0.215,0.515,0.53,0.672,0.948
				c0.157,0.417,0.235,0.911,0.235,1.481C80.846,31.793,80.761,32.312,80.59,32.734z M87.658,27.307h-4.267
				c-0.22,0-0.388,0.059-0.504,0.176c-0.116,0.116-0.174,0.275-0.174,0.479c0,0.193,0.056,0.35,0.167,0.469s0.282,0.178,0.511,0.178
				h1.465v5.652c0,0.322,0.063,0.563,0.188,0.722s0.287,0.238,0.485,0.238c0.196,0,0.355-0.078,0.479-0.235
				c0.124-0.157,0.186-0.399,0.186-0.725v-5.652h1.465c0.229,0,0.4-0.059,0.516-0.178c0.114-0.119,0.171-0.275,0.171-0.469
				c0-0.195-0.057-0.354-0.169-0.474C88.062,27.368,87.889,27.307,87.658,27.307z M93.445,27.307h-4.266
				c-0.22,0-0.388,0.059-0.504,0.176c-0.116,0.116-0.174,0.275-0.174,0.479c0,0.193,0.056,0.35,0.167,0.469s0.282,0.178,0.511,0.178
				h1.465v5.652c0,0.322,0.063,0.563,0.187,0.722c0.126,0.159,0.287,0.238,0.486,0.238c0.195,0,0.355-0.078,0.479-0.235
				c0.124-0.157,0.186-0.399,0.186-0.725v-5.652h1.464c0.229,0,0.4-0.059,0.516-0.178c0.114-0.119,0.172-0.275,0.172-0.469
				c0-0.195-0.057-0.354-0.17-0.474C93.85,27.368,93.677,27.307,93.445,27.307z M98.964,33.797h-2.721v-5.664
				c0-0.322-0.063-0.563-0.188-0.72c-0.125-0.157-0.288-0.236-0.491-0.236c-0.199,0-0.359,0.08-0.481,0.239S94.9,27.814,94.9,28.133
				v5.991c0,0.34,0.063,0.586,0.191,0.738c0.128,0.151,0.339,0.228,0.632,0.228h3.241c0.22,0,0.388-0.059,0.502-0.178
				c0.114-0.118,0.172-0.272,0.172-0.464c0-0.187-0.059-0.343-0.175-0.466C99.348,33.859,99.181,33.797,98.964,33.797z
				 M104.994,33.84h-3.128v-2.211h2.784c0.208,0,0.361-0.057,0.461-0.168s0.149-0.256,0.149-0.434s-0.051-0.32-0.151-0.429
				c-0.102-0.108-0.254-0.163-0.459-0.163h-2.784v-1.914h3.024c0.213,0,0.372-0.057,0.477-0.168
				c0.104-0.111,0.156-0.258,0.156-0.441c0-0.181-0.053-0.326-0.156-0.438c-0.104-0.111-0.264-0.168-0.477-0.168h-3.545
				c-0.19,0-0.347,0.033-0.469,0.099s-0.212,0.17-0.27,0.313c-0.058,0.143-0.085,0.328-0.085,0.555v5.851
				c0,0.34,0.063,0.586,0.192,0.738c0.128,0.151,0.338,0.228,0.631,0.228h3.648c0.211,0,0.37-0.057,0.477-0.172
				c0.107-0.114,0.16-0.264,0.16-0.448c0-0.19-0.053-0.343-0.16-0.457C105.364,33.898,105.205,33.84,104.994,33.84z M111.556,31.759
				c-0.119-0.271-0.284-0.494-0.496-0.671c-0.213-0.177-0.471-0.327-0.773-0.451c-0.302-0.124-0.641-0.237-1.014-0.34
				c-0.299-0.088-0.513-0.155-0.642-0.201c-0.13-0.046-0.258-0.109-0.385-0.191c-0.127-0.081-0.227-0.179-0.299-0.291
				c-0.072-0.113-0.107-0.248-0.107-0.404c0-0.25,0.105-0.465,0.318-0.645c0.212-0.178,0.492-0.268,0.839-0.268
				c0.373,0,0.645,0.082,0.813,0.246s0.313,0.394,0.434,0.687c0.094,0.206,0.181,0.354,0.26,0.444
				c0.08,0.09,0.197,0.135,0.351,0.135c0.168,0,0.309-0.074,0.422-0.225s0.169-0.32,0.169-0.507c0-0.206-0.045-0.416-0.136-0.632
				c-0.09-0.216-0.233-0.422-0.429-0.618c-0.196-0.196-0.442-0.354-0.739-0.473c-0.297-0.118-0.648-0.178-1.056-0.178
				c-0.509,0-0.952,0.089-1.328,0.269c-0.377,0.178-0.665,0.434-0.863,0.767c-0.199,0.332-0.298,0.713-0.298,1.141
				c0,0.449,0.094,0.825,0.282,1.128s0.443,0.541,0.764,0.716c0.321,0.175,0.72,0.328,1.195,0.459
				c0.356,0.096,0.641,0.186,0.853,0.271c0.213,0.085,0.386,0.208,0.521,0.369c0.134,0.16,0.201,0.37,0.201,0.628
				c0,0.325-0.125,0.598-0.373,0.814c-0.249,0.218-0.571,0.326-0.97,0.326c-0.29,0-0.523-0.054-0.701-0.161
				c-0.178-0.108-0.315-0.245-0.414-0.411c-0.098-0.167-0.188-0.373-0.272-0.621c-0.069-0.208-0.153-0.366-0.252-0.473
				c-0.098-0.105-0.218-0.158-0.358-0.158c-0.175,0-0.319,0.067-0.432,0.204c-0.113,0.136-0.17,0.3-0.17,0.49
				c0,0.329,0.094,0.668,0.282,1.017c0.188,0.348,0.434,0.627,0.734,0.835c0.425,0.29,0.965,0.435,1.618,0.435
				c0.545,0,1.017-0.105,1.414-0.317c0.397-0.213,0.7-0.506,0.906-0.881s0.31-0.797,0.31-1.269
				C111.735,32.361,111.675,32.03,111.556,31.759z"/>
		</g>
		<g>
			<path d="M53.351,27.887c-0.196-0.206-0.431-0.354-0.701-0.441c-0.274-0.092-0.666-0.139-1.176-0.139h-1.722
				c-0.295,0-0.511,0.074-0.646,0.223s-0.203,0.396-0.203,0.743v5.997c0,0.313,0.062,0.548,0.186,0.709s0.286,0.241,0.489,0.241
				c0.192,0,0.353-0.081,0.479-0.243c0.126-0.163,0.189-0.401,0.189-0.716v-2.198h1.229c0.822,0,1.44-0.205,1.855-0.613
				c0.416-0.41,0.623-1.012,0.623-1.805c0-0.371-0.051-0.707-0.152-1.004C53.698,28.344,53.548,28.092,53.351,27.887z
				 M52.428,30.372c-0.111,0.177-0.273,0.305-0.485,0.382c-0.212,0.078-0.477,0.116-0.793,0.116h-0.903v-2.377h0.903
				c0.6,0,0.996,0.115,1.188,0.345c0.172,0.216,0.257,0.495,0.257,0.839C52.595,29.962,52.54,30.194,52.428,30.372z M59.551,33.84
				h-3.128v-2.211h2.784c0.208,0,0.362-0.057,0.461-0.168c0.1-0.111,0.15-0.256,0.15-0.434s-0.051-0.32-0.152-0.429
				c-0.101-0.108-0.254-0.163-0.459-0.163h-2.784v-1.914h3.024c0.214,0,0.372-0.057,0.477-0.168s0.156-0.258,0.156-0.441
				c0-0.181-0.052-0.326-0.156-0.438s-0.263-0.168-0.477-0.168h-3.545c-0.19,0-0.346,0.033-0.468,0.099
				c-0.123,0.065-0.213,0.17-0.27,0.313c-0.058,0.143-0.086,0.328-0.086,0.555v5.851c0,0.34,0.063,0.586,0.191,0.738
				c0.129,0.151,0.339,0.228,0.632,0.228h3.648c0.211,0,0.37-0.057,0.478-0.172c0.106-0.114,0.16-0.264,0.16-0.448
				c0-0.19-0.054-0.343-0.16-0.457C59.921,33.898,59.762,33.84,59.551,33.84z M65.56,27.307h-4.266c-0.22,0-0.388,0.059-0.504,0.176
				c-0.116,0.116-0.174,0.275-0.174,0.479c0,0.193,0.055,0.35,0.167,0.469c0.111,0.119,0.282,0.178,0.511,0.178h1.465v5.652
				c0,0.322,0.063,0.563,0.188,0.722c0.124,0.159,0.286,0.238,0.485,0.238c0.195,0,0.355-0.078,0.479-0.235s0.186-0.399,0.186-0.725
				v-5.652h1.464c0.229,0,0.401-0.059,0.516-0.178s0.172-0.275,0.172-0.469c0-0.195-0.057-0.354-0.169-0.474
				C65.964,27.368,65.792,27.307,65.56,27.307z M73.554,30.975c0.661-0.361,0.992-0.932,0.992-1.712
				c0-0.227-0.031-0.442-0.095-0.646c-0.063-0.204-0.155-0.39-0.275-0.559c-0.12-0.168-0.259-0.307-0.415-0.417
				c-0.185-0.131-0.393-0.22-0.624-0.266c-0.232-0.046-0.507-0.069-0.823-0.069h-2.148c-0.286,0-0.494,0.076-0.622,0.227
				s-0.192,0.396-0.192,0.74v5.851c0,0.336,0.063,0.581,0.188,0.735c0.126,0.153,0.334,0.23,0.627,0.23h2.026
				c0.35,0,0.655-0.021,0.918-0.061c0.263-0.041,0.494-0.111,0.696-0.21c0.322-0.166,0.578-0.424,0.768-0.771
				c0.189-0.349,0.284-0.74,0.284-1.175C74.858,31.933,74.423,31.3,73.554,30.975z M70.696,28.493h1.09
				c0.488,0,0.852,0.064,1.09,0.194c0.238,0.129,0.357,0.391,0.357,0.784c0,0.185-0.038,0.352-0.113,0.5
				c-0.097,0.209-0.236,0.352-0.418,0.426c-0.183,0.074-0.441,0.111-0.776,0.111h-1.229V28.493z M72.138,33.905h-1.442v-2.269h1.397
				c0.467,0,0.818,0.088,1.054,0.265c0.234,0.178,0.353,0.462,0.353,0.854C73.5,33.522,73.045,33.905,72.138,33.905z M80.707,27.668
				c-0.492-0.327-1.082-0.491-1.769-0.491c-0.507,0-0.958,0.093-1.356,0.278c-0.397,0.186-0.735,0.454-1.013,0.805
				c-0.276,0.35-0.488,0.773-0.635,1.272c-0.146,0.499-0.219,1.048-0.219,1.646c0,0.583,0.07,1.126,0.21,1.628
				c0.141,0.503,0.348,0.933,0.622,1.29c0.273,0.356,0.615,0.634,1.025,0.83c0.409,0.196,0.873,0.294,1.392,0.294
				c0.521,0,0.984-0.095,1.388-0.286s0.744-0.467,1.021-0.827c0.276-0.361,0.485-0.787,0.624-1.279
				c0.138-0.491,0.207-1.038,0.207-1.64c0-0.813-0.126-1.521-0.38-2.124C81.572,28.461,81.2,27.996,80.707,27.668z M80.59,32.734
				c-0.17,0.421-0.399,0.732-0.688,0.935c-0.287,0.201-0.604,0.302-0.947,0.302c-0.269,0-0.515-0.059-0.739-0.175
				c-0.225-0.117-0.424-0.293-0.598-0.528c-0.173-0.235-0.307-0.532-0.402-0.89c-0.095-0.357-0.143-0.757-0.143-1.199
				c0-0.439,0.048-0.835,0.143-1.187c0.096-0.353,0.225-0.642,0.39-0.868c0.164-0.227,0.359-0.399,0.587-0.519
				c0.229-0.118,0.477-0.178,0.745-0.178c0.376,0,0.71,0.108,1.001,0.321c0.291,0.215,0.515,0.53,0.672,0.948
				c0.157,0.417,0.235,0.911,0.235,1.481C80.846,31.793,80.761,32.312,80.59,32.734z M87.658,27.307h-4.267
				c-0.22,0-0.388,0.059-0.504,0.176c-0.116,0.116-0.174,0.275-0.174,0.479c0,0.193,0.056,0.35,0.167,0.469s0.282,0.178,0.511,0.178
				h1.465v5.652c0,0.322,0.063,0.563,0.188,0.722s0.287,0.238,0.485,0.238c0.196,0,0.355-0.078,0.479-0.235
				c0.124-0.157,0.186-0.399,0.186-0.725v-5.652h1.465c0.229,0,0.4-0.059,0.516-0.178c0.114-0.119,0.171-0.275,0.171-0.469
				c0-0.195-0.057-0.354-0.169-0.474C88.062,27.368,87.889,27.307,87.658,27.307z M93.445,27.307h-4.266
				c-0.22,0-0.388,0.059-0.504,0.176c-0.116,0.116-0.174,0.275-0.174,0.479c0,0.193,0.056,0.35,0.167,0.469s0.282,0.178,0.511,0.178
				h1.465v5.652c0,0.322,0.063,0.563,0.187,0.722c0.126,0.159,0.287,0.238,0.486,0.238c0.195,0,0.355-0.078,0.479-0.235
				c0.124-0.157,0.186-0.399,0.186-0.725v-5.652h1.464c0.229,0,0.4-0.059,0.516-0.178c0.114-0.119,0.172-0.275,0.172-0.469
				c0-0.195-0.057-0.354-0.17-0.474C93.85,27.368,93.677,27.307,93.445,27.307z M98.964,33.797h-2.721v-5.664
				c0-0.322-0.063-0.563-0.188-0.72c-0.125-0.157-0.288-0.236-0.491-0.236c-0.199,0-0.359,0.08-0.481,0.239S94.9,27.814,94.9,28.133
				v5.991c0,0.34,0.063,0.586,0.191,0.738c0.128,0.151,0.339,0.228,0.632,0.228h3.241c0.22,0,0.388-0.059,0.502-0.178
				c0.114-0.118,0.172-0.272,0.172-0.464c0-0.187-0.059-0.343-0.175-0.466C99.348,33.859,99.181,33.797,98.964,33.797z
				 M104.994,33.84h-3.128v-2.211h2.784c0.208,0,0.361-0.057,0.461-0.168s0.149-0.256,0.149-0.434s-0.051-0.32-0.151-0.429
				c-0.102-0.108-0.254-0.163-0.459-0.163h-2.784v-1.914h3.024c0.213,0,0.372-0.057,0.477-0.168
				c0.104-0.111,0.156-0.258,0.156-0.441c0-0.181-0.053-0.326-0.156-0.438c-0.104-0.111-0.264-0.168-0.477-0.168h-3.545
				c-0.19,0-0.347,0.033-0.469,0.099s-0.212,0.17-0.27,0.313c-0.058,0.143-0.085,0.328-0.085,0.555v5.851
				c0,0.34,0.063,0.586,0.192,0.738c0.128,0.151,0.338,0.228,0.631,0.228h3.648c0.211,0,0.37-0.057,0.477-0.172
				c0.107-0.114,0.16-0.264,0.16-0.448c0-0.19-0.053-0.343-0.16-0.457C105.364,33.898,105.205,33.84,104.994,33.84z M111.556,31.759
				c-0.119-0.271-0.284-0.494-0.496-0.671c-0.213-0.177-0.471-0.327-0.773-0.451c-0.302-0.124-0.641-0.237-1.014-0.34
				c-0.299-0.088-0.513-0.155-0.642-0.201c-0.13-0.046-0.258-0.109-0.385-0.191c-0.127-0.081-0.227-0.179-0.299-0.291
				c-0.072-0.113-0.107-0.248-0.107-0.404c0-0.25,0.105-0.465,0.318-0.645c0.212-0.178,0.492-0.268,0.839-0.268
				c0.373,0,0.645,0.082,0.813,0.246s0.313,0.394,0.434,0.687c0.094,0.206,0.181,0.354,0.26,0.444
				c0.08,0.09,0.197,0.135,0.351,0.135c0.168,0,0.309-0.074,0.422-0.225s0.169-0.32,0.169-0.507c0-0.206-0.045-0.416-0.136-0.632
				c-0.09-0.216-0.233-0.422-0.429-0.618c-0.196-0.196-0.442-0.354-0.739-0.473c-0.297-0.118-0.648-0.178-1.056-0.178
				c-0.509,0-0.952,0.089-1.328,0.269c-0.377,0.178-0.665,0.434-0.863,0.767c-0.199,0.332-0.298,0.713-0.298,1.141
				c0,0.449,0.094,0.825,0.282,1.128s0.443,0.541,0.764,0.716c0.321,0.175,0.72,0.328,1.195,0.459
				c0.356,0.096,0.641,0.186,0.853,0.271c0.213,0.085,0.386,0.208,0.521,0.369c0.134,0.16,0.201,0.37,0.201,0.628
				c0,0.325-0.125,0.598-0.373,0.814c-0.249,0.218-0.571,0.326-0.97,0.326c-0.29,0-0.523-0.054-0.701-0.161
				c-0.178-0.108-0.315-0.245-0.414-0.411c-0.098-0.167-0.188-0.373-0.272-0.621c-0.069-0.208-0.153-0.366-0.252-0.473
				c-0.098-0.105-0.218-0.158-0.358-0.158c-0.175,0-0.319,0.067-0.432,0.204c-0.113,0.136-0.17,0.3-0.17,0.49
				c0,0.329,0.094,0.668,0.282,1.017c0.188,0.348,0.434,0.627,0.734,0.835c0.425,0.29,0.965,0.435,1.618,0.435
				c0.545,0,1.017-0.105,1.414-0.317c0.397-0.213,0.7-0.506,0.906-0.881s0.31-0.797,0.31-1.269
				C111.735,32.361,111.675,32.03,111.556,31.759z"/>
		</g>
	</g>
	<g>
		<g>
			
				<ellipse transform="matrix(0.9246 -0.381 0.381 0.9246 -0.7896 6.6594)" fill="none" stroke="#FFFFFF" stroke-width="1.311" stroke-linecap="round" stroke-linejoin="round" cx="16.427" cy="5.324" rx="3.617" ry="1.282"/>
			<path fill="none" stroke="#FFFFFF" stroke-width="1.311" stroke-linecap="round" stroke-linejoin="round" d="M13.455,6.922
				l0.584,1.823c-0.726,0.662-1.093,1.29-0.931,1.685c0.327,0.793,2.669,0.58,5.231-0.477s4.375-2.555,4.049-3.348
				c-0.167-0.406-0.861-0.61-1.843-0.572l-1.002-1.81"/>
			<path fill="none" stroke="#FFFFFF" stroke-width="1.311" stroke-linecap="round" stroke-linejoin="round" d="M14.379,8.926
				c0,0,0.616,0.848,3.777-0.385c0,0,2.235-1.002,2.698-2.235"/>
			<path fill="none" stroke="#FFFFFF" stroke-width="1.311" stroke-linecap="round" stroke-linejoin="round" d="M15.15,10.776
				l0.54,1.156c0,0,0.154,0.232-0.54,0.848c0,0-7.246,4.779-4.934,10.561l4.472,9.944l0.23,0.462c0,0,2.022,1.732,2.716,3.969"/>
			<path fill="none" stroke="#FFFFFF" stroke-width="1.311" stroke-linecap="round" stroke-linejoin="round" d="M21.548,8.001
				l0.539,1.387c0,0,0.154,0.54,0.849,0.231c0,0,7.246-1.927,10.483,2.621l5.011,11.254c0,0-0.694,2.467,0.153,3.932l4.778,10.868"
				/>
			<path fill="none" stroke="#FFFFFF" stroke-width="1.311" stroke-linecap="round" stroke-linejoin="round" d="M11.681,20.875
				c0,0,11.101,0.386,19.503-8.711"/>
			<path fill="none" stroke="#FFFFFF" stroke-width="1.311" stroke-linecap="round" stroke-linejoin="round" d="M17.308,33.053
				c0,0,10.406,0.387,19.349-8.479"/>
			<path fill="none" stroke="#FFFFFF" stroke-width="1.311" stroke-linecap="round" stroke-linejoin="round" d="M35.846,38.294
				c0,0-3.275-6.551-1.656-8.169c0,0,1.174-0.812,5.414,7.591"/>
			<path fill="none" stroke="#FFFFFF" stroke-width="1.311" stroke-linecap="round" stroke-linejoin="round" d="M28.909,38.005
				c-0.542-1.619-1.12-4.475-0.423-5.337c0,0,1.482-0.503,4.181,5.048"/>
			<path fill="none" stroke="#FFFFFF" stroke-width="1.311" stroke-linecap="round" stroke-linejoin="round" d="M22.26,38.294
				c-0.311-0.99-0.249-3.236,0.521-3.853c0,0,1.628,0.467,3.813,3.853"/>
		</g>
	</g>
</g>
</svg>
