<?xml version="1.0" encoding="utf-8"?>
<!-- Generator: Adobe Illustrator 12.0.0, SVG Export Plug-In . SVG Version: 6.00 Build 51448)  -->
<!DOCTYPE svg PUBLIC "-//W3C//DTD SVG 1.1//EN" "http://www.w3.org/Graphics/SVG/1.1/DTD/svg11.dtd" [
	<!ENTITY ns_svg "http://www.w3.org/2000/svg">
	<!ENTITY ns_xlink "http://www.w3.org/1999/xlink">
]>
<svg  version="1.1" id="レイヤー_1" xmlns="&ns_svg;" xmlns:xlink="&ns_xlink;" width="497.063" height="179.582"
	 viewBox="0 0 497.063 179.582" overflow="visible" enable-background="new 0 0 497.063 179.582" xml:space="preserve">
<g>
	<g>
		<g>
			<path fill="#FFFFFF" d="M221.187,123.209h-3.906v10.281h3.906c1.367,0,2.51-0.168,3.428-0.505c0.918-0.336,1.618-0.887,2.1-1.652
				c0.481-0.765,0.723-1.768,0.723-3.006c0-1.484-0.371-2.693-1.113-3.627C225.49,123.706,223.777,123.209,221.187,123.209z
				 M314.379,131.444c0.788-0.322,1.391-0.936,1.809-1.84c0.326-0.645,0.489-1.365,0.489-2.162c0-1.703-0.515-2.834-1.545-3.394
				s-2.601-0.84-4.714-0.84h-4.713v8.719h5.319C312.472,131.928,313.59,131.767,314.379,131.444z M482.389,0.5H14.674
				C6.879,0.5,0.5,6.878,0.5,14.674v150.235c0,7.796,6.379,14.173,14.174,14.173h467.715c7.795,0,14.174-6.377,14.174-14.173V14.674
				C496.563,6.878,490.184,0.5,482.389,0.5z M385.86,30.152c0.14-0.699,0.412-1.225,0.816-1.574l1.492-1.199
				c0.435-0.35,0.869-0.411,1.305-0.187s0.762,0.662,0.979,1.311l2.099,6.52c0.217,0.7,0.256,1.375,0.116,2.024
				c-0.141,0.649-0.428,1.148-0.862,1.498l-1.492,1.199c-0.436,0.35-0.87,0.399-1.306,0.149s-0.762-0.725-0.979-1.424
				c-0.436-1.398-1.119-3.496-2.051-6.295C385.76,31.526,385.721,30.852,385.86,30.152z M390.173,83.283
				c-0.187,0.699-0.497,1.174-0.932,1.423l-2.611,1.574c-0.436,0.25-0.87,0.225-1.306-0.075c-0.436-0.299-0.73-0.773-0.886-1.424
				c-2.145-8.492-4.134-15.937-5.968-22.331c-0.187-0.699-0.202-1.374-0.047-2.023s0.45-1.099,0.886-1.349l2.472-1.574
				c0.435-0.25,0.869-0.237,1.305,0.037c0.436,0.275,0.746,0.737,0.934,1.387c2.145,7.344,4.195,14.788,6.154,22.331
				C390.359,81.909,390.359,82.584,390.173,83.283z M378.867,31.163c0.14-0.674,0.411-1.187,0.815-1.536l1.399-1.124
				c0.403-0.35,0.822-0.424,1.258-0.225c0.436,0.2,0.762,0.625,0.979,1.274c0.933,2.798,1.616,4.921,2.052,6.369
				c0.217,0.65,0.248,1.324,0.093,2.023s-0.435,1.199-0.839,1.499l-1.398,1.124c-0.436,0.3-0.863,0.337-1.283,0.112
				s-0.738-0.661-0.955-1.312c-0.156-0.449-0.366-1.099-0.63-1.948s-0.505-1.624-0.723-2.323s-0.436-1.349-0.652-1.948
				C378.766,32.5,378.727,31.838,378.867,31.163z M350.729,45.289c0-0.749,0.155-1.373,0.466-1.873s0.699-0.75,1.166-0.75h14.688
				c0.154,0,0.232-0.124,0.232-0.374v-9.218c0-0.749,0.155-1.373,0.466-1.873s0.699-0.75,1.166-0.75h3.171
				c0.466,0,0.854,0.25,1.165,0.75s0.467,1.124,0.467,1.873v9.218c0,0.25,0.077,0.374,0.233,0.374h13.661
				c0.466,0,0.854,0.25,1.165,0.75s0.467,1.124,0.467,1.873v3.747c0,0.75-0.156,1.374-0.467,1.874s-0.699,0.749-1.165,0.749h-13.661
				c-0.156,0-0.233,0.125-0.233,0.374v30.875c0,4.996-0.381,8.117-1.143,9.367c-0.762,1.248-2.665,1.873-5.711,1.873
				c-1.461,0-3.389-0.2-5.782-0.6c-0.467-0.1-0.848-0.425-1.143-0.974c-0.295-0.551-0.427-1.2-0.396-1.949l0.187-3.597
				c0.062-0.699,0.264-1.286,0.605-1.761s0.73-0.687,1.166-0.638c1.616,0.301,2.938,0.45,3.963,0.45c0.901,0,1.43-0.162,1.585-0.487
				c0.155-0.324,0.233-1.336,0.233-3.035V52.033c0-0.249-0.078-0.374-0.232-0.374H352.36c-0.467,0-0.855-0.249-1.166-0.749
				s-0.466-1.124-0.466-1.874V45.289z M311.085,34.573c0-0.749,0.155-1.373,0.466-1.873s0.699-0.75,1.166-0.75h3.217
				c0.466,0,0.862,0.25,1.188,0.75s0.49,1.124,0.49,1.873v17.984c0,0.25,0.077,0.426,0.233,0.525
				c7.646,2.998,15.51,6.794,23.592,11.39c0.436,0.25,0.754,0.713,0.956,1.387c0.201,0.675,0.225,1.361,0.07,2.061l-0.933,4.422
				c-0.125,0.699-0.396,1.199-0.816,1.499s-0.847,0.324-1.282,0.074c-7.057-4.046-14.252-7.568-21.587-10.566
				c-0.156-0.1-0.233-0.024-0.233,0.226v27.651c0,0.749-0.164,1.373-0.49,1.874c-0.326,0.499-0.723,0.749-1.188,0.749h-3.217
				c-0.467,0-0.855-0.25-1.166-0.749c-0.311-0.501-0.466-1.125-0.466-1.874V34.573z M272.21,48.549
				c0.232-0.624,0.567-1.011,1.003-1.161l2.191-0.824c0.466-0.15,0.893-0.025,1.281,0.374c0.389,0.4,0.645,0.949,0.77,1.648
				c0.933,5.346,1.772,10.442,2.519,15.288c0.124,0.699,0.062,1.374-0.187,2.023c-0.249,0.649-0.591,1.049-1.026,1.198l-2.191,0.824
				c-0.436,0.15-0.847,0.039-1.235-0.336s-0.646-0.912-0.77-1.612c-0.622-4.146-1.461-9.292-2.518-15.437
				C271.922,49.836,271.977,49.174,272.21,48.549z M238.791,31.95c1.461-2.348,3.217-3.522,5.269-3.522
				c2.051,0,3.808,1.175,5.269,3.522c1.461,2.349,2.191,5.172,2.191,8.469s-0.73,6.12-2.191,8.468s-3.218,3.521-5.269,3.521
				c-2.052,0-3.808-1.174-5.269-3.521s-2.191-5.171-2.191-8.468S237.33,34.299,238.791,31.95z M198.927,153.57
				c0,7.795-6.377,14.174-14.173,14.174H28.849c-7.796,0-14.173-6.379-14.173-14.174V26.012c0-7.795,6.377-14.174,14.173-14.174
				h155.905c7.796,0,14.173,6.379,14.173,14.174V153.57z M209.044,74.853c-0.063-0.725,0.047-1.361,0.326-1.911
				c0.87-1.849,2.237-4.834,4.103-8.955s2.859-6.308,2.984-6.558c3.077-7.094,5.105-11.364,6.085-12.813
				c0.979-1.449,2.354-2.174,4.126-2.174c1.243,0,2.269,0.3,3.077,0.899s1.663,1.574,2.564,2.923
				c0.901,1.35,2.533,4.097,4.896,8.243c5.688,9.792,10.476,17.885,14.361,24.279c0.342,0.5,0.513,1.124,0.513,1.874
				s-0.171,1.399-0.513,1.948l-2.285,3.821c-0.311,0.5-0.684,0.75-1.119,0.75s-0.823-0.25-1.165-0.75
				c-3.886-6.295-8.704-14.513-14.454-24.654c-2.052-3.646-3.428-5.995-4.127-7.044s-1.282-1.574-1.748-1.574
				c-0.373,0-0.863,0.612-1.469,1.836c-0.606,1.225-1.687,3.585-3.24,7.082c-2.643,6.096-5.145,11.616-7.507,16.562
				c-0.279,0.6-0.652,0.961-1.119,1.086s-0.886-0.037-1.259-0.487l-2.378-2.697C209.323,76.139,209.106,75.577,209.044,74.853z
				 M230.617,135.993c-1.797,1.77-4.471,2.653-8.024,2.653h-5.313v9.509c0,1.359-0.274,2.391-0.822,3.094
				c-0.548,0.702-1.239,1.054-2.074,1.054c-0.874,0-1.579-0.349-2.114-1.044c-0.535-0.696-0.802-1.717-0.802-3.064v-25.934
				c0-1.499,0.293-2.57,0.88-3.213c0.586-0.643,1.518-0.964,2.795-0.964h7.446c2.202,0,3.896,0.199,5.082,0.598
				c1.171,0.383,2.183,1.019,3.035,1.907s1.499,1.976,1.942,3.262c0.441,1.287,0.663,2.734,0.663,4.342
				C233.312,131.624,232.413,134.224,230.617,135.993z M259.578,150.996c-0.463,0.496-1.15,0.744-2.063,0.744h-15.777
				c-1.266,0-2.176-0.329-2.73-0.987s-0.831-1.722-0.831-3.191v-25.299c0-0.98,0.124-1.779,0.372-2.399s0.636-1.071,1.164-1.354
				s1.203-0.425,2.025-0.425h15.328c0.924,0,1.611,0.241,2.062,0.722c0.45,0.482,0.675,1.113,0.675,1.893
				c0,0.795-0.225,1.432-0.675,1.914c-0.45,0.48-1.138,0.722-2.062,0.722h-13.077v8.281h12.041c0.886,0,1.548,0.234,1.983,0.702
				c0.438,0.469,0.655,1.086,0.655,1.854s-0.216,1.393-0.646,1.875c-0.43,0.484-1.094,0.726-1.993,0.726h-12.041v9.563h13.526
				c0.912,0,1.6,0.249,2.063,0.745c0.462,0.496,0.693,1.156,0.693,1.98C260.271,149.854,260.04,150.5,259.578,150.996z
				 M262.186,50.497c0.232-0.624,0.567-1.011,1.003-1.161l2.052-0.824c0.435-0.149,0.854-0.037,1.258,0.338s0.668,0.911,0.793,1.61
				c0.684,3.747,1.523,8.718,2.518,14.912c0.124,0.7,0.062,1.362-0.187,1.986c-0.248,0.625-0.59,1.012-1.025,1.161l-2.191,0.824
				c-0.436,0.15-0.847,0.039-1.235-0.336s-0.646-0.912-0.77-1.612c-0.871-5.744-1.663-10.715-2.378-14.912
				C261.897,51.784,261.952,51.122,262.186,50.497z M285.729,122.94c-0.496,0.512-1.238,0.769-2.229,0.769h-6.333v24.44
				c0,1.407-0.267,2.451-0.801,3.133c-0.534,0.68-1.224,1.021-2.07,1.021c-0.859,0-1.56-0.345-2.1-1.032
				c-0.54-0.689-0.811-1.729-0.811-3.121v-24.44h-6.333c-0.99,0-1.727-0.257-2.209-0.769c-0.482-0.514-0.723-1.19-0.723-2.032
				c0-0.872,0.25-1.562,0.752-2.066s1.229-0.758,2.18-0.758H283.5c1.003,0,1.749,0.261,2.238,0.78
				c0.488,0.521,0.732,1.202,0.732,2.044S286.223,122.427,285.729,122.94z M286.851,80.436c-3.436,6.494-9.069,10.59-16.901,12.289
				c-0.467,0.1-0.886-0.076-1.259-0.524c-0.373-0.45-0.606-1.05-0.7-1.799l-0.419-3.147c-0.094-0.699-0.016-1.336,0.232-1.91
				s0.591-0.912,1.026-1.012c4.413-1.049,7.871-2.823,10.373-5.321s4.352-6.119,5.549-10.865s1.889-11.141,2.075-19.185
				c0.031-0.699,0.21-1.298,0.536-1.798s0.707-0.725,1.143-0.675l2.284,0.149c0.466,0.051,0.862,0.363,1.188,0.938
				s0.475,1.236,0.443,1.985C292.143,63.649,290.285,73.941,286.851,80.436z M322.475,147.231c-0.819,1.506-1.926,2.619-3.317,3.337
				c-0.874,0.429-1.878,0.731-3.013,0.907c-1.134,0.177-2.457,0.265-3.97,0.265h-8.762c-1.265,0-2.168-0.333-2.709-0.999
				s-0.812-1.725-0.812-3.18v-25.299c0-1.484,0.277-2.553,0.831-3.203s1.45-0.976,2.689-0.976h9.29c1.369,0,2.556,0.1,3.56,0.299
				s1.903,0.583,2.699,1.149c0.677,0.475,1.275,1.076,1.796,1.804s0.917,1.532,1.19,2.413s0.41,1.813,0.41,2.793
				c0,3.371-1.432,5.838-4.294,7.4c3.76,1.406,5.641,4.143,5.641,8.209C323.705,144.032,323.295,145.726,322.475,147.231z
				 M354.576,141.956c-0.6,2.125-1.499,3.969-2.697,5.529c-1.199,1.56-2.671,2.752-4.416,3.578c-1.746,0.826-3.746,1.239-6,1.239
				c-2.241,0-4.248-0.425-6.02-1.273s-3.25-2.046-4.436-3.591s-2.082-3.402-2.688-5.574s-0.908-4.52-0.908-7.044
				c0-2.585,0.316-4.956,0.947-7.112c0.633-2.156,1.547-3.992,2.746-5.506c1.198-1.514,2.658-2.673,4.377-3.477
				c1.721-0.803,3.674-1.204,5.863-1.204c2.971,0,5.521,0.708,7.65,2.122c2.13,1.416,3.742,3.427,4.837,6.034
				c1.095,2.608,1.642,5.671,1.642,9.188C355.475,137.467,355.175,139.829,354.576,141.956z M354.505,86.018
				c-0.436,0.275-0.87,0.263-1.305-0.037l-2.518-1.724c-0.404-0.25-0.685-0.712-0.84-1.387c-0.156-0.674-0.141-1.336,0.047-1.985
				c2.176-7.244,4.165-14.388,5.968-21.433c0.187-0.699,0.489-1.186,0.909-1.461c0.42-0.274,0.847-0.312,1.282-0.112l2.564,1.349
				c0.435,0.25,0.745,0.688,0.932,1.312c0.187,0.625,0.202,1.262,0.048,1.911c-1.865,7.494-3.901,14.862-6.108,22.106
				C355.267,85.256,354.94,85.743,354.505,86.018z M381.281,122.94c-0.496,0.512-1.238,0.769-2.229,0.769h-6.333v24.44
				c0,1.407-0.267,2.451-0.801,3.133c-0.534,0.68-1.224,1.021-2.07,1.021c-0.859,0-1.56-0.345-2.1-1.032
				c-0.54-0.689-0.811-1.729-0.811-3.121v-24.44h-6.333c-0.99,0-1.727-0.257-2.209-0.769c-0.482-0.514-0.723-1.19-0.723-2.032
				c0-0.872,0.25-1.562,0.752-2.066s1.229-0.758,2.18-0.758h18.447c1.003,0,1.749,0.261,2.238,0.78
				c0.488,0.521,0.732,1.202,0.732,2.044S381.775,122.427,381.281,122.94z M406.309,122.94c-0.496,0.512-1.238,0.769-2.229,0.769
				h-6.333v24.44c0,1.407-0.267,2.451-0.801,3.133c-0.534,0.68-1.224,1.021-2.07,1.021c-0.859,0-1.56-0.345-2.1-1.032
				c-0.54-0.689-0.811-1.729-0.811-3.121v-24.44h-6.333c-0.99,0-1.727-0.257-2.209-0.769c-0.482-0.514-0.723-1.19-0.723-2.032
				c0-0.872,0.25-1.562,0.752-2.066s1.229-0.758,2.18-0.758h18.447c1.003,0,1.749,0.261,2.238,0.78
				c0.488,0.521,0.732,1.202,0.732,2.044S406.803,122.427,406.309,122.94z M430.117,150.972c-0.495,0.513-1.219,0.769-2.17,0.769
				H413.93c-1.266,0-2.176-0.329-2.73-0.987c-0.555-0.657-0.831-1.721-0.831-3.189v-25.911c0-1.377,0.265-2.409,0.792-3.099
				c0.529-0.688,1.224-1.032,2.085-1.032c0.874,0,1.581,0.341,2.123,1.021s0.813,1.718,0.813,3.11v24.493h11.767
				c0.938,0,1.658,0.268,2.16,0.803s0.753,1.208,0.753,2.017C430.86,149.792,430.612,150.46,430.117,150.972z M433.99,73.841
				c-0.42,0.3-0.847,0.324-1.282,0.074c-7.057-4.046-14.252-7.568-21.587-10.566c-0.156-0.1-0.233-0.024-0.233,0.226v27.651
				c0,0.749-0.164,1.373-0.49,1.874c-0.326,0.499-0.723,0.749-1.188,0.749h-3.217c-0.467,0-0.855-0.25-1.166-0.749
				c-0.311-0.501-0.466-1.125-0.466-1.874V34.573c0-0.749,0.155-1.373,0.466-1.873s0.699-0.75,1.166-0.75h3.217
				c0.466,0,0.862,0.25,1.188,0.75s0.49,1.124,0.49,1.873v17.984c0,0.25,0.077,0.426,0.233,0.525
				c7.646,2.998,15.51,6.794,23.592,11.39c0.436,0.25,0.754,0.713,0.956,1.387c0.201,0.675,0.225,1.361,0.07,2.061l-0.933,4.422
				C434.682,73.041,434.41,73.541,433.99,73.841z M456.08,150.996c-0.463,0.496-1.149,0.744-2.062,0.744h-15.776
				c-1.266,0-2.176-0.329-2.73-0.987s-0.832-1.722-0.832-3.191v-25.299c0-0.98,0.123-1.779,0.371-2.399s0.637-1.071,1.165-1.354
				s1.204-0.425,2.026-0.425h15.326c0.926,0,1.613,0.241,2.063,0.722c0.449,0.482,0.675,1.113,0.675,1.893
				c0,0.795-0.226,1.432-0.675,1.914c-0.449,0.48-1.137,0.722-2.063,0.722h-13.076v8.281h12.041c0.886,0,1.547,0.234,1.984,0.702
				c0.436,0.469,0.654,1.086,0.654,1.854s-0.215,1.393-0.645,1.875c-0.431,0.484-1.096,0.726-1.994,0.726h-12.041v9.563h13.526
				c0.912,0,1.599,0.249,2.062,0.745s0.694,1.156,0.694,1.98C456.774,149.854,456.543,150.5,456.08,150.996z M457.339,48.661
				c0,9.543-0.304,17.062-0.909,22.557c-0.606,5.496-1.586,9.792-2.938,12.89c-1.353,3.098-3.334,5.77-5.944,8.018
				c-0.436,0.35-0.879,0.437-1.329,0.263c-0.451-0.176-0.801-0.588-1.049-1.236l-1.585-4.047c-0.249-0.6-0.319-1.236-0.21-1.911
				c0.108-0.674,0.365-1.187,0.77-1.536c1.491-1.398,2.656-2.811,3.496-4.234c0.839-1.424,1.522-3.484,2.052-6.182
				c0.528-2.697,0.878-5.883,1.049-9.555s0.257-8.68,0.257-15.025V36.072c0-0.749,0.155-1.373,0.466-1.873s0.699-0.75,1.166-0.75
				h3.077c0.466,0,0.854,0.25,1.165,0.75s0.467,1.124,0.467,1.873V48.661z M481.831,147.118c-0.893,1.621-2.198,2.891-3.918,3.809
				c-1.72,0.917-3.759,1.376-6.116,1.376c-2.826,0-5.158-0.627-6.995-1.881c-1.304-0.902-2.362-2.106-3.177-3.612
				c-0.814-1.507-1.221-2.971-1.221-4.394c0-0.825,0.244-1.533,0.732-2.122s1.111-0.883,1.867-0.883
				c0.611,0,1.129,0.229,1.553,0.688s0.785,1.141,1.086,2.043c0.364,1.07,0.758,1.965,1.182,2.684s1.021,1.312,1.789,1.777
				c0.77,0.467,1.779,0.7,3.031,0.7c1.721,0,3.118-0.47,4.193-1.411c1.075-0.939,1.613-2.114,1.613-3.521
				c0-1.116-0.29-2.022-0.87-2.719c-0.58-0.695-1.329-1.227-2.249-1.594c-0.918-0.367-2.146-0.758-3.686-1.17
				c-2.059-0.566-3.782-1.229-5.17-1.985c-1.389-0.757-2.489-1.79-3.304-3.097c-0.814-1.309-1.222-2.934-1.222-4.877
				c0-1.85,0.43-3.494,1.289-4.933c0.86-1.438,2.104-2.544,3.733-3.315c1.628-0.773,3.544-1.159,5.745-1.159
				c1.76,0,3.281,0.257,4.564,0.769c1.283,0.514,2.348,1.193,3.195,2.043c0.846,0.85,1.465,1.74,1.855,2.674
				c0.391,0.933,0.587,1.843,0.587,2.73c0,0.811-0.244,1.541-0.732,2.191s-1.097,0.975-1.825,0.975
				c-0.664,0-1.168-0.195-1.514-0.586c-0.344-0.391-0.719-1.031-1.122-1.921c-0.521-1.267-1.147-2.256-1.877-2.966
				s-1.903-1.065-3.519-1.065c-1.5,0-2.709,0.386-3.627,1.159c-0.92,0.771-1.379,1.701-1.379,2.787c0,0.673,0.156,1.254,0.469,1.744
				c0.313,0.488,0.743,0.91,1.291,1.262c0.547,0.352,1.102,0.627,1.662,0.825s1.485,0.489,2.775,0.872
				c1.615,0.443,3.077,0.934,4.386,1.469s2.423,1.185,3.341,1.949s1.634,1.732,2.148,2.902c0.514,1.17,0.771,2.604,0.771,4.301
				C483.17,143.671,482.724,145.497,481.831,147.118z M485.454,61.326c-1.617,20.583-8.408,31.023-20.375,31.323
				c-0.467,0-0.863-0.263-1.189-0.786c-0.326-0.525-0.489-1.162-0.489-1.911v-53.88c0-0.749,0.163-1.373,0.489-1.873
				s0.723-0.75,1.189-0.75h3.123c0.467,0,0.863,0.25,1.189,0.75s0.489,1.124,0.489,1.873v45.712c0,0.3,0.077,0.399,0.233,0.299
				c2.734-1.198,4.856-3.559,6.364-7.081c1.508-3.521,2.525-8.505,3.054-14.95c0.063-0.749,0.272-1.349,0.63-1.798
				s0.753-0.625,1.188-0.525l2.658,0.6c0.466,0.101,0.839,0.438,1.118,1.013S485.516,60.577,485.454,61.326z M345.678,124.317
				c-1.258-0.926-2.702-1.39-4.332-1.39c-1.16,0-2.233,0.257-3.218,0.769c-0.984,0.514-1.832,1.26-2.542,2.239
				c-0.711,0.979-1.271,2.231-1.683,3.754s-0.616,3.233-0.616,5.131c0,1.913,0.205,3.643,0.616,5.188s0.991,2.828,1.741,3.846
				c0.749,1.018,1.609,1.779,2.581,2.285c0.972,0.504,2.038,0.757,3.198,0.757c1.486,0,2.853-0.437,4.098-1.309
				s2.236-2.22,2.973-4.04c0.736-1.822,1.105-4.064,1.105-6.728c0-2.464-0.34-4.599-1.018-6.405S346.936,125.243,345.678,124.317z
				 M244.059,45.664c0.901,0,1.671-0.512,2.309-1.536c0.637-1.023,0.956-2.26,0.956-3.709s-0.319-2.686-0.956-3.71
				c-0.638-1.023-1.407-1.536-2.309-1.536s-1.671,0.513-2.308,1.536c-0.637,1.024-0.955,2.261-0.955,3.71s0.318,2.686,0.955,3.709
				C242.388,45.152,243.157,45.664,244.059,45.664z M316.305,137.949c-1.018-0.765-2.536-1.146-4.557-1.146h-6.043v9.813h6.238
				c3.924,0,5.887-1.658,5.887-4.976C317.83,139.944,317.321,138.714,316.305,137.949z"/>
		</g>
	</g>
	<g>
		<g>
			
				<ellipse transform="matrix(0.9246 -0.381 0.381 0.9246 -3.4141 28.799)" fill="none" stroke="#FFFFFF" stroke-width="5.6693" stroke-linecap="round" stroke-linejoin="round" cx="71.031" cy="23.022" rx="15.641" ry="5.545"/>
			<path fill="none" stroke="#FFFFFF" stroke-width="5.6693" stroke-linecap="round" stroke-linejoin="round" d="M58.18,29.933
				l2.525,7.887c-3.138,2.861-4.725,5.578-4.022,7.283c1.413,3.43,11.542,2.506,22.622-2.061
				c11.082-4.566,18.919-11.049,17.508-14.477c-0.725-1.754-3.727-2.639-7.971-2.473l-4.329-7.826"/>
			<path fill="none" stroke="#FFFFFF" stroke-width="5.6693" stroke-linecap="round" stroke-linejoin="round" d="M62.18,38.599
				c0,0,2.666,3.668,16.333-1.666c0,0,9.667-4.332,11.667-9.666"/>
			<path fill="none" stroke="#FFFFFF" stroke-width="5.6693" stroke-linecap="round" stroke-linejoin="round" d="M65.513,46.599
				l2.333,5c0,0,0.667,1.002-2.333,3.668c0,0-31.333,20.666-21.333,45.666l19.333,43l1,2c0,0,8.744,7.492,11.744,17.16"/>
			<path fill="none" stroke="#FFFFFF" stroke-width="5.6693" stroke-linecap="round" stroke-linejoin="round" d="M93.18,34.599
				l2.333,6c0,0,0.667,2.334,3.667,1c0,0,31.334-8.332,45.334,11.334l21.666,48.666c0,0-3,10.668,0.666,17l20.661,46.994"/>
			<path fill="none" stroke="#FFFFFF" stroke-width="5.6693" stroke-linecap="round" stroke-linejoin="round" d="M50.513,90.267
				c0,0,48.001,1.666,84.333-37.668"/>
			<path fill="none" stroke="#FFFFFF" stroke-width="5.6693" stroke-linecap="round" stroke-linejoin="round" d="M74.846,142.933
				c0,0,45,1.668,83.668-36.666"/>
			<path fill="none" stroke="#FFFFFF" stroke-width="5.6693" stroke-linecap="round" stroke-linejoin="round" d="M155.007,165.593
				c0,0-14.161-28.326-7.161-35.326c0,0,5.077-3.508,23.411,32.826"/>
			<path fill="none" stroke="#FFFFFF" stroke-width="5.6693" stroke-linecap="round" stroke-linejoin="round" d="M125.007,164.343
				c-2.344-7-4.843-19.35-1.827-23.076c0,0,6.41-2.176,18.077,21.826"/>
			<path fill="none" stroke="#FFFFFF" stroke-width="5.6693" stroke-linecap="round" stroke-linejoin="round" d="M96.257,165.593
				c-1.341-4.281-1.077-13.994,2.256-16.658c0,0,7.043,2.018,16.494,16.658"/>
		</g>
	</g>
</g>
</svg>
