<?xml version="1.0" encoding="utf-8"?>
<!-- Generator: Adobe Illustrator 12.0.0, SVG Export Plug-In . SVG Version: 6.00 Build 51448)  -->
<!DOCTYPE svg PUBLIC "-//W3C//DTD SVG 1.1//EN" "http://www.w3.org/Graphics/SVG/1.1/DTD/svg11.dtd" [
	<!ENTITY ns_svg "http://www.w3.org/2000/svg">
	<!ENTITY ns_xlink "http://www.w3.org/1999/xlink">
]>
<svg  version="1.1" id="レイヤー_1" xmlns="&ns_svg;" xmlns:xlink="&ns_xlink;" width="354.331" height="212.598"
	 viewBox="0 0 354.331 212.598" overflow="visible" enable-background="new 0 0 354.331 212.598" xml:space="preserve">
<rect fill="none" width="354.331" height="212.598"/>
<g>
	<g>
		<g>
			<path fill="#FFFFFF" d="M163.494,123.008h-1.953v5.141h1.953c0.684,0,1.254-0.084,1.713-0.252
				c0.459-0.168,0.81-0.443,1.051-0.826c0.24-0.382,0.361-0.884,0.361-1.503c0-0.742-0.186-1.347-0.557-1.813
				C165.646,123.257,164.789,123.008,163.494,123.008z M211.053,130.378c-0.509-0.382-1.268-0.573-2.278-0.573h-3.021v4.906h3.119
				c1.962,0,2.943-0.829,2.943-2.488C211.815,131.376,211.561,130.761,211.053,130.378z M294.095,61.654H60.237
				c-3.897,0-7.087,3.189-7.087,7.087v75.118c0,3.898,3.189,7.086,7.087,7.086h233.857c3.897,0,7.087-3.188,7.087-7.086V68.741
				C301.182,64.843,297.992,61.654,294.095,61.654z M245.83,76.48c0.07-0.35,0.207-0.612,0.408-0.787l0.746-0.6
				c0.218-0.175,0.436-0.206,0.652-0.093c0.219,0.112,0.381,0.331,0.49,0.655l1.049,3.26c0.109,0.35,0.129,0.688,0.059,1.012
				s-0.214,0.574-0.432,0.749l-0.746,0.6c-0.217,0.175-0.435,0.2-0.652,0.075s-0.381-0.362-0.49-0.712
				c-0.217-0.699-0.559-1.748-1.025-3.147C245.78,77.167,245.761,76.83,245.83,76.48z M247.986,103.045
				c-0.093,0.35-0.248,0.587-0.465,0.711l-1.307,0.787c-0.217,0.125-0.435,0.112-0.652-0.038c-0.218-0.149-0.365-0.387-0.443-0.712
				c-1.072-4.246-2.066-7.968-2.983-11.166c-0.093-0.35-0.101-0.687-0.023-1.012s0.226-0.549,0.442-0.674l1.236-0.787
				c0.217-0.125,0.435-0.119,0.652,0.019c0.218,0.138,0.373,0.369,0.467,0.693c1.072,3.672,2.098,7.394,3.077,11.166
				C248.08,102.358,248.08,102.696,247.986,103.045z M242.334,76.985c0.07-0.337,0.205-0.593,0.408-0.768l0.699-0.562
				c0.201-0.175,0.411-0.212,0.629-0.112c0.218,0.1,0.381,0.313,0.49,0.637c0.466,1.399,0.808,2.46,1.025,3.185
				c0.108,0.325,0.124,0.662,0.047,1.012c-0.078,0.35-0.218,0.6-0.42,0.75l-0.699,0.562c-0.218,0.15-0.432,0.168-0.642,0.056
				s-0.369-0.331-0.478-0.656c-0.078-0.225-0.184-0.549-0.314-0.974c-0.133-0.425-0.253-0.812-0.361-1.162
				c-0.109-0.35-0.219-0.674-0.326-0.974C242.283,77.654,242.264,77.323,242.334,76.985z M228.265,84.048
				c0-0.375,0.077-0.687,0.233-0.937c0.154-0.25,0.35-0.375,0.582-0.375h7.344c0.078,0,0.117-0.062,0.117-0.187v-4.609
				c0-0.375,0.077-0.687,0.232-0.937s0.35-0.375,0.583-0.375h1.585c0.233,0,0.428,0.125,0.583,0.375s0.233,0.562,0.233,0.937v4.609
				c0,0.125,0.039,0.187,0.117,0.187h6.83c0.232,0,0.428,0.125,0.582,0.375c0.156,0.25,0.234,0.562,0.234,0.937v1.874
				c0,0.375-0.078,0.687-0.234,0.937c-0.154,0.25-0.35,0.375-0.582,0.375h-6.83c-0.078,0-0.117,0.063-0.117,0.187v15.438
				c0,2.498-0.19,4.059-0.571,4.684c-0.381,0.624-1.333,0.937-2.855,0.937c-0.73,0-1.694-0.1-2.892-0.3
				c-0.232-0.05-0.424-0.212-0.57-0.487c-0.148-0.275-0.214-0.6-0.198-0.975l0.093-1.798c0.031-0.35,0.133-0.643,0.303-0.88
				c0.172-0.237,0.365-0.343,0.584-0.319c0.808,0.15,1.469,0.225,1.98,0.225c0.451,0,0.715-0.081,0.793-0.244
				c0.078-0.162,0.117-0.668,0.117-1.518V87.42c0-0.125-0.039-0.187-0.117-0.187h-7.344c-0.232,0-0.428-0.125-0.582-0.375
				c-0.156-0.25-0.233-0.562-0.233-0.937V84.048z M208.443,78.69c0-0.375,0.077-0.687,0.232-0.937s0.35-0.375,0.583-0.375h1.608
				c0.232,0,0.432,0.125,0.594,0.375c0.164,0.25,0.246,0.562,0.246,0.937v8.992c0,0.125,0.038,0.213,0.116,0.263
				c3.823,1.499,7.755,3.397,11.796,5.695c0.218,0.125,0.377,0.356,0.479,0.693c0.1,0.337,0.111,0.681,0.035,1.03l-0.467,2.211
				c-0.063,0.35-0.198,0.6-0.408,0.75s-0.424,0.162-0.641,0.037c-3.529-2.023-7.127-3.784-10.794-5.283
				c-0.078-0.05-0.116-0.012-0.116,0.113v13.826c0,0.375-0.082,0.687-0.246,0.937c-0.162,0.25-0.361,0.375-0.594,0.375h-1.608
				c-0.233,0-0.428-0.125-0.583-0.375c-0.155-0.25-0.232-0.563-0.232-0.937V78.69z M189.006,85.678
				c0.115-0.312,0.283-0.505,0.501-0.581l1.096-0.412c0.233-0.075,0.446-0.013,0.641,0.187c0.194,0.2,0.322,0.475,0.385,0.824
				c0.466,2.673,0.886,5.221,1.259,7.644c0.063,0.35,0.031,0.687-0.093,1.012s-0.296,0.524-0.513,0.599l-1.096,0.412
				c-0.219,0.075-0.424,0.02-0.618-0.168s-0.323-0.456-0.385-0.806c-0.312-2.073-0.73-4.646-1.259-7.718
				C188.861,86.322,188.889,85.991,189.006,85.678z M172.296,77.379c0.73-1.174,1.608-1.761,2.634-1.761s1.904,0.587,2.635,1.761
				c0.73,1.174,1.096,2.586,1.096,4.234s-0.365,3.06-1.096,4.234s-1.609,1.761-2.635,1.761s-1.903-0.587-2.634-1.761
				s-1.096-2.585-1.096-4.234S171.565,78.553,172.296,77.379z M152.363,138.189c0,3.897-3.188,7.087-7.086,7.087H67.324
				c-3.897,0-7.086-3.189-7.086-7.087V74.41c0-3.897,3.188-7.087,7.086-7.087h77.953c3.898,0,7.086,3.189,7.086,7.087V138.189z
				 M157.422,98.83c-0.031-0.362,0.023-0.681,0.164-0.956c0.435-0.924,1.118-2.417,2.051-4.478s1.43-3.154,1.492-3.279
				c1.539-3.547,2.553-5.682,3.043-6.407c0.488-0.725,1.177-1.087,2.063-1.087c0.621,0,1.135,0.15,1.539,0.45
				s0.831,0.787,1.281,1.461c0.451,0.675,1.268,2.048,2.448,4.122c2.845,4.896,5.237,8.942,7.181,12.14
				c0.171,0.25,0.256,0.562,0.256,0.937s-0.085,0.7-0.256,0.974l-1.143,1.911c-0.155,0.25-0.342,0.375-0.56,0.375
				s-0.411-0.125-0.583-0.375c-1.942-3.147-4.352-7.256-7.227-12.327c-1.025-1.823-1.714-2.998-2.063-3.522
				s-0.642-0.787-0.874-0.787c-0.187,0-0.432,0.306-0.734,0.918c-0.303,0.612-0.844,1.792-1.62,3.541
				c-1.321,3.048-2.572,5.808-3.753,8.281c-0.141,0.3-0.326,0.48-0.561,0.543c-0.232,0.063-0.442-0.019-0.629-0.244l-1.189-1.349
				C157.563,99.473,157.453,99.192,157.422,98.83z M168.209,129.4c-0.898,0.885-2.235,1.327-4.012,1.327h-2.656v4.754
				c0,0.68-0.138,1.195-0.412,1.547c-0.273,0.351-0.619,0.527-1.037,0.527c-0.437,0-0.789-0.174-1.057-0.522
				c-0.268-0.348-0.4-0.858-0.4-1.532v-12.967c0-0.75,0.146-1.285,0.439-1.606s0.759-0.482,1.397-0.482h3.724
				c1.101,0,1.947,0.1,2.541,0.299c0.585,0.191,1.091,0.509,1.518,0.954c0.426,0.444,0.749,0.988,0.971,1.631
				c0.221,0.644,0.332,1.367,0.332,2.171C169.557,127.216,169.107,128.516,168.209,129.4z M182.689,136.902
				c-0.231,0.248-0.575,0.372-1.031,0.372h-7.889c-0.633,0-1.088-0.165-1.365-0.494s-0.416-0.861-0.416-1.596v-12.649
				c0-0.49,0.063-0.89,0.187-1.2s0.317-0.536,0.582-0.677s0.602-0.212,1.013-0.212h7.664c0.462,0,0.806,0.121,1.031,0.361
				c0.225,0.241,0.337,0.557,0.337,0.946c0,0.397-0.112,0.716-0.337,0.957c-0.226,0.24-0.569,0.361-1.031,0.361h-6.539v4.141h6.021
				c0.442,0,0.773,0.117,0.991,0.351c0.219,0.234,0.327,0.543,0.327,0.927s-0.107,0.696-0.322,0.938
				c-0.215,0.242-0.547,0.363-0.996,0.363h-6.021v4.781h6.764c0.456,0,0.8,0.125,1.031,0.373c0.23,0.248,0.347,0.578,0.347,0.99
				C183.036,136.331,182.92,136.654,182.689,136.902z M183.993,86.652c0.116-0.312,0.284-0.505,0.501-0.581l1.026-0.412
				c0.218-0.075,0.427-0.019,0.629,0.169s0.334,0.456,0.396,0.805c0.342,1.874,0.762,4.359,1.259,7.456
				c0.063,0.35,0.031,0.681-0.094,0.993c-0.123,0.313-0.295,0.506-0.512,0.581l-1.096,0.412c-0.219,0.075-0.424,0.02-0.618-0.168
				s-0.323-0.456-0.385-0.806c-0.436-2.872-0.831-5.357-1.188-7.456C183.85,87.296,183.877,86.965,183.993,86.652z M195.765,122.874
				c-0.248,0.256-0.619,0.384-1.114,0.384h-3.166v12.22c0,0.704-0.134,1.226-0.4,1.566c-0.268,0.34-0.612,0.51-1.035,0.51
				c-0.43,0-0.78-0.172-1.051-0.516c-0.27-0.345-0.404-0.864-0.404-1.561v-12.22h-3.167c-0.495,0-0.863-0.128-1.104-0.384
				c-0.241-0.257-0.361-0.595-0.361-1.016c0-0.436,0.125-0.781,0.376-1.033s0.614-0.379,1.09-0.379h9.224
				c0.502,0,0.875,0.13,1.119,0.39c0.244,0.261,0.366,0.601,0.366,1.022S196.012,122.617,195.765,122.874z M196.326,101.622
				c-1.719,3.247-4.535,5.295-8.451,6.145c-0.233,0.05-0.443-0.038-0.629-0.262c-0.188-0.225-0.304-0.525-0.351-0.899l-0.21-1.574
				c-0.047-0.35-0.008-0.668,0.117-0.955c0.123-0.287,0.295-0.456,0.513-0.506c2.206-0.524,3.936-1.412,5.187-2.661
				s2.176-3.06,2.774-5.433s0.944-5.57,1.038-9.592c0.016-0.35,0.104-0.649,0.268-0.899s0.354-0.362,0.571-0.337l1.142,0.075
				c0.233,0.025,0.432,0.182,0.595,0.469s0.237,0.618,0.222,0.993C198.972,93.229,198.043,98.375,196.326,101.622z M214.138,135.02
				c-0.409,0.753-0.963,1.31-1.659,1.668c-0.437,0.214-0.938,0.366-1.506,0.454c-0.566,0.088-1.229,0.132-1.984,0.132h-4.381
				c-0.633,0-1.084-0.167-1.355-0.5c-0.27-0.333-0.405-0.862-0.405-1.59v-12.649c0-0.742,0.139-1.276,0.415-1.602
				c0.277-0.325,0.726-0.488,1.346-0.488h4.645c0.685,0,1.277,0.05,1.779,0.149s0.952,0.292,1.35,0.575
				c0.339,0.237,0.639,0.538,0.898,0.902s0.459,0.766,0.596,1.207s0.205,0.906,0.205,1.396c0,1.686-0.717,2.919-2.147,3.7
				c1.88,0.703,2.82,2.071,2.82,4.104C214.753,133.42,214.548,134.267,214.138,135.02z M230.188,132.382
				c-0.3,1.063-0.749,1.984-1.349,2.765c-0.6,0.78-1.336,1.376-2.208,1.789c-0.873,0.413-1.873,0.62-3,0.62
				c-1.12,0-2.124-0.212-3.01-0.637s-1.625-1.023-2.218-1.795s-1.041-1.701-1.344-2.787s-0.454-2.26-0.454-3.522
				c0-1.292,0.158-2.478,0.474-3.556c0.316-1.078,0.773-1.996,1.373-2.753s1.329-1.336,2.188-1.738
				c0.86-0.401,1.837-0.602,2.932-0.602c1.485,0,2.761,0.354,3.825,1.061c1.064,0.708,1.871,1.713,2.418,3.017
				c0.548,1.304,0.821,2.835,0.821,4.594C230.638,130.137,230.488,131.318,230.188,132.382z M230.152,104.413
				c-0.217,0.138-0.435,0.131-0.652-0.019l-1.258-0.862c-0.203-0.125-0.343-0.356-0.42-0.693c-0.078-0.337-0.07-0.668,0.023-0.993
				c1.088-3.622,2.082-7.194,2.983-10.716c0.093-0.35,0.245-0.593,0.454-0.73c0.211-0.137,0.424-0.156,0.642-0.056l1.282,0.674
				c0.217,0.125,0.373,0.344,0.466,0.656c0.093,0.313,0.101,0.631,0.024,0.956c-0.934,3.747-1.951,7.431-3.055,11.053
				C230.533,104.032,230.371,104.275,230.152,104.413z M243.541,122.874c-0.248,0.256-0.619,0.384-1.114,0.384h-3.167v12.22
				c0,0.704-0.133,1.226-0.4,1.566c-0.267,0.34-0.611,0.51-1.035,0.51c-0.43,0-0.779-0.172-1.049-0.516
				c-0.271-0.345-0.406-0.864-0.406-1.561v-12.22h-3.166c-0.495,0-0.863-0.128-1.104-0.384c-0.241-0.257-0.361-0.595-0.361-1.016
				c0-0.436,0.125-0.781,0.376-1.033s0.614-0.379,1.09-0.379h9.224c0.501,0,0.874,0.13,1.119,0.39
				c0.244,0.261,0.366,0.601,0.366,1.022S243.788,122.617,243.541,122.874z M256.055,122.874c-0.248,0.256-0.619,0.384-1.114,0.384
				h-3.167v12.22c0,0.704-0.133,1.226-0.4,1.566c-0.267,0.34-0.611,0.51-1.035,0.51c-0.43,0-0.779-0.172-1.049-0.516
				c-0.271-0.345-0.406-0.864-0.406-1.561v-12.22h-3.166c-0.495,0-0.863-0.128-1.104-0.384c-0.241-0.257-0.361-0.595-0.361-1.016
				c0-0.436,0.125-0.781,0.376-1.033s0.614-0.379,1.09-0.379h9.224c0.501,0,0.874,0.13,1.119,0.39
				c0.244,0.261,0.366,0.601,0.366,1.022S256.302,122.617,256.055,122.874z M267.959,136.89c-0.248,0.256-0.609,0.384-1.085,0.384
				h-7.009c-0.633,0-1.088-0.165-1.365-0.494c-0.277-0.329-0.416-0.86-0.416-1.595V122.23c0-0.688,0.133-1.205,0.396-1.549
				c0.265-0.344,0.611-0.516,1.043-0.516c0.437,0,0.79,0.17,1.061,0.511c0.271,0.34,0.406,0.859,0.406,1.555v12.247h5.884
				c0.47,0,0.829,0.134,1.08,0.401s0.376,0.604,0.376,1.008C268.33,136.3,268.207,136.634,267.959,136.89z M269.896,98.324
				c-0.21,0.15-0.423,0.162-0.642,0.037c-3.527-2.023-7.125-3.784-10.793-5.283c-0.078-0.05-0.117-0.012-0.117,0.113v13.826
				c0,0.375-0.082,0.687-0.244,0.937c-0.164,0.25-0.361,0.375-0.595,0.375h-1.608c-0.233,0-0.428-0.125-0.583-0.375
				c-0.155-0.25-0.233-0.563-0.233-0.937V78.69c0-0.375,0.078-0.687,0.233-0.937s0.35-0.375,0.583-0.375h1.608
				c0.233,0,0.431,0.125,0.595,0.375c0.162,0.25,0.244,0.562,0.244,0.937v8.992c0,0.125,0.039,0.213,0.117,0.263
				c3.823,1.499,7.755,3.397,11.796,5.695c0.218,0.125,0.377,0.356,0.478,0.693c0.102,0.337,0.113,0.681,0.035,1.03l-0.466,2.211
				C270.241,97.924,270.105,98.174,269.896,98.324z M280.94,136.902c-0.231,0.248-0.575,0.372-1.03,0.372h-7.889
				c-0.633,0-1.088-0.165-1.365-0.494s-0.416-0.861-0.416-1.596v-12.649c0-0.49,0.062-0.89,0.186-1.2s0.318-0.536,0.582-0.677
				c0.265-0.142,0.603-0.212,1.014-0.212h7.663c0.463,0,0.807,0.121,1.031,0.361c0.225,0.241,0.337,0.557,0.337,0.946
				c0,0.397-0.112,0.716-0.337,0.957c-0.225,0.24-0.568,0.361-1.031,0.361h-6.538v4.141h6.021c0.442,0,0.773,0.117,0.992,0.351
				c0.218,0.234,0.327,0.543,0.327,0.927s-0.107,0.696-0.322,0.938c-0.215,0.242-0.548,0.363-0.997,0.363h-6.021v4.781h6.764
				c0.455,0,0.799,0.125,1.03,0.373s0.347,0.578,0.347,0.99C281.287,136.331,281.172,136.654,280.94,136.902z M281.57,85.734
				c0,4.771-0.152,8.531-0.455,11.278c-0.303,2.748-0.793,4.896-1.469,6.445s-1.667,2.885-2.973,4.009
				c-0.217,0.175-0.439,0.218-0.664,0.131c-0.226-0.088-0.4-0.294-0.524-0.618l-0.792-2.023c-0.125-0.3-0.16-0.618-0.105-0.956
				c0.055-0.337,0.183-0.593,0.385-0.768c0.746-0.699,1.328-1.405,1.748-2.117s0.762-1.742,1.025-3.091
				c0.265-1.349,0.439-2.941,0.525-4.777c0.085-1.836,0.128-4.34,0.128-7.513V79.44c0-0.375,0.077-0.687,0.233-0.937
				c0.154-0.25,0.35-0.375,0.582-0.375h1.539c0.232,0,0.428,0.125,0.582,0.375c0.156,0.25,0.234,0.562,0.234,0.937V85.734z
				 M293.816,134.963c-0.447,0.811-1.1,1.445-1.959,1.904c-0.86,0.458-1.88,0.688-3.059,0.688c-1.413,0-2.579-0.313-3.498-0.94
				c-0.651-0.451-1.181-1.053-1.588-1.806c-0.407-0.753-0.61-1.485-0.61-2.197c0-0.413,0.122-0.767,0.366-1.061
				s0.556-0.441,0.934-0.441c0.306,0,0.564,0.114,0.776,0.344s0.393,0.57,0.543,1.021c0.183,0.535,0.379,0.982,0.591,1.342
				s0.51,0.656,0.895,0.889c0.385,0.233,0.89,0.35,1.516,0.35c0.86,0,1.559-0.235,2.097-0.706c0.538-0.47,0.807-1.057,0.807-1.761
				c0-0.558-0.146-1.011-0.435-1.359c-0.291-0.348-0.665-0.613-1.125-0.797c-0.459-0.184-1.073-0.379-1.843-0.585
				c-1.029-0.283-1.892-0.614-2.585-0.993c-0.694-0.378-1.244-0.895-1.652-1.548c-0.406-0.654-0.61-1.467-0.61-2.438
				c0-0.925,0.215-1.747,0.645-2.466c0.431-0.719,1.052-1.272,1.866-1.658c0.814-0.387,1.772-0.58,2.873-0.58
				c0.88,0,1.641,0.128,2.282,0.384c0.642,0.257,1.174,0.597,1.598,1.021c0.423,0.425,0.732,0.87,0.928,1.337
				c0.195,0.466,0.294,0.921,0.294,1.365c0,0.405-0.123,0.771-0.367,1.096s-0.548,0.487-0.912,0.487
				c-0.332,0-0.584-0.098-0.757-0.293c-0.172-0.195-0.359-0.516-0.562-0.96c-0.26-0.633-0.573-1.128-0.938-1.483
				c-0.365-0.355-0.952-0.533-1.76-0.533c-0.75,0-1.354,0.193-1.813,0.58c-0.46,0.386-0.689,0.851-0.689,1.394
				c0,0.336,0.078,0.627,0.234,0.872c0.156,0.244,0.372,0.455,0.646,0.631s0.551,0.313,0.831,0.413s0.743,0.245,1.388,0.436
				c0.808,0.222,1.539,0.467,2.193,0.734s1.211,0.592,1.67,0.975s0.816,0.866,1.074,1.451c0.257,0.585,0.386,1.302,0.386,2.15
				C294.485,133.239,294.262,134.152,293.816,134.963z M295.627,92.067c-0.809,10.292-4.203,15.512-10.188,15.662
				c-0.232,0-0.432-0.131-0.594-0.393c-0.164-0.263-0.245-0.581-0.245-0.956V79.44c0-0.375,0.081-0.687,0.245-0.937
				c0.162-0.25,0.361-0.375,0.594-0.375h1.563c0.232,0,0.432,0.125,0.594,0.375c0.164,0.25,0.245,0.562,0.245,0.937v22.856
				c0,0.15,0.038,0.2,0.116,0.149c1.367-0.599,2.429-1.779,3.183-3.541c0.754-1.761,1.263-4.252,1.526-7.475
				c0.031-0.375,0.137-0.674,0.315-0.899s0.376-0.313,0.595-0.263l1.328,0.3c0.233,0.05,0.42,0.219,0.56,0.506
				S295.658,91.692,295.627,92.067z M174.93,84.236c0.451,0,0.836-0.256,1.154-0.768c0.318-0.512,0.479-1.13,0.479-1.854
				s-0.16-1.343-0.479-1.855c-0.318-0.512-0.703-0.768-1.154-0.768s-0.836,0.256-1.154,0.768c-0.318,0.512-0.477,1.13-0.477,1.855
				s0.158,1.343,0.477,1.854C174.094,83.98,174.479,84.236,174.93,84.236z M225.739,123.563c-0.629-0.463-1.351-0.695-2.166-0.695
				c-0.58,0-1.116,0.128-1.608,0.384c-0.492,0.257-0.916,0.63-1.271,1.12s-0.636,1.116-0.842,1.877
				c-0.205,0.761-0.308,1.617-0.308,2.565c0,0.957,0.103,1.821,0.308,2.594c0.206,0.773,0.496,1.414,0.871,1.923
				s0.805,0.89,1.291,1.143c0.485,0.252,1.019,0.378,1.599,0.378c0.743,0,1.427-0.218,2.049-0.654s1.118-1.11,1.486-2.02
				c0.368-0.911,0.553-2.032,0.553-3.364c0-1.232-0.17-2.299-0.509-3.203S226.368,124.025,225.739,123.563z M210.09,127.126
				c0.395-0.161,0.695-0.468,0.904-0.92c0.163-0.322,0.244-0.683,0.244-1.081c0-0.852-0.257-1.417-0.771-1.697
				c-0.516-0.28-1.301-0.42-2.357-0.42h-2.356v4.359h2.659C209.137,127.368,209.695,127.287,210.09,127.126z"/>
		</g>
	</g>
	<g>
		<g>
			
				<ellipse transform="matrix(0.9246 -0.381 0.381 0.9246 -21.1117 39.1855)" fill="none" stroke="#FFFFFF" stroke-width="2.8347" stroke-linecap="round" stroke-linejoin="round" cx="88.416" cy="72.915" rx="7.82" ry="2.773"/>
			<path fill="none" stroke="#FFFFFF" stroke-width="2.8347" stroke-linecap="round" stroke-linejoin="round" d="M81.99,76.37
				l1.263,3.943c-1.569,1.431-2.362,2.789-2.011,3.642c0.706,1.715,5.771,1.253,11.311-1.03c5.541-2.283,9.459-5.524,8.754-7.238
				c-0.362-0.877-1.863-1.319-3.985-1.236l-2.165-3.913"/>
			<path fill="none" stroke="#FFFFFF" stroke-width="2.8347" stroke-linecap="round" stroke-linejoin="round" d="M83.99,80.703
				c0,0,1.333,1.834,8.166-0.833c0,0,4.834-2.166,5.834-4.833"/>
			<path fill="none" stroke="#FFFFFF" stroke-width="2.8347" stroke-linecap="round" stroke-linejoin="round" d="M85.656,84.703
				l1.167,2.5c0,0,0.333,0.501-1.167,1.834c0,0-15.666,10.333-10.666,22.833l9.666,21.5l0.5,1c0,0,4.373,3.746,5.873,8.58"/>
			<path fill="none" stroke="#FFFFFF" stroke-width="2.8347" stroke-linecap="round" stroke-linejoin="round" d="M99.49,78.703
				l1.166,3c0,0,0.334,1.167,1.834,0.5c0,0,15.667-4.166,22.667,5.667l10.833,24.333c0,0-1.5,5.334,0.333,8.5l10.331,23.497"/>
			<path fill="none" stroke="#FFFFFF" stroke-width="2.8347" stroke-linecap="round" stroke-linejoin="round" d="M78.156,106.537
				c0,0,24.001,0.833,42.167-18.834"/>
			<path fill="none" stroke="#FFFFFF" stroke-width="2.8347" stroke-linecap="round" stroke-linejoin="round" d="M90.323,132.87
				c0,0,22.5,0.834,41.834-18.333"/>
			<path fill="none" stroke="#FFFFFF" stroke-width="2.8347" stroke-linecap="round" stroke-linejoin="round" d="M130.404,144.2
				c0,0-7.081-14.163-3.581-17.663c0,0,2.538-1.754,11.706,16.413"/>
			<path fill="none" stroke="#FFFFFF" stroke-width="2.8347" stroke-linecap="round" stroke-linejoin="round" d="M115.404,143.575
				c-1.172-3.5-2.422-9.675-0.914-11.538c0,0,3.205-1.088,9.039,10.913"/>
			<path fill="none" stroke="#FFFFFF" stroke-width="2.8347" stroke-linecap="round" stroke-linejoin="round" d="M101.029,144.2
				c-0.671-2.141-0.539-6.997,1.127-8.329c0,0,3.521,1.009,8.248,8.329"/>
		</g>
	</g>
</g>
</svg>
