<?xml version="1.0" encoding="utf-8"?>
<!-- Generator: Adobe Illustrator 12.0.0, SVG Export Plug-In . SVG Version: 6.00 Build 51448)  -->
<!DOCTYPE svg PUBLIC "-//W3C//DTD SVG 1.1//EN" "http://www.w3.org/Graphics/SVG/1.1/DTD/svg11.dtd" [
	<!ENTITY ns_svg "http://www.w3.org/2000/svg">
	<!ENTITY ns_xlink "http://www.w3.org/1999/xlink">
]>
<svg  version="1.1" id="レイヤー_1" xmlns="&ns_svg;" xmlns:xlink="&ns_xlink;" width="283.464" height="170.079"
	 viewBox="0 0 283.464 170.079" overflow="visible" enable-background="new 0 0 283.464 170.079" xml:space="preserve">
<rect fill="none" width="283.464" height="170.079"/>
<g>
	<g>
		<g>
			<path fill="#FFFFFF" d="M235.275,49.323H48.189c-3.118,0-5.67,2.551-5.67,5.669v60.094c0,3.119,2.552,5.669,5.67,5.669h187.086
				c3.118,0,5.669-2.551,5.669-5.669V54.992C240.944,51.874,238.394,49.323,235.275,49.323z M196.664,61.184
				c0.056-0.279,0.165-0.49,0.326-0.629l0.597-0.48c0.174-0.14,0.348-0.164,0.522-0.074c0.174,0.09,0.305,0.265,0.392,0.524
				l0.84,2.608c0.086,0.28,0.102,0.55,0.046,0.81s-0.171,0.459-0.345,0.6l-0.597,0.479c-0.175,0.14-0.349,0.16-0.522,0.06
				c-0.174-0.1-0.305-0.29-0.392-0.569c-0.175-0.56-0.448-1.398-0.82-2.518C196.624,61.733,196.608,61.463,196.664,61.184z
				 M198.389,82.436c-0.074,0.28-0.198,0.47-0.372,0.569l-1.045,0.629c-0.174,0.1-0.348,0.09-0.522-0.03
				c-0.174-0.12-0.292-0.31-0.354-0.57c-0.857-3.396-1.653-6.375-2.387-8.932c-0.074-0.28-0.081-0.55-0.019-0.81
				c0.062-0.26,0.18-0.439,0.354-0.54l0.988-0.629c0.174-0.1,0.348-0.095,0.521,0.015c0.175,0.11,0.299,0.295,0.374,0.555
				c0.857,2.938,1.678,5.916,2.462,8.933C198.464,81.887,198.464,82.156,198.389,82.436z M193.866,61.588
				c0.057-0.27,0.165-0.475,0.326-0.614l0.561-0.45c0.161-0.14,0.328-0.169,0.503-0.09c0.174,0.08,0.305,0.25,0.392,0.51
				c0.373,1.119,0.646,1.968,0.82,2.548c0.087,0.26,0.1,0.53,0.037,0.809c-0.062,0.28-0.174,0.48-0.335,0.6l-0.56,0.45
				c-0.174,0.12-0.346,0.135-0.514,0.045s-0.295-0.264-0.382-0.524c-0.063-0.18-0.146-0.439-0.252-0.779s-0.202-0.65-0.289-0.929
				c-0.087-0.28-0.174-0.54-0.261-0.779C193.826,62.123,193.811,61.858,193.866,61.588z M182.611,67.238
				c0-0.299,0.062-0.549,0.187-0.749c0.124-0.2,0.279-0.3,0.466-0.3h5.875c0.062,0,0.093-0.05,0.093-0.15v-3.687
				c0-0.3,0.063-0.549,0.187-0.749c0.124-0.2,0.28-0.3,0.467-0.3h1.269c0.186,0,0.342,0.1,0.466,0.3
				c0.124,0.2,0.187,0.449,0.187,0.749v3.687c0,0.1,0.031,0.15,0.094,0.15h5.464c0.187,0,0.342,0.1,0.466,0.3
				c0.125,0.2,0.188,0.45,0.188,0.749v1.499c0,0.3-0.063,0.55-0.188,0.75c-0.124,0.2-0.279,0.3-0.466,0.3h-5.464
				c-0.063,0-0.094,0.05-0.094,0.149v12.35c0,1.999-0.152,3.247-0.457,3.747c-0.305,0.499-1.066,0.749-2.284,0.749
				c-0.585,0-1.355-0.08-2.313-0.24c-0.187-0.04-0.339-0.17-0.457-0.39c-0.117-0.22-0.17-0.48-0.158-0.78l0.075-1.438
				c0.024-0.28,0.105-0.515,0.242-0.704c0.137-0.19,0.292-0.275,0.466-0.255c0.646,0.121,1.176,0.18,1.586,0.18
				c0.36,0,0.571-0.065,0.634-0.195c0.062-0.13,0.093-0.535,0.093-1.214v-11.81c0-0.1-0.031-0.149-0.093-0.149h-5.875
				c-0.187,0-0.342-0.1-0.466-0.3c-0.125-0.2-0.187-0.45-0.187-0.75V67.238z M166.754,62.952c0-0.3,0.062-0.549,0.187-0.749
				c0.124-0.2,0.279-0.3,0.466-0.3h1.287c0.187,0,0.345,0.1,0.476,0.3c0.13,0.2,0.195,0.449,0.195,0.749v7.194
				c0,0.1,0.031,0.17,0.094,0.21c3.059,1.199,6.204,2.718,9.437,4.556c0.175,0.1,0.302,0.285,0.383,0.555
				c0.08,0.27,0.09,0.544,0.028,0.824l-0.373,1.769c-0.051,0.28-0.159,0.479-0.327,0.6s-0.339,0.13-0.513,0.03
				c-2.822-1.619-5.701-3.027-8.635-4.227c-0.063-0.04-0.094-0.01-0.094,0.09v11.061c0,0.299-0.065,0.549-0.195,0.75
				c-0.131,0.2-0.289,0.299-0.476,0.299h-1.287c-0.187,0-0.342-0.1-0.466-0.299c-0.125-0.201-0.187-0.45-0.187-0.75V62.952z
				 M151.204,68.542c0.093-0.25,0.227-0.404,0.4-0.464l0.877-0.33c0.187-0.06,0.357-0.01,0.513,0.15
				c0.155,0.16,0.258,0.379,0.308,0.659c0.373,2.138,0.709,4.177,1.008,6.115c0.049,0.28,0.024,0.55-0.075,0.81
				s-0.236,0.419-0.41,0.479l-0.877,0.33c-0.174,0.06-0.339,0.016-0.494-0.135c-0.155-0.15-0.258-0.365-0.308-0.645
				c-0.249-1.659-0.584-3.717-1.007-6.175C151.089,69.057,151.11,68.792,151.204,68.542z M137.836,61.903
				c0.585-0.939,1.287-1.409,2.107-1.409s1.523,0.47,2.107,1.409c0.585,0.939,0.877,2.069,0.877,3.388s-0.292,2.448-0.877,3.387
				c-0.584,0.939-1.287,1.408-2.107,1.408s-1.522-0.469-2.107-1.408c-0.584-0.939-0.876-2.068-0.876-3.387
				S137.252,62.842,137.836,61.903z M121.891,110.551c0,3.118-2.551,5.67-5.669,5.67H53.859c-3.118,0-5.669-2.552-5.669-5.67V59.527
				c0-3.118,2.551-5.669,5.669-5.669h62.362c3.118,0,5.669,2.552,5.669,5.669V110.551z M125.938,79.064
				c-0.025-0.29,0.019-0.544,0.13-0.765c0.349-0.739,0.896-1.934,1.642-3.582s1.144-2.523,1.193-2.623
				c1.231-2.837,2.042-4.545,2.435-5.125c0.391-0.58,0.941-0.869,1.65-0.869c0.497,0,0.907,0.12,1.23,0.359
				c0.323,0.24,0.665,0.63,1.025,1.169c0.361,0.54,1.014,1.639,1.959,3.297c2.275,3.917,4.189,7.154,5.744,9.711
				c0.137,0.2,0.205,0.45,0.205,0.75c0,0.3-0.068,0.56-0.205,0.779l-0.914,1.529c-0.124,0.2-0.273,0.3-0.447,0.3
				c-0.175,0-0.33-0.1-0.467-0.3c-1.554-2.518-3.481-5.805-5.781-9.862c-0.82-1.458-1.371-2.398-1.65-2.817
				c-0.28-0.42-0.514-0.63-0.699-0.63c-0.149,0-0.346,0.245-0.588,0.734c-0.242,0.49-0.675,1.434-1.296,2.833
				c-1.058,2.438-2.058,4.646-3.003,6.625c-0.111,0.24-0.261,0.384-0.447,0.434c-0.188,0.05-0.354-0.015-0.504-0.195l-0.951-1.079
				C126.049,79.578,125.962,79.354,125.938,79.064z M134.566,103.52c-0.719,0.708-1.788,1.062-3.21,1.062h-2.125v3.803
				c0,0.544-0.109,0.957-0.328,1.238c-0.22,0.281-0.496,0.421-0.83,0.421c-0.35,0-0.632-0.14-0.846-0.417
				c-0.214-0.279-0.32-0.687-0.32-1.226V98.027c0-0.6,0.117-1.028,0.352-1.285c0.234-0.257,0.607-0.386,1.118-0.386h2.979
				c0.881,0,1.558,0.08,2.032,0.239c0.469,0.153,0.873,0.407,1.215,0.763c0.341,0.355,0.6,0.79,0.776,1.305s0.266,1.094,0.266,1.737
				C135.645,101.772,135.285,102.813,134.566,103.52z M146.151,109.521c-0.186,0.198-0.461,0.297-0.825,0.297h-6.312
				c-0.506,0-0.87-0.131-1.092-0.395c-0.222-0.263-0.332-0.688-0.332-1.276v-10.12c0-0.392,0.049-0.711,0.148-0.959
				s0.254-0.429,0.466-0.542c0.211-0.113,0.481-0.17,0.81-0.17h6.132c0.369,0,0.645,0.097,0.824,0.289
				c0.181,0.193,0.271,0.445,0.271,0.757c0,0.318-0.09,0.572-0.271,0.766c-0.18,0.192-0.455,0.289-0.824,0.289h-5.231v3.313h4.816
				c0.354,0,0.619,0.094,0.794,0.281c0.175,0.188,0.262,0.435,0.262,0.741c0,0.307-0.086,0.557-0.258,0.75
				c-0.172,0.194-0.438,0.291-0.798,0.291h-4.816v3.825h5.411c0.364,0,0.64,0.1,0.825,0.298c0.185,0.198,0.277,0.462,0.277,0.792
				C146.429,109.064,146.336,109.323,146.151,109.521z M147.194,69.322c0.093-0.25,0.227-0.404,0.4-0.464l0.821-0.33
				c0.174-0.06,0.341-0.015,0.503,0.135s0.268,0.365,0.317,0.644c0.273,1.499,0.609,3.487,1.007,5.965
				c0.05,0.28,0.024,0.545-0.074,0.795c-0.1,0.25-0.236,0.404-0.41,0.464l-0.877,0.33c-0.174,0.06-0.339,0.016-0.494-0.134
				s-0.258-0.365-0.308-0.645c-0.349-2.298-0.665-4.286-0.951-5.965C147.079,69.836,147.101,69.572,147.194,69.322z M156.611,98.299
				c-0.198,0.205-0.495,0.308-0.892,0.308h-2.533v9.776c0,0.563-0.106,0.98-0.32,1.253c-0.214,0.272-0.489,0.408-0.828,0.408
				c-0.344,0-0.624-0.138-0.84-0.413s-0.324-0.691-0.324-1.248v-9.776h-2.533c-0.396,0-0.69-0.103-0.884-0.308
				c-0.192-0.205-0.289-0.476-0.289-0.813c0-0.349,0.101-0.625,0.301-0.827c0.201-0.202,0.491-0.303,0.872-0.303h7.379
				c0.401,0,0.699,0.104,0.896,0.312c0.195,0.208,0.293,0.481,0.293,0.818C156.908,97.823,156.809,98.094,156.611,98.299z
				 M157.06,81.297c-1.374,2.598-3.627,4.236-6.76,4.916c-0.188,0.04-0.354-0.031-0.504-0.21c-0.149-0.18-0.242-0.42-0.28-0.72
				l-0.167-1.259c-0.038-0.28-0.007-0.534,0.093-0.764c0.099-0.229,0.236-0.365,0.41-0.405c1.766-0.419,3.148-1.129,4.149-2.128
				c1.001-0.999,1.74-2.448,2.22-4.346c0.479-1.898,0.755-4.456,0.83-7.674c0.013-0.279,0.084-0.519,0.214-0.719
				c0.131-0.2,0.283-0.29,0.457-0.27l0.914,0.06c0.187,0.021,0.345,0.146,0.476,0.375c0.13,0.23,0.189,0.495,0.177,0.794
				C159.177,74.583,158.434,78.699,157.06,81.297z M171.31,108.016c-0.328,0.602-0.771,1.047-1.327,1.334
				c-0.35,0.171-0.751,0.292-1.205,0.363c-0.453,0.071-0.982,0.106-1.588,0.106h-3.505c-0.506,0-0.867-0.133-1.083-0.399
				c-0.217-0.267-0.325-0.69-0.325-1.272v-10.12c0-0.594,0.111-1.021,0.333-1.281s0.58-0.39,1.075-0.39h3.717
				c0.547,0,1.021,0.04,1.424,0.12c0.401,0.08,0.761,0.233,1.079,0.459c0.271,0.19,0.511,0.431,0.719,0.722s0.366,0.613,0.476,0.965
				c0.109,0.352,0.164,0.725,0.164,1.117c0,1.348-0.572,2.335-1.717,2.96c1.504,0.563,2.256,1.657,2.256,3.284
				C171.802,106.736,171.638,107.413,171.31,108.016z M184.15,105.905c-0.24,0.85-0.6,1.587-1.079,2.212
				c-0.479,0.624-1.068,1.101-1.767,1.431s-1.498,0.496-2.399,0.496c-0.896,0-1.699-0.17-2.408-0.509s-1.3-0.818-1.774-1.437
				c-0.474-0.618-0.833-1.361-1.075-2.229s-0.363-1.808-0.363-2.818c0-1.034,0.127-1.982,0.379-2.845
				c0.254-0.862,0.619-1.597,1.099-2.202s1.063-1.069,1.751-1.391c0.688-0.321,1.47-0.482,2.346-0.482
				c1.188,0,2.208,0.283,3.06,0.849c0.853,0.566,1.497,1.371,1.935,2.414c0.438,1.043,0.657,2.268,0.657,3.675
				C184.51,104.109,184.39,105.055,184.15,105.905z M184.122,83.53c-0.175,0.11-0.349,0.105-0.522-0.015l-1.007-0.689
				c-0.162-0.1-0.273-0.285-0.336-0.555c-0.063-0.27-0.057-0.535,0.019-0.794c0.87-2.897,1.666-5.755,2.388-8.573
				c0.074-0.28,0.195-0.474,0.363-0.584c0.168-0.11,0.339-0.125,0.513-0.045l1.026,0.54c0.174,0.1,0.298,0.275,0.372,0.524
				c0.075,0.25,0.081,0.505,0.02,0.765c-0.746,2.998-1.561,5.945-2.443,8.842C184.427,83.225,184.296,83.42,184.122,83.53z
				 M194.832,98.299c-0.198,0.205-0.495,0.308-0.892,0.308h-2.533v9.776c0,0.563-0.106,0.98-0.32,1.253
				c-0.213,0.272-0.489,0.408-0.828,0.408c-0.344,0-0.623-0.138-0.84-0.413c-0.216-0.275-0.324-0.691-0.324-1.248v-9.776h-2.533
				c-0.396,0-0.69-0.103-0.883-0.308c-0.193-0.205-0.289-0.476-0.289-0.813c0-0.349,0.1-0.625,0.301-0.827
				c0.2-0.202,0.491-0.303,0.871-0.303h7.379c0.401,0,0.7,0.104,0.896,0.312c0.195,0.208,0.293,0.481,0.293,0.818
				C195.129,97.823,195.03,98.094,194.832,98.299z M204.843,98.299c-0.198,0.205-0.495,0.308-0.891,0.308h-2.533v9.776
				c0,0.563-0.107,0.98-0.32,1.253c-0.214,0.272-0.49,0.408-0.828,0.408c-0.344,0-0.624-0.138-0.84-0.413
				c-0.217-0.275-0.324-0.691-0.324-1.248v-9.776h-2.533c-0.396,0-0.691-0.103-0.884-0.308c-0.193-0.205-0.289-0.476-0.289-0.813
				c0-0.349,0.1-0.625,0.301-0.827c0.2-0.202,0.491-0.303,0.872-0.303h7.379c0.4,0,0.699,0.104,0.895,0.312
				c0.195,0.208,0.293,0.481,0.293,0.818C205.14,97.823,205.041,98.094,204.843,98.299z M214.366,109.512
				c-0.197,0.205-0.487,0.307-0.867,0.307h-5.607c-0.506,0-0.87-0.131-1.092-0.395c-0.223-0.263-0.333-0.688-0.333-1.275V97.784
				c0-0.551,0.106-0.963,0.317-1.239c0.211-0.275,0.489-0.413,0.834-0.413c0.35,0,0.632,0.136,0.849,0.409s0.325,0.687,0.325,1.244
				v9.797h4.707c0.375,0,0.663,0.107,0.863,0.321c0.201,0.214,0.302,0.483,0.302,0.807
				C214.664,109.04,214.564,109.307,214.366,109.512z M215.403,78.689c-2.823-1.619-5.701-3.027-8.635-4.227
				c-0.063-0.04-0.094-0.01-0.094,0.09v11.061c0,0.299-0.065,0.549-0.196,0.75c-0.13,0.2-0.289,0.299-0.476,0.299h-1.286
				c-0.187,0-0.343-0.1-0.467-0.299c-0.124-0.201-0.187-0.45-0.187-0.75V62.952c0-0.3,0.063-0.549,0.187-0.749
				c0.124-0.2,0.28-0.3,0.467-0.3h1.286c0.187,0,0.346,0.1,0.476,0.3c0.131,0.2,0.196,0.449,0.196,0.749v7.194
				c0,0.1,0.031,0.17,0.094,0.21c3.059,1.199,6.203,2.718,9.437,4.556c0.174,0.1,0.302,0.285,0.382,0.555
				c0.081,0.27,0.09,0.544,0.028,0.824l-0.373,1.769c-0.05,0.28-0.158,0.479-0.326,0.6S215.577,78.789,215.403,78.689z
				 M224.752,109.521c-0.186,0.198-0.46,0.297-0.825,0.297h-6.311c-0.506,0-0.87-0.131-1.092-0.395
				c-0.222-0.263-0.333-0.688-0.333-1.276v-10.12c0-0.392,0.05-0.711,0.148-0.959c0.1-0.248,0.255-0.429,0.466-0.542
				c0.212-0.113,0.482-0.17,0.811-0.17h6.131c0.37,0,0.646,0.097,0.825,0.289c0.18,0.193,0.27,0.445,0.27,0.757
				c0,0.318-0.09,0.572-0.27,0.766c-0.18,0.192-0.455,0.289-0.825,0.289h-5.23v3.313h4.816c0.354,0,0.619,0.094,0.794,0.281
				c0.174,0.188,0.262,0.435,0.262,0.741c0,0.307-0.086,0.557-0.258,0.75c-0.173,0.194-0.438,0.291-0.798,0.291h-4.816v3.825h5.41
				c0.365,0,0.64,0.1,0.825,0.298c0.185,0.198,0.277,0.462,0.277,0.792C225.029,109.064,224.937,109.323,224.752,109.521z
				 M225.255,68.587c0,3.817-0.121,6.825-0.363,9.022c-0.242,2.199-0.635,3.917-1.175,5.156c-0.541,1.239-1.334,2.308-2.378,3.207
				c-0.174,0.14-0.352,0.175-0.531,0.105c-0.181-0.07-0.32-0.235-0.42-0.495l-0.634-1.619c-0.1-0.24-0.128-0.495-0.084-0.765
				c0.043-0.27,0.146-0.475,0.308-0.614c0.597-0.56,1.063-1.125,1.398-1.694c0.336-0.57,0.609-1.394,0.82-2.473
				c0.212-1.079,0.352-2.353,0.42-3.822s0.103-3.472,0.103-6.01v-5.036c0-0.3,0.063-0.549,0.187-0.749
				c0.124-0.2,0.279-0.3,0.467-0.3h1.23c0.187,0,0.342,0.1,0.466,0.3c0.124,0.2,0.187,0.449,0.187,0.749V68.587z M235.052,107.97
				c-0.356,0.648-0.879,1.156-1.566,1.523c-0.688,0.367-1.504,0.55-2.447,0.55c-1.13,0-2.063-0.251-2.798-0.752
				c-0.521-0.361-0.944-0.842-1.271-1.445s-0.488-1.188-0.488-1.757c0-0.33,0.098-0.613,0.293-0.849
				c0.195-0.235,0.444-0.353,0.747-0.353c0.244,0,0.451,0.091,0.621,0.275c0.169,0.184,0.313,0.457,0.435,0.817
				c0.146,0.428,0.303,0.786,0.473,1.073c0.169,0.288,0.408,0.525,0.715,0.711c0.309,0.187,0.712,0.28,1.213,0.28
				c0.688,0,1.247-0.188,1.678-0.564c0.43-0.376,0.645-0.846,0.645-1.409c0-0.446-0.115-0.809-0.348-1.087s-0.531-0.491-0.899-0.638
				c-0.367-0.146-0.858-0.303-1.475-0.468c-0.823-0.227-1.513-0.491-2.067-0.794c-0.556-0.303-0.996-0.716-1.322-1.239
				c-0.325-0.523-0.488-1.173-0.488-1.951c0-0.74,0.172-1.398,0.516-1.973c0.344-0.576,0.842-1.018,1.493-1.326
				c0.651-0.31,1.418-0.464,2.298-0.464c0.704,0,1.313,0.103,1.826,0.308c0.514,0.206,0.939,0.477,1.278,0.817
				c0.338,0.34,0.586,0.696,0.742,1.07c0.156,0.373,0.234,0.737,0.234,1.092c0,0.324-0.098,0.616-0.293,0.876
				s-0.438,0.39-0.729,0.39c-0.266,0-0.468-0.078-0.605-0.234s-0.288-0.413-0.449-0.768c-0.209-0.507-0.459-0.902-0.751-1.187
				s-0.761-0.426-1.407-0.426c-0.6,0-1.084,0.154-1.451,0.464c-0.367,0.309-0.551,0.68-0.551,1.115c0,0.269,0.063,0.501,0.188,0.698
				c0.125,0.195,0.297,0.364,0.516,0.504s0.441,0.251,0.665,0.33c0.225,0.08,0.595,0.196,1.11,0.349
				c0.646,0.177,1.23,0.374,1.754,0.587s0.97,0.474,1.337,0.78c0.367,0.306,0.653,0.693,0.859,1.161
				c0.205,0.468,0.309,1.042,0.309,1.721C235.588,106.591,235.409,107.322,235.052,107.97z M228.352,86.183
				c-0.187,0-0.346-0.105-0.476-0.314c-0.131-0.21-0.196-0.465-0.196-0.765V63.552c0-0.3,0.065-0.549,0.196-0.749
				c0.13-0.2,0.289-0.3,0.476-0.3h1.249c0.187,0,0.346,0.1,0.476,0.3c0.131,0.2,0.196,0.449,0.196,0.749v18.285
				c0,0.12,0.03,0.16,0.093,0.12c1.094-0.479,1.942-1.423,2.546-2.833c0.604-1.409,1.01-3.402,1.222-5.98
				c0.024-0.3,0.108-0.54,0.252-0.719c0.143-0.18,0.301-0.25,0.476-0.21l1.063,0.24c0.187,0.04,0.336,0.175,0.447,0.405
				c0.112,0.229,0.156,0.494,0.131,0.794C235.854,81.887,233.138,86.063,228.352,86.183z M130.794,98.406h-1.563v4.113h1.563
				c0.547,0,1.004-0.067,1.371-0.202c0.367-0.134,0.647-0.354,0.84-0.661c0.193-0.306,0.289-0.707,0.289-1.203
				c0-0.594-0.148-1.077-0.445-1.451C132.516,98.605,131.831,98.406,130.794,98.406z M168.842,104.303
				c-0.407-0.306-1.015-0.459-1.823-0.459h-2.417v3.925h2.495c1.57,0,2.355-0.664,2.355-1.99
				C169.452,105.101,169.248,104.608,168.842,104.303z M139.943,67.389c0.36,0,0.668-0.205,0.923-0.615
				c0.255-0.409,0.383-0.904,0.383-1.483s-0.128-1.074-0.383-1.484s-0.563-0.615-0.923-0.615s-0.669,0.205-0.923,0.615
				c-0.255,0.41-0.383,0.904-0.383,1.484s0.128,1.074,0.383,1.483C139.274,67.184,139.583,67.389,139.943,67.389z M180.591,98.85
				c-0.503-0.37-1.081-0.556-1.732-0.556c-0.465,0-0.894,0.103-1.287,0.308c-0.395,0.205-0.733,0.504-1.018,0.896
				s-0.508,0.893-0.673,1.501c-0.164,0.609-0.246,1.293-0.246,2.052c0,0.766,0.082,1.457,0.246,2.076
				c0.165,0.618,0.396,1.131,0.696,1.538c0.3,0.407,0.645,0.712,1.033,0.914c0.389,0.202,0.814,0.303,1.279,0.303
				c0.594,0,1.141-0.174,1.639-0.523c0.498-0.349,0.895-0.888,1.189-1.616c0.294-0.729,0.441-1.626,0.441-2.691
				c0-0.985-0.136-1.839-0.406-2.562C181.481,99.766,181.094,99.22,180.591,98.85z M168.071,101.701
				c0.315-0.129,0.557-0.375,0.724-0.736c0.13-0.258,0.195-0.546,0.195-0.865c0-0.681-0.206-1.133-0.618-1.357
				c-0.412-0.224-1.04-0.336-1.885-0.336h-1.886v3.488h2.128C167.309,101.894,167.756,101.83,168.071,101.701z"/>
		</g>
	</g>
	<g>
		<g>
			
				<ellipse transform="matrix(0.9246 -0.381 0.381 0.9246 -16.8894 31.3486)" fill="none" stroke="#FFFFFF" stroke-width="2.2677" stroke-linecap="round" stroke-linejoin="round" cx="70.732" cy="58.332" rx="6.256" ry="2.218"/>
			<path fill="none" stroke="#FFFFFF" stroke-width="2.2677" stroke-linecap="round" stroke-linejoin="round" d="M65.592,61.096
				l1.01,3.155c-1.255,1.145-1.89,2.231-1.608,2.914c0.564,1.372,4.616,1.002,9.049-0.824c4.433-1.827,7.567-4.42,7.003-5.791
				c-0.29-0.701-1.491-1.055-3.188-0.989l-1.731-3.13"/>
			<path fill="none" stroke="#FFFFFF" stroke-width="2.2677" stroke-linecap="round" stroke-linejoin="round" d="M67.191,64.563
				c0,0,1.066,1.467,6.533-0.667c0,0,3.867-1.733,4.667-3.867"/>
			<path fill="none" stroke="#FFFFFF" stroke-width="2.2677" stroke-linecap="round" stroke-linejoin="round" d="M68.524,67.762
				l0.934,2c0,0,0.267,0.401-0.934,1.467c0,0-12.533,8.267-8.533,18.267l7.733,17.2l0.4,0.8c0,0,3.497,2.997,4.697,6.864"/>
			<path fill="none" stroke="#FFFFFF" stroke-width="2.2677" stroke-linecap="round" stroke-linejoin="round" d="M79.592,62.962
				l0.933,2.4c0,0,0.268,0.934,1.467,0.4c0,0,12.534-3.333,18.134,4.534l8.667,19.466c0,0-1.2,4.267,0.266,6.8l8.265,18.797"/>
			<path fill="none" stroke="#FFFFFF" stroke-width="2.2677" stroke-linecap="round" stroke-linejoin="round" d="M62.524,85.229
				c0,0,19.201,0.667,33.733-15.067"/>
			<path fill="none" stroke="#FFFFFF" stroke-width="2.2677" stroke-linecap="round" stroke-linejoin="round" d="M72.258,106.296
				c0,0,18,0.667,33.468-14.667"/>
			<path fill="none" stroke="#FFFFFF" stroke-width="2.2677" stroke-linecap="round" stroke-linejoin="round" d="M104.322,115.36
				c0,0-5.664-11.331-2.864-14.13c0,0,2.031-1.403,9.364,13.13"/>
			<path fill="none" stroke="#FFFFFF" stroke-width="2.2677" stroke-linecap="round" stroke-linejoin="round" d="M92.322,114.86
				c-0.938-2.8-1.937-7.74-0.73-9.23c0,0,2.563-0.87,7.23,8.73"/>
			<path fill="none" stroke="#FFFFFF" stroke-width="2.2677" stroke-linecap="round" stroke-linejoin="round" d="M80.822,115.36
				c-0.536-1.712-0.431-5.598,0.902-6.663c0,0,2.817,0.807,6.598,6.663"/>
		</g>
	</g>
</g>
</svg>
